<?xml version="1.0" encoding="utf-8"?>
<!-- Generator: Adobe Illustrator 21.1.0, SVG Export Plug-In . SVG Version: 6.00 Build 0)  -->
<svg version="1.1" id="Layer_1" xmlns="http://www.w3.org/2000/svg" xmlns:xlink="http://www.w3.org/1999/xlink" x="0px" y="0px"
	 viewBox="0 0 283.5 283.5" enable-background="new 0 0 283.5 283.5" xml:space="preserve">
<g>
	<g>
		<rect x="32.9" y="149.1" fill-rule="evenodd" clip-rule="evenodd" fill="#FFFFFF" width="218.2" height="40.6"/>
		<path fill="#FFFFFF" d="M249,151.1v36.6H34.9v-36.6H249 M253,147.1h-4H34.9h-4v4v36.6v4h4H249h4v-4v-36.6V147.1L253,147.1z"/>
	</g>
	<g id="outline_tabje">
		<polygon fill-rule="evenodd" clip-rule="evenodd" fill="#FFFFFF" points="10,202.9 27.1,182.6 9.5,162 40.2,162 69.6,202.9 		"/>
		<path fill="#FFFFFF" d="M39.2,164l26.5,36.9H14.3l15.4-18.3L13.8,164H39.2 M41.2,160h-2.1H13.8H5.1l5.6,6.6l13.7,16l-13.2,15.7
			l-5.5,6.6h8.6h51.3h7.8l-4.6-6.3l-26.5-36.9L41.2,160L41.2,160z"/>
	</g>
	<g id="outline_tabje_1_">
		<polygon fill-rule="evenodd" clip-rule="evenodd" fill="#FFFFFF" points="243.3,176.4 213.9,135.5 273.4,135.5 256.4,155.7 
			274,176.4 		"/>
		<path fill="#FFFFFF" d="M269.1,137.5l-15.4,18.3l15.9,18.6h-25.4l-26.5-36.9H269.1 M277.7,133.5h-8.6h-51.3H210l4.6,6.3l26.5,36.9
			l1.2,1.7h2.1h25.4h8.7l-5.6-6.6l-13.7-16l13.2-15.7L277.7,133.5L277.7,133.5z"/>
	</g>
	<g id="blue_star_2_">
		<polygon fill-rule="evenodd" clip-rule="evenodd" fill="#FFFFFF" points="126.2,241.7 117.6,244.6 111.1,238.2 102.2,239.7 
			96.8,232.4 87.7,232.6 83.6,224.5 74.6,223.3 71.7,214.7 63,212.1 61.4,203 53.1,198.6 53,189.6 45.4,184.5 46.7,175.5 40,169.3 
			42.7,160.6 36.9,153.3 37.7,152.1 40.8,145.9 36.3,138 41.4,130.5 38.2,122 44.4,115.4 42.5,106.5 49.6,100.4 49.4,91.6 57,86.8 
			58.1,78.2 66.4,74.5 68.8,66.2 77.6,63.8 81.1,56 90.3,55 95.3,47.2 104.3,48.1 110.2,41.2 119,43.5 125.9,37.6 134.3,41.2 
			142,36.4 149.7,41.2 158.1,37.7 165,43.7 173.8,41.4 179.7,48.4 188.7,47.5 193.5,55.3 202.5,55.8 206,64.2 214.9,66.1 
			217.1,74.9 225.3,78.3 226.2,87.3 234.1,91.8 233.5,100.8 240.7,106.5 238.8,115.4 244.9,122 241.8,130.5 246.9,138 242.4,145.9 
			246.2,154.1 240.5,161.2 243.1,170 236.4,176.1 237.6,185.1 230.1,190.2 229.9,199.3 221.7,203.2 220.2,212.1 211.4,214.7 
			208.5,223.3 199.5,224.5 195.4,232.6 186.3,232.4 180.9,239.7 172,238.2 165.5,244.6 156.9,241.7 149.6,247.1 141.6,242.9 
			133.5,247.1 		"/>
		<path fill="#FFFFFF" d="M142,38.8l7.5,4.7l8.2-3.5l6.7,5.8l8.6-2.2l5.8,6.8l8.8-0.8l4.6,7.6l8.9,0.5l3.4,8.2l8.7,1.9l2.1,8.6
			l8,3.2l0.8,8.8l7.7,4.4l-0.5,8.9l7,5.5l-1.9,8.7l6.1,6.5l-3,8.3l5,7.4l-4.4,7.7l3.8,8l-5.6,6.9l2.5,8.5l-6.5,6l1.2,8.8l-7.3,5
			L228,198l-8,3.8l-1.5,8.8l-8.5,2.5l-2.8,8.4l-8.8,1.2l-4.1,7.9l-8.9-0.2l-5.2,7.2l-8.8-1.5l-6.3,6.3l-8.4-2.9l-7.2,5.3l-7.9-4.1
			l-7.9,4.1l-7.2-5.3l-8.4,2.9l-6.3-6.3l-8.8,1.5l-5.2-7.2l-8.9,0.2l-4.1-7.9l-8.8-1.2l-2.8-8.4l-8.5-2.5l-1.6-8.8l-8.1-4.3
			l-0.1-8.9l-7.4-5l1.2-8.8l-6.5-6.1l2.6-8.5l-5.5-7l0-0.1l3.7-7.3l-4.4-7.7l5-7.4l-3.2-8.3l6-6.5l-1.9-8.7l6.9-5.9l-0.2-8.6
			l7.5-4.7l1.1-8.5l8.2-3.6l2.3-8.1l8.7-2.3l3.4-7.7l9-1l4.8-7.5l8.8,0.9l5.8-6.7l8.6,2.2l6.8-5.8l8.2,3.5L142,38.8 M142,34.1
			l-2.1,1.3l-5.8,3.6l-6.2-2.7l-2.3-1l-1.9,1.6l-5.2,4.4l-6.6-1.7l-2.4-0.6l-1.6,1.9l-4.5,5.2l-6.8-0.7l-2.5-0.2l-1.3,2.1l-3.8,5.9
			l-7.1,0.8l-2.3,0.3l-0.9,2.1l-2.6,5.9L69.4,64l-2.2,0.6l-0.6,2.2l-1.8,6.3l-6.4,2.8l-2.1,0.9L56,79.1l-0.8,6.6l-5.9,3.7l-1.9,1.2
			l0.1,2.3l0.2,6.7l-5.5,4.7l-1.8,1.6l0.5,2.3l1.4,6.6l-4.6,5l-1.7,1.8l0.9,2.3l2.4,6.4l-3.8,5.6l-1.4,2.1l1.2,2.2l3.3,5.9l-2.6,5.2
			l-1.5,2.3l1.8,2.3l4.2,5.3l-2,6.5l-0.7,2.4l1.8,1.7l5,4.6l-0.9,6.7l-0.3,2.5l2.1,1.4l5.6,3.8l0.1,6.8l0,2.4l2.1,1.1l6.4,3.4
			l1.2,6.9l0.4,2.4l2.4,0.7l6.5,1.9l2.2,6.4l0.8,2.4l2.5,0.3l6.7,0.9l3.1,6l1.1,2.2l2.5-0.1l6.8-0.1l4,5.5l1.5,2l2.5-0.4l6.7-1.2
			l4.8,4.8l1.8,1.8l2.4-0.8l6.4-2.2l5.5,4l2,1.5l2.2-1.2l6-3.1l6,3.1l2.2,1.2l2-1.5l5.5-4l6.4,2.2l2.4,0.8l1.8-1.8l4.8-4.8l6.7,1.2
			l2.5,0.4l1.5-2l4-5.5l6.8,0.1l2.5,0.1l1.1-2.2l3.1-6l6.7-0.9l2.5-0.3l0.8-2.4l2.2-6.4l6.5-1.9l2.4-0.7l0.4-2.5l1.2-6.7l6.2-2.9
			l2.3-1.1l0-2.5l0.1-6.8l5.6-3.8l2-1.4l-0.3-2.4l-0.9-6.7l5-4.6l1.8-1.7l-0.7-2.4l-1.9-6.5l4.3-5.3l1.6-1.9l-1.1-2.3l-2.9-6.2
			l3.4-5.9l1.2-2.2l-1.4-2.1l-3.8-5.7l2.3-6.4l0.8-2.3l-1.7-1.8l-4.6-5l1.4-6.6l0.5-2.4l-2-1.5l-5.3-4.2l0.4-6.8l0.1-2.5l-2.2-1.2
			L228,86l-0.6-6.8l-0.2-2.4l-2.3-0.9l-6.1-2.5l-1.6-6.6l-0.6-2.4l-2.4-0.5l-6.6-1.4l-2.6-6.3l-1-2.3l-2.5-0.1l-6.8-0.4l-3.6-5.8
			l-1.3-2.1l-2.5,0.2l-6.8,0.6l-4.4-5.2l-1.6-1.9l-2.4,0.6l-6.6,1.7l-5.1-4.5l-1.9-1.6l-2.3,1l-6.3,2.7l-5.8-3.6L142,34.1L142,34.1z
			"/>
	</g>
	<g id="tabje">
		<defs>
			<rect id="SVGID_13_" x="216.9" y="137.8" width="51.8" height="36.6"/>
		</defs>
		<clipPath id="SVGID_1_">
			<use xlink:href="#SVGID_13_"  overflow="visible"/>
		</clipPath>
		<path id="_x31_-1_2_" clip-path="url(#SVGID_1_)" fill-rule="evenodd" clip-rule="evenodd" fill="#00568F" d="M150.1,204.7
			c-0.7-0.7-1.8-0.7-2.5,0c-0.7,0.7-0.7,1.8,0,2.5c0.7,0.7,1.8,0.7,2.5,0C150.8,206.5,150.8,205.3,150.1,204.7 M133,204.7
			c0.7-0.7,1.8-0.7,2.5,0c0.7,0.7,0.7,1.8,0,2.5c-0.7,0.7-1.8,0.7-2.5,0C132.3,206.5,132.3,205.3,133,204.7z M150.9,203.9
			c-1.1-1.1-2.9-1.1-4,0c-0.6,0.6-0.9,1.3-0.8,2.1l0,0c0,0,0,0.1,0,0.1c0,1.1-0.5,2.2-1,3c-1.1,1.2-2.2,2.3-3.4,3.3
			c-1.2-1-2.4-2.1-3.4-3.3c-0.6-0.8-1.1-1.9-1-3c0,0,0-0.1,0-0.1l0,0c0-0.8-0.3-1.5-0.8-2.1c-1.1-1.1-2.9-1.1-4,0
			c-1.1,1.1-1.1,2.9,0,4c0.6,0.6,1.3,0.9,2.1,0.8h0c0,0,0.1,0,0.1,0c1.1,0,2.1,0.6,2.8,1.3l3.3,3.3c-5.1,4.2-10.2,7.3-9,11l10-10
			l10,10c1.1-3.7-3.9-6.8-9-11l3.3-3.3c0.7-0.7,1.7-1.3,2.8-1.3c0,0,0.1,0,0.1,0h0c0.8,0,1.5-0.3,2.1-0.8
			C152,206.8,152,205,150.9,203.9z M48,184.1v1.2h-5.8v-1.2H48z M54.9,184.1v1.2h-5.8v-1.2H54.9z M61.8,184.1v1.2H56v-1.2H61.8z
			 M68.7,184.1v1.2H63v-1.2H68.7z M75.6,184.1v1.2h-5.8v-1.2H75.6z M82.6,184.1v1.2h-5.8v-1.2H82.6z M89.5,184.1v1.2h-5.8v-1.2H89.5
			z M96.4,184.1v1.2h-5.8v-1.2H96.4z M103.3,184.1v1.2h-5.8v-1.2H103.3z M110.2,184.1v1.2h-5.8v-1.2H110.2z M117.1,184.1v1.2h-5.8
			v-1.2H117.1z M124.1,184.1v1.2h-5.8v-1.2H124.1z M131,184.1v1.2h-5.8v-1.2H131z M137.9,184.1v1.2h-5.8v-1.2H137.9z M144.8,184.1
			v1.2H139v-1.2H144.8z M151.7,184.1v1.2H146v-1.2H151.7z M158.6,184.1v1.2h-5.8v-1.2H158.6z M165.5,184.1v1.2h-5.8v-1.2H165.5z
			 M172.5,184.1v1.2h-5.8v-1.2H172.5z M179.4,184.1v1.2h-5.8v-1.2H179.4z M186.3,184.1v1.2h-5.8v-1.2H186.3z M193.2,184.1v1.2h-5.8
			v-1.2H193.2z M200.1,184.1v1.2h-5.8v-1.2H200.1z M207,184.1v1.2h-5.8v-1.2H207z M214,184.1v1.2h-5.8v-1.2H214z M220.9,184.1v1.2
			h-5.8v-1.2H220.9z M227.8,184.1v1.2H222v-1.2H227.8z M234.7,184.1v1.2h-5.8v-1.2H234.7z M241.6,184.1v1.2h-5.8v-1.2H241.6z
			 M248.5,184.1v1.2h-5.8v-1.2H248.5z M41.1,184.1v1.2h-5.8v-1.2H41.1z M48,153.4v1.2h-5.8v-1.2H48z M54.9,153.4v1.2h-5.8v-1.2H54.9
			z M61.8,153.4v1.2H56v-1.2H61.8z M68.7,153.4v1.2H63v-1.2H68.7z M75.6,153.4v1.2h-5.8v-1.2H75.6z M82.6,153.4v1.2h-5.8v-1.2H82.6z
			 M89.5,153.4v1.2h-5.8v-1.2H89.5z M96.4,153.4v1.2h-5.8v-1.2H96.4z M103.3,153.4v1.2h-5.8v-1.2H103.3z M110.2,153.4v1.2h-5.8v-1.2
			H110.2z M117.1,153.4v1.2h-5.8v-1.2H117.1z M124.1,153.4v1.2h-5.8v-1.2H124.1z M131,153.4v1.2h-5.8v-1.2H131z M137.9,153.4v1.2
			h-5.8v-1.2H137.9z M144.8,153.4v1.2H139v-1.2H144.8z M151.7,153.4v1.2H146v-1.2H151.7z M158.6,153.4v1.2h-5.8v-1.2H158.6z
			 M165.5,153.4v1.2h-5.8v-1.2H165.5z M172.5,153.4v1.2h-5.8v-1.2H172.5z M179.4,153.4v1.2h-5.8v-1.2H179.4z M186.3,153.4v1.2h-5.8
			v-1.2H186.3z M193.2,153.4v1.2h-5.8v-1.2H193.2z M200.1,153.4v1.2h-5.8v-1.2H200.1z M207,153.4v1.2h-5.8v-1.2H207z M214,153.4v1.2
			h-5.8v-1.2H214z M220.9,153.4v1.2h-5.8v-1.2H220.9z M227.8,153.4v1.2H222v-1.2H227.8z M234.7,153.4v1.2h-5.8v-1.2H234.7z
			 M241.6,153.4v1.2h-5.8v-1.2H241.6z M248.5,153.4v1.2h-5.8v-1.2H248.5z M41.1,153.4v1.2h-5.8v-1.2H41.1z M229.9,168.1h3.5
			c0.7,0,1.3-0.2,1.7-0.7c0.5-0.5,0.7-1.1,0.7-1.7c0-0.7-0.2-1.3-0.7-1.7c-0.5-0.5-1-0.7-1.7-0.7h-3.5V168.1z M241.8,175.4v4.1h-8.1
			v-4.1h1.7l-1.9-3.2h-3.7v3.2h2v4.1h-8.1v-4.1h2v-12.2h-2v-4.1h9.6c0.9,0,1.7,0.2,2.5,0.6c0.8,0.3,1.5,0.8,2,1.4
			c0.6,0.6,1,1.3,1.4,2c0.3,0.8,0.5,1.6,0.5,2.5c0,1-0.2,2-0.7,2.9c-0.4,0.9-1,1.6-1.8,2.2l2.7,4.7H241.8z M221.9,159.2v6.1h-4.1v-2
			h-4.1v4.1h4.1v4.1h-4.1v4.1h4.1v-2h4.1v6.1h-14.2v-4.1h2v-12.2h-2v-4.1H221.9z M199.6,168.1c0.7,0,1.3-0.2,1.7-0.7
			c0.5-0.5,0.7-1.1,0.7-1.7c0-0.7-0.2-1.3-0.7-1.7c-0.5-0.5-1-0.7-1.7-0.7h-3.5v4.9H199.6z M199.6,159.2c0.9,0,1.7,0.2,2.5,0.5
			c0.8,0.3,1.5,0.8,2.1,1.4c0.6,0.6,1.1,1.3,1.4,2.1c0.3,0.8,0.5,1.6,0.5,2.5c0,0.9-0.2,1.8-0.5,2.5c-0.3,0.8-0.8,1.5-1.4,2.1
			c-0.6,0.6-1.3,1.1-2.1,1.4c-0.8,0.3-1.6,0.5-2.5,0.5h-3.5v3.2h2v4.1H190v-4.1h2v-12.2h-2v-4.1H199.6z M180.2,169.3l-1.8-6.1h-0.2
			l-1.8,6.1H180.2z M188.2,175.4v4.1h-8.1v-4.1h1.9l-0.6-2h-6.3l-0.6,2h1.9v4.1h-8.1v-4.1h2l4.9-16.2h6.2l4.9,16.2H188.2z
			 M163.7,168.1c0.7,0,1.3-0.2,1.7-0.7c0.5-0.5,0.7-1.1,0.7-1.7c0-0.7-0.2-1.3-0.7-1.7c-0.5-0.5-1.1-0.7-1.7-0.7h-3.5v4.9H163.7z
			 M163.7,159.2c0.9,0,1.7,0.2,2.5,0.5c0.8,0.3,1.5,0.8,2.1,1.4c0.6,0.6,1.1,1.3,1.4,2.1c0.3,0.8,0.5,1.6,0.5,2.5
			c0,0.9-0.2,1.8-0.5,2.5c-0.3,0.8-0.8,1.5-1.4,2.1s-1.3,1.1-2.1,1.4c-0.8,0.3-1.6,0.5-2.5,0.5h-3.5v3.2h2v4.1h-8.1v-4.1h2v-12.2h-2
			v-4.1H163.7z M142.4,159.2v4.1h-2v16.2h-4.1l-7.9-12.7v8.6h2v4.1h-8.1v-4.1h2v-12.2h-2v-4.1h6.1l7.9,12.7v-8.6h-2v-4.1H142.4z
			 M112.4,169.3l-1.8-6.1h-0.2l-1.8,6.1H112.4z M120.5,175.4v4.1h-8.1v-4.1h1.9l-0.6-2h-6.3l-0.6,2h1.9v4.1h-8.1v-4.1h2l4.9-16.2
			h6.2l4.9,16.2H120.5z M93,175.4c0.6,0,1.1-0.2,1.6-0.7c0.4-0.4,0.7-1,0.7-1.6c0-0.6-0.2-1.1-0.7-1.6c-0.4-0.4-1-0.7-1.6-0.7h-4.1
			v4.5H93z M88.9,163.2v3.7H93c0.5,0,0.9-0.2,1.3-0.5c0.4-0.4,0.5-0.8,0.5-1.3s-0.2-0.9-0.5-1.3c-0.4-0.4-0.8-0.5-1.3-0.5H88.9z
			 M97.5,168.8c0.6,0.6,1,1.2,1.3,2c0.3,0.7,0.5,1.5,0.5,2.4c0,0.9-0.2,1.7-0.5,2.5c-0.3,0.8-0.8,1.4-1.3,2c-0.6,0.6-1.2,1-2,1.3
			c-0.8,0.3-1.6,0.5-2.5,0.5H82.8v-4.1h2v-12.2h-2v-4.1H93c0.8,0,1.6,0.2,2.3,0.5c0.7,0.3,1.3,0.7,1.9,1.3c0.5,0.5,1,1.2,1.3,1.9
			c0.3,0.7,0.5,1.5,0.5,2.3c0,0.7-0.1,1.4-0.4,2C98.2,167.7,97.9,168.3,97.5,168.8z M69,168.1h3.5c0.7,0,1.3-0.2,1.7-0.7
			c0.5-0.5,0.7-1.1,0.7-1.7c0-0.7-0.2-1.3-0.7-1.7c-0.5-0.5-1-0.7-1.7-0.7H69V168.1z M81,175.4v4.1h-8.1v-4.1h1.7l-1.9-3.2H69v3.2h2
			v4.1h-8.1v-4.1h2v-12.2h-2v-4.1h9.6c0.9,0,1.7,0.2,2.5,0.6c0.8,0.3,1.5,0.8,2,1.4c0.6,0.6,1,1.3,1.4,2c0.3,0.8,0.5,1.6,0.5,2.5
			c0,1-0.2,2-0.7,2.9c-0.4,0.9-1,1.6-1.8,2.2l2.7,4.7H81z M61.1,159.2v4.1h-2v10.2c0,0.9-0.2,1.6-0.5,2.4c-0.3,0.7-0.8,1.4-1.3,1.9
			c-0.6,0.6-1.2,1-1.9,1.3c-0.7,0.3-1.5,0.5-2.4,0.5h-2.8c-0.9,0-1.6-0.2-2.4-0.5c-0.7-0.3-1.4-0.8-1.9-1.3c-0.6-0.6-1-1.2-1.3-1.9
			c-0.3-0.7-0.5-1.5-0.5-2.4v-10.2h-2v-4.1h8.1v4.1h-2v10.2c0,0.6,0.2,1,0.6,1.4c0.4,0.4,0.9,0.6,1.4,0.6H53c0.6,0,1-0.2,1.4-0.6
			c0.4-0.4,0.6-0.9,0.6-1.4v-10.2h-2v-4.1H61.1z M203.4,193.1c0-0.9-0.7-1.6-1.6-1.6c-0.9,0-1.6,0.7-1.6,1.6c0,0.9,0.7,1.6,1.6,1.6
			C202.7,194.7,203.4,194,203.4,193.1z M191.9,196.8v-1.5h-4v-1.6h3.5v-1.5h-3.5v-1.5h4v-1.5h-5.6v7.4H191.9z M181.6,189.4h-1.8
			l-1.9,5.2l-1.9-5.2h-1.8l3,7.5h1.4L181.6,189.4z M169.4,196.8v-7.4h-1.6v7.4H169.4z M162.9,190.9v-1.5h-6.2v1.5h2.3v5.9h1.6v-5.9
			H162.9z M152.5,195.6l-1-1.1c-0.6,0.5-1.1,0.9-2,0.9c-1.3,0-2.2-1.1-2.2-2.3v0c0-1.3,0.9-2.3,2.2-2.3c0.7,0,1.3,0.3,1.9,0.8l1-1.2
			c-0.7-0.7-1.5-1.1-2.9-1.1c-2.3,0-3.9,1.7-3.9,3.8v0c0,2.1,1.6,3.8,3.8,3.8C150.9,197,151.7,196.5,152.5,195.6z M141,196.8v-1.5
			h-4v-1.6h3.5v-1.5H137v-1.5h4v-1.5h-5.6v7.4H141z M130.6,196.8v-1.5h-3.7v-5.9h-1.6v7.4H130.6z M120.5,196.8v-1.5h-3.7v-5.9h-1.6
			v7.4H120.5z M108.5,193.1c0,1.3-0.9,2.3-2.2,2.3c-1.3,0-2.3-1.1-2.3-2.3v0c0-1.3,0.9-2.3,2.2-2.3
			C107.6,190.8,108.5,191.9,108.5,193.1L108.5,193.1z M110.2,193.1L110.2,193.1c0-2.1-1.6-3.8-3.9-3.8c-2.3,0-4,1.7-4,3.8v0
			c0,2.1,1.6,3.8,3.9,3.8C108.6,197,110.2,195.2,110.2,193.1z M98.1,195.6l-1-1.1c-0.6,0.5-1.1,0.9-2,0.9c-1.3,0-2.2-1.1-2.2-2.3v0
			c0-1.3,0.9-2.3,2.2-2.3c0.7,0,1.3,0.3,1.9,0.8l1-1.2c-0.7-0.7-1.5-1.1-2.9-1.1c-2.3,0-3.9,1.7-3.9,3.8v0c0,2.1,1.6,3.8,3.8,3.8
			C96.5,197,97.3,196.5,98.1,195.6z M82.9,193.1c0-0.9-0.7-1.6-1.6-1.6c-0.9,0-1.6,0.7-1.6,1.6c0,0.9,0.7,1.6,1.6,1.6
			C82.2,194.7,82.9,194,82.9,193.1z M195.1,146.7v-0.6l4.6,1.2v0.6L195.1,146.7z M195.1,145.5v-0.6l4.6,1.2v0.6L195.1,145.5z
			 M195.1,144.3v-0.6l4.6,1.2v0.6L195.1,144.3z M195.1,143v-0.6l4.6,1.2v0.6L195.1,143z M195.1,141.8v-0.6l4.6,1.2v0.6L195.1,141.8z
			 M195.1,140.5v-0.6l4.6,1.2v0.6L195.1,140.5z M195.1,139.3v-0.6l4.6,1.2v0.6L195.1,139.3z M195.1,138.1v-0.6l4.6,1.2v0.6
			L195.1,138.1z M195.1,136.8v-0.6l4.6,1.2v0.6L195.1,136.8z M195.1,135.6v-0.6l4.6,1.2v0.6L195.1,135.6z M198.4,114.9l-1.9-1.3
			l0,0.1c0,1.2,0.4,2.3,1,2.7C197.9,116.8,198.4,116.1,198.4,114.9z M177,116.8h8c-0.1-2.3-0.5-5.6-0.8-7.8
			c-0.2-1.2-1.3-7.6-2.2-8.6H180c-0.9,1-2,7.3-2.2,8.6C177.4,111.2,177,114.5,177,116.8z M176.3,120.6v-3.8c0-4.4,2-16.5,3.5-17h0
			v-1.5c0.1-1.2,0.5-1.8,0.8-2.4l0,0l0,0c0.1-0.1,0.2-0.2,0.3-0.2c0.1,0,0.2,0.1,0.3,0.2l0,0l0,0c0.3,0.6,0.7,1.3,0.8,2.4v1.5h0
			c1.4,0.5,3.5,12.7,3.5,17l0,0v3.8H176.3z M176.3,122.8v-1.2h9.3v1.2H176.3z M176.3,125v-1.2h9.3v1.2H176.3z M109.2,120.9v-11.6
			c0-0.2,0.1-0.3,0.3-0.3s0.3,0.1,0.3,0.3v11.6c0,0.2-0.1,0.3-0.3,0.3S109.2,121.1,109.2,120.9z M107.2,120.9v-11.6
			c0-0.2,0.1-0.3,0.3-0.3h0c0.2,0,0.3,0.1,0.3,0.3v11.6c0,0.2-0.1,0.3-0.3,0.3h0C107.4,121.2,107.2,121.1,107.2,120.9z M105.2,120.9
			v-11.6c0-0.2,0.1-0.3,0.3-0.3h0c0.2,0,0.3,0.1,0.3,0.3v11.6c0,0.2-0.1,0.3-0.3,0.3h0C105.4,121.2,105.2,121.1,105.2,120.9z
			 M103.3,120.9v-11.6c0-0.2,0.1-0.3,0.3-0.3l0,0c0.2,0,0.3,0.1,0.3,0.3v11.6c0,0.2-0.1,0.3-0.3,0.3l0,0
			C103.4,121.2,103.3,121.1,103.3,120.9z M101.3,120.9v-11.6c0-0.2,0.1-0.3,0.3-0.3l0,0c0.2,0,0.3,0.1,0.3,0.3v11.6
			c0,0.2-0.1,0.3-0.3,0.3l0,0C101.4,121.2,101.3,121.1,101.3,120.9z M99.3,120.9v-11.6c0-0.2,0.1-0.3,0.3-0.3h0
			c0.2,0,0.3,0.1,0.3,0.3v11.6c0,0.2-0.1,0.3-0.3,0.3h0C99.4,121.2,99.3,121.1,99.3,120.9z M97.3,120.9v-11.6c0-0.2,0.1-0.3,0.3-0.3
			h0c0.2,0,0.3,0.1,0.3,0.3v11.6c0,0.2-0.1,0.3-0.3,0.3h0C97.5,121.2,97.3,121.1,97.3,120.9z M95.4,120.9v-11.6
			c0-0.2,0.1-0.3,0.3-0.3h0c0.2,0,0.3,0.1,0.3,0.3v11.6c0,0.2-0.1,0.3-0.3,0.3h0C95.5,121.2,95.4,121.1,95.4,120.9z M93.4,120.9
			v-11.6c0-0.2,0.1-0.3,0.3-0.3l0,0c0.2,0,0.3,0.1,0.3,0.3v11.6c0,0.2-0.1,0.3-0.3,0.3l0,0C93.5,121.2,93.4,121.1,93.4,120.9z
			 M91.4,120.9v-11.6c0-0.2,0.1-0.3,0.3-0.3c0.2,0,0.3,0.1,0.3,0.3v11.6c0,0.2-0.1,0.3-0.3,0.3C91.5,121.2,91.4,121.1,91.4,120.9z
			 M92.3,121.8h16.7v2h-8.3h-8.3V121.8z M136.2,74.7c0-1.2,1-2.2,2.2-2.2c1.2,0,2.2,1,2.2,2.2c0,1.2-1,2.2-2.2,2.2
			C137.2,76.8,136.2,75.9,136.2,74.7z M166.7,126.8h-7.8v1.5h7.8V126.8z M166.7,125.6h-7.8v-21.7c0-0.4,0.4-0.8,0.8-0.8h6.2
			c0.4,0,0.8,0.4,0.8,0.8V125.6z M165.2,96.3V93l-5-8v11.3H165.2z M165.8,96.9c-1,0-2,0-3,0c-1,0-2,0-3,0c0,1.7,1.4,3,3,3
			S165.8,98.6,165.8,96.9z M248.2,151h0.8l-0.8-0.4V151z M245.9,151h1.2v-1l-1.2-0.6V151z M243.6,151h1.2v-2.2l-1.2-0.6V151z
			 M259.2,170.9v1.2h-5.8v-1.2H259.2z M266.1,171.2v0.8h-5.8v-1.2h5.5L266.1,171.2z M252.3,140.2v1.2h-5.8v-1.2H252.3z M259.2,140.2
			v1.2h-5.8v-1.2H259.2z M266.1,140.2v0.8l-0.3,0.4h-5.5v-1.2H266.1z M241.4,148.3l1.2,2.4v-3l-1.2-0.6V148.3z M243,140.2l-0.7,1.2
			h3v-1.2H243z M34.9,187.6L34.9,187.6h-0.8l0.8,0.4V187.6z M37.2,187.6H36v1l1.2,0.6V187.6z M39.5,187.6h-1.2v2.2l1.2,0.6V187.6z
			 M41.8,187.6h-1.2v3.4l1.2,0.6V187.6z M44,187.6h-1.2v4.6l1.2,0.6V187.6z M46.3,187.6h-1.2v5.7l1.2,0.6V187.6z M48.6,187.6h-1.2
			v6.9l1.2,0.6V187.6z M50.9,187.6h-1.2v8.1l1.2,0.6V187.6z M53.2,187.6H52v9.3l1.2,0.6V187.6z M23.9,167.8v-1.2h5.8v1.2H23.9z
			 M17,167.5v-0.8h5.8v1.2h-5.5L17,167.5z M44.7,198.5v-1.2h5.8v1.2H44.7z M37.7,198.5v-1.2h5.8v1.2H37.7z M30.8,198.5v-1.2h5.8v1.2
			H30.8z M23.9,198.5v-1.2h5.8v1.2H23.9z M17,198.5v-0.8l0.3-0.4h5.5v1.2H17z M52.9,197.4l2.2,1.2h-3.5v-1.2H52.9z M55.5,197.8
			l-0.3-0.2l-0.2-8.9l-0.7-0.4v9.8l1.2,0.6V197.8z M57.8,198.9l-1.2-0.5v1l1.2,0.6V198.9z M59.7,199.8l-0.8-0.4v1.1l0.8,0.4V199.8z
			 M34.8,167.8v-1.2h-4v1.2H34.8z M217.5,187.6h-2.7c-3.5,5.5-7.5,10.5-12.1,15.1c-15.7,15.7-37.3,25.3-61.2,25.3
			c-23.9,0-45.5-9.7-61.2-25.3c-4.6-4.6-8.6-9.6-12.1-15.1h-2.7c3.7,6.1,8.1,11.7,13.1,16.7c16.1,16.1,38.3,26,62.8,26
			c24.5,0,46.7-9.9,62.8-26C209.4,199.3,213.8,193.7,217.5,187.6z M224,187.6h-2.7c-4,7-9,13.4-14.6,19.1
			c-16.7,16.7-39.7,27-65.2,27s-48.5-10.3-65.2-27c-5.7-5.7-10.6-12.1-14.6-19.1h-2.7c4.3,7.6,9.5,14.6,15.7,20.7
			c17.1,17.1,40.7,27.7,66.8,27.7s49.7-10.6,66.8-27.7C214.5,202.2,219.7,195.2,224,187.6z M249,170.9v1.2h3.2v-1.2H249z M192.9,151
			h1.6l0.1-16.6c0-1.6,0.6-6.3,1.4-11.9h0.1v-9.5l2.6,1.7v7.8h0.1c0.8,5.6,1.4,10.3,1.4,11.9l0.1,16.6h1.6l-0.1-16.6
			c0-1.5-0.2-3.2-0.4-4.6c-0.3-2.5-0.7-5-1-7.5l-0.1-0.5v-7.9l-5.9-3.8v11.8l-0.1,0.5c-0.4,2.5-0.7,5-1,7.5
			c-0.2,1.5-0.4,3.1-0.4,4.6L192.9,151z M174.7,151h1.6V126h9.3V151h1.6l0-34.2c0-0.1,0-0.1,0-0.2v-1.5h0c-0.1-2.2-0.5-4.5-0.8-6.6
			c-0.3-2.1-0.8-4.2-1.3-6.3c-0.3-0.9-0.6-2.4-1.3-3.3v-0.9l0-0.1c-0.1-1.3-0.4-2-1-3.1c-0.3-0.7-1-1.1-1.8-1.1
			c-0.7,0-1.4,0.4-1.8,1.1c-0.6,1.1-0.9,1.8-1,3.1l0,0.1V99c-0.7,0.9-1.1,2.4-1.3,3.3c-0.6,2-1,4.2-1.3,6.3
			c-0.3,2.1-0.7,4.4-0.8,6.6h0v1.6c0,0,0,0,0,0.1v10.8V151z M156.6,151h1.6v-21.6v-1.2v-24.4c0-0.4,0.2-0.8,0.4-1l0.1-1.7
			c0.1-1.4,0.2-2.8,0.3-4.2l0-0.6h0.4V82.7l6.3,10.1v3.5h0.6l0,0.6c0.1,1.4,0.2,2.8,0.3,4.2l0.1,1.7c0.3,0.3,0.4,0.6,0.4,1v24.4v1.2
			V151h1.6v-22.6v-24.6c0-0.6-0.2-1.2-0.5-1.7c0-0.4-0.1-0.8-0.1-1.2c-0.1-1.4-0.2-2.8-0.3-4.2l-0.2-2.1h-0.4v-2.3L158,77v17.7h-0.3
			l-0.2,2.1c-0.1,1.4-0.2,2.8-0.3,4.2c0,0.4-0.1,0.8-0.1,1.2c-0.3,0.5-0.5,1-0.5,1.7V151z M125.9,151h5.2v-0.5h-3.6v-1.7h3.6v-0.6
			h-3.6v-1.7h3.6v-0.6h-3.6v-1.7h3.6v-0.6h-3.6v-1.7h5.7v-0.6h-5.7v-1.7h3.6v-0.6h-3.6v-1.7h3.6v-0.6h-3.6v-1.7h3.6v-0.6h-3.6v-1.7
			h3.6v-0.6h-3.6v-1.7h8.9v-0.6h-8.9v-1.7h3.6v-0.6h-3.6v-1.7h3.6v-0.6h-3.6v-1.7h3.6v-0.6h-3.6v-1.7h3.6v-0.6h-3.6v-1.7h5.7v-0.6
			h-5.7v-1.7h3.6v-0.6h-3.6v-1.7h3.6v-0.6h-3.6v-1.7h3.6v-0.6h-3.6V109h3.6v-0.6h-3.6v-1.7h8.9V106h-8.9v-1.7h3.6v-0.6h-3.6V102h3.6
			v-0.6h-3.6v-1.7h3.6V99h-3.6v-1.7h3.6v-0.6h-3.6V95h5.7v-0.6h-5.7v-1.7h3.6V92h-3.6v-1.7h3.6v-0.6h-3.6v-1.7h3.6v-0.6h-3.6v-1.7
			h3.6v-0.6h-3.6v-1.7h8.9v-0.6h-8.9v-5.3c0-6,4.9-10.9,10.9-10.9l0,0c6,0,10.9,4.9,10.9,10.9V151h1.6V77.3
			c0-6.9-5.6-12.5-12.5-12.5c-6.9,0-12.5,5.6-12.5,12.5v19.3V151z M81.1,151h1.6v-21.2c0-1,1.9-2.3,3.4-3.4l1.5-1.1
			c1.7-1.3,1.7-1.6,3.7-1.6v-2c-0.3-0.1-0.5-0.3-0.5-0.6V109c0-0.3,0.3-0.6,0.6-0.6h4.3v-2h1.7c0.4-3.4,0.8-6.8,1.1-10.3
			c0.1-0.7,0.4-0.7,0.8-0.7h1.3h1.3c0.4,0,0.7,0,0.8,0.7c0.4,3.4,0.8,6.8,1.1,10.3h1.7v2h4.3c0.3,0,0.6,0.3,0.6,0.6v12.2
			c0,0.3-0.2,0.6-0.5,0.6v2c2,0,2,0.3,3.7,1.6l1.5,1.1c1.5,1.1,3.4,2.4,3.4,3.4V151h1.6v-21.2c0-2-2.6-3.6-4-4.7l-1.5-1.1
			c-1.3-1-1.9-1.5-2.9-1.7c0.2-0.3,0.3-0.7,0.3-1.1V109c0-1.2-1-2.3-2.3-2.3h-2.7v-2h-1.9c-0.3-2.9-0.7-5.9-1-8.8
			c-0.2-1.4-1.1-2.1-2.4-2.1h-2.6c-1.4,0-2.3,0.7-2.4,2.1c-0.3,2.9-0.7,5.9-1,8.8h-1.9v2h-2.7c-1.2,0-2.3,1-2.3,2.3v12.2
			c0,0.4,0.1,0.8,0.3,1.1c-1,0.2-1.6,0.8-2.9,1.7l-1.5,1.1c-1.4,1.1-4,2.7-4,4.7V151z M53.2,151h2.3c-0.3-3.1-0.5-6.3-0.5-9.5
			c0-23.9,9.7-45.5,25.3-61.2C96,64.7,117.7,55,141.6,55c23.9,0,45.5,9.7,61.2,25.3c15.7,15.7,25.3,37.3,25.3,61.2
			c0,3.2-0.2,6.4-0.5,9.5h2.3c0.3-3.1,0.5-6.3,0.5-9.5c0-24.5-9.9-46.7-26-62.8c-16.1-16.1-38.3-26-62.8-26
			c-24.5,0-46.7,9.9-62.8,26c-16.1,16.1-26,38.3-26,62.8C52.7,144.7,52.9,147.9,53.2,151z M47.6,151h2.3c-0.3-3.1-0.5-6.3-0.5-9.5
			c0-25.4,10.3-48.5,27-65.2c16.7-16.7,39.7-27,65.2-27s48.5,10.3,65.2,27c16.7,16.7,27,39.7,27,65.2c0,3.2-0.2,6.4-0.5,9.5h2.3
			c0.3-3.1,0.5-6.3,0.5-9.5c0-26.1-10.6-49.7-27.7-66.8c-17.1-17.1-40.7-27.7-66.8-27.7S91.9,57.6,74.8,74.7
			c-17.1,17.1-27.7,40.7-27.7,66.8C47.1,144.7,47.3,147.9,47.6,151z M141.6,38.7l7.5,4.7l8.2-3.5l6.7,5.8l8.6-2.2l5.8,6.8l8.8-0.9
			l4.7,7.6l8.9,0.5l3.5,8.2l8.7,1.8l2.2,8.6l8.3,3.2l0.8,8.8l7.7,4.4l-0.5,8.9l7,5.5l-1.9,8.7l6,6.5l-3.2,8.3l5,7.4l0,0.1h24.4
			l-15.4,18.3l15.4,18.3H249v13.3h-19.3l-1.7,1.1l-0.2,8.9l-8,3.8l-1.5,8.8l-8.5,2.5l-2.8,8.4l-8.8,1.2l-4.1,7.9l-8.9-0.2l-5.2,7.2
			l-8.8-1.5l-6.3,6.3l-8.4-2.9l-7.2,5.3l-7.9-4.1l-7.9,4.1l-7.2-5.3l-8.4,2.9l-6.3-6.3l-8.8,1.5l-5.2-7.2l-8.9,0.2l-4.1-7.9
			l-8.8-1.2l-2.8-8.4l-8.5-2.5l-1.5-8.8l-3.5-1.6v1.1H14.3l15.4-18.3l-15.4-18.3h20.5V151h5.6l2.6-5.6l-4.4-7.7l5-7.4l-3.2-8.3
			l6-6.5l-1.9-8.7l7-5.5l-0.5-8.9l7.7-4.4l0.8-8.8l8.3-3.2l2.2-8.6l8.7-1.8l3.5-8.2l8.9-0.5l4.7-7.6l8.8,0.9l5.8-6.8l8.6,2.2
			l6.7-5.8l8.2,3.5L141.6,38.7z"/>
		<rect x="216.9" y="137.8" clip-path="url(#SVGID_1_)" fill="#00568F" width="35.5" height="36.6"/>
		<g clip-path="url(#SVGID_1_)">
			<rect x="253.4" y="140.2" fill="#FFFFFF" width="5.8" height="1.2"/>
			<rect x="260.3" y="140.2" fill="#FFFFFF" width="5.8" height="1.2"/>
			<rect x="246.5" y="140.2" fill="#FFFFFF" width="5.8" height="1.2"/>
			<rect x="239.6" y="140.2" fill="#FFFFFF" width="5.8" height="1.2"/>
			<rect x="232.7" y="140.2" fill="#FFFFFF" width="5.8" height="1.2"/>
			<rect x="239.6" y="140.2" fill="#FFFFFF" width="5.8" height="1.2"/>
			<rect x="225.8" y="140.2" fill="#FFFFFF" width="5.8" height="1.2"/>
			<rect x="218.8" y="140.2" fill="#FFFFFF" width="5.8" height="1.2"/>
		</g>
		<g clip-path="url(#SVGID_1_)">
			<rect x="253.4" y="170.9" fill="#FFFFFF" width="5.8" height="1.2"/>
			<rect x="260.3" y="170.9" fill="#FFFFFF" width="5.8" height="1.2"/>
			<rect x="246.5" y="170.9" fill="#FFFFFF" width="5.8" height="1.2"/>
			<rect x="239.6" y="170.9" fill="#FFFFFF" width="5.8" height="1.2"/>
			<rect x="232.7" y="170.9" fill="#FFFFFF" width="5.8" height="1.2"/>
			<rect x="239.6" y="170.9" fill="#FFFFFF" width="5.8" height="1.2"/>
			<rect x="225.8" y="170.9" fill="#FFFFFF" width="5.8" height="1.2"/>
			<rect x="218.8" y="170.9" fill="#FFFFFF" width="5.8" height="1.2"/>
		</g>
	</g>
	<g id="tabje_1_">
		<defs>
			
				<rect id="SVGID_15_" x="14.3" y="164.3" transform="matrix(-1 -4.491220e-11 4.491220e-11 -1 80.4951 365.1764)" width="51.8" height="36.6"/>
		</defs>
		<clipPath id="SVGID_2_">
			<use xlink:href="#SVGID_15_"  overflow="visible"/>
		</clipPath>
		<path id="_x31_-1_3_" clip-path="url(#SVGID_2_)" fill-rule="evenodd" clip-rule="evenodd" fill="#00568F" d="M133,231.2
			c-0.7,0.7-0.7,1.8,0,2.5c0.7,0.7,1.8,0.7,2.5,0c0.7-0.7,0.7-1.8,0-2.5C134.8,230.5,133.7,230.5,133,231.2 M150.1,233.6
			c-0.7,0.7-1.8,0.7-2.5,0c-0.7-0.7-0.7-1.8,0-2.5c0.7-0.7,1.8-0.7,2.5,0C150.8,231.8,150.8,233,150.1,233.6z M132.2,234.4
			c0.6,0.6,1.3,0.9,2.1,0.8h0c0,0,0.1,0,0.1,0c1.1,0,2.1,0.6,2.8,1.3l3.3,3.3c-5.1,4.2-10.2,7.3-9,11l10-10l10,10
			c1.1-3.7-3.9-6.8-9-11l3.3-3.3c0.7-0.7,1.7-1.3,2.8-1.3c0,0,0.1,0,0.1,0h0c0.8,0,1.5-0.3,2.1-0.8c1.1-1.1,1.1-2.9,0-4
			c-1.1-1.1-2.9-1.1-4,0c-0.6,0.6-0.9,1.3-0.8,2.1l0,0c0,0,0,0.1,0,0.1c0,1.1-0.5,2.2-1,3c-1.1,1.2-2.2,2.3-3.4,3.3
			c-1.2-1-2.4-2.1-3.4-3.3c-0.6-0.8-1.1-1.9-1-3c0,0,0-0.1,0-0.1l0,0c0-0.8-0.3-1.5-0.8-2.1c-1.1-1.1-2.9-1.1-4,0
			C131.1,231.5,131.1,233.3,132.2,234.4z M240.9,210.6v1.2h-5.8v-1.2H240.9z M234,210.6v1.2h-5.8v-1.2H234z M227.1,210.6v1.2h-5.8
			v-1.2H227.1z M220.1,210.6v1.2h-5.8v-1.2H220.1z M213.2,210.6v1.2h-5.8v-1.2H213.2z M206.3,210.6v1.2h-5.8v-1.2H206.3z
			 M199.4,210.6v1.2h-5.8v-1.2H199.4z M192.5,210.6v1.2h-5.8v-1.2H192.5z M185.6,210.6v1.2h-5.8v-1.2H185.6z M178.6,210.6v1.2h-5.8
			v-1.2H178.6z M171.7,210.6v1.2H166v-1.2H171.7z M164.8,210.6v1.2h-5.8v-1.2H164.8z M157.9,210.6v1.2h-5.8v-1.2H157.9z M151,210.6
			v1.2h-5.8v-1.2H151z M144.1,210.6v1.2h-5.8v-1.2H144.1z M137.2,210.6v1.2h-5.8v-1.2H137.2z M130.2,210.6v1.2h-5.8v-1.2H130.2z
			 M123.3,210.6v1.2h-5.8v-1.2H123.3z M116.4,210.6v1.2h-5.8v-1.2H116.4z M109.5,210.6v1.2h-5.8v-1.2H109.5z M102.6,210.6v1.2h-5.8
			v-1.2H102.6z M95.7,210.6v1.2h-5.8v-1.2H95.7z M88.7,210.6v1.2H83v-1.2H88.7z M81.8,210.6v1.2h-5.8v-1.2H81.8z M74.9,210.6v1.2
			h-5.8v-1.2H74.9z M68,210.6v1.2h-5.8v-1.2H68z M61.1,210.6v1.2h-5.8v-1.2H61.1z M54.2,210.6v1.2h-5.8v-1.2H54.2z M47.2,210.6v1.2
			h-5.8v-1.2H47.2z M40.3,210.6v1.2h-5.8v-1.2H40.3z M247.8,210.6v1.2H242v-1.2H247.8z M240.9,179.9v1.2h-5.8v-1.2H240.9z
			 M234,179.9v1.2h-5.8v-1.2H234z M227.1,179.9v1.2h-5.8v-1.2H227.1z M220.1,179.9v1.2h-5.8v-1.2H220.1z M213.2,179.9v1.2h-5.8v-1.2
			H213.2z M206.3,179.9v1.2h-5.8v-1.2H206.3z M199.4,179.9v1.2h-5.8v-1.2H199.4z M192.5,179.9v1.2h-5.8v-1.2H192.5z M185.6,179.9
			v1.2h-5.8v-1.2H185.6z M178.6,179.9v1.2h-5.8v-1.2H178.6z M171.7,179.9v1.2H166v-1.2H171.7z M164.8,179.9v1.2h-5.8v-1.2H164.8z
			 M157.9,179.9v1.2h-5.8v-1.2H157.9z M151,179.9v1.2h-5.8v-1.2H151z M144.1,179.9v1.2h-5.8v-1.2H144.1z M137.2,179.9v1.2h-5.8v-1.2
			H137.2z M130.2,179.9v1.2h-5.8v-1.2H130.2z M123.3,179.9v1.2h-5.8v-1.2H123.3z M116.4,179.9v1.2h-5.8v-1.2H116.4z M109.5,179.9
			v1.2h-5.8v-1.2H109.5z M102.6,179.9v1.2h-5.8v-1.2H102.6z M95.7,179.9v1.2h-5.8v-1.2H95.7z M88.7,179.9v1.2H83v-1.2H88.7z
			 M81.8,179.9v1.2h-5.8v-1.2H81.8z M74.9,179.9v1.2h-5.8v-1.2H74.9z M68,179.9v1.2h-5.8v-1.2H68z M61.1,179.9v1.2h-5.8v-1.2H61.1z
			 M54.2,179.9v1.2h-5.8v-1.2H54.2z M47.2,179.9v1.2h-5.8v-1.2H47.2z M40.3,179.9v1.2h-5.8v-1.2H40.3z M247.8,179.9v1.2H242v-1.2
			H247.8z M53.3,189.7h-3.5c-0.7,0-1.3,0.2-1.7,0.7c-0.5,0.5-0.7,1-0.7,1.7c0,0.7,0.2,1.3,0.7,1.7c0.5,0.5,1,0.7,1.7,0.7h3.5V189.7z
			 M43,201.9l2.7-4.7c-0.7-0.6-1.3-1.3-1.8-2.2c-0.4-0.9-0.7-1.8-0.7-2.9c0-0.9,0.2-1.7,0.5-2.5c0.3-0.8,0.8-1.5,1.4-2
			c0.6-0.6,1.3-1,2-1.4c0.8-0.3,1.6-0.5,2.5-0.6h9.6v4.1h-2v12.2h2v4.1h-8.1v-4.1h2v-3.2h-3.7l-1.9,3.2h1.7v4.1h-8.1v-4.1H43z
			 M75.4,185.7v4.1h-2v12.2h2v4.1H61.2v-6.1h4.1v2h4.1v-4.1h-4.1v-4.1h4.1v-4.1h-4.1v2h-4.1v-6.1H75.4z M87,194.6v-4.9h-3.5
			c-0.7,0-1.3,0.2-1.7,0.7c-0.5,0.5-0.7,1-0.7,1.7c0,0.7,0.2,1.3,0.7,1.7c0.5,0.5,1,0.7,1.7,0.7H87z M93.1,185.7v4.1h-2v12.2h2v4.1
			h-8.1v-4.1h2v-3.2h-3.5c-0.9,0-1.7-0.2-2.5-0.5c-0.8-0.3-1.5-0.8-2.1-1.4c-0.6-0.6-1.1-1.3-1.4-2.1c-0.3-0.8-0.5-1.6-0.5-2.5
			c0-0.9,0.2-1.7,0.5-2.5c0.3-0.8,0.8-1.5,1.4-2.1c0.6-0.6,1.3-1.1,2.1-1.4c0.8-0.3,1.6-0.5,2.5-0.5H93.1z M106.7,195.8l-1.8-6.1
			h-0.2l-1.8,6.1H106.7z M96.8,201.9l4.9-16.2h6.2l4.9,16.2h2v4.1h-8.1v-4.1h1.9l-0.6-2h-6.3l-0.6,2h1.9v4.1h-8.1v-4.1H96.8z
			 M122.9,194.6v-4.9h-3.5c-0.7,0-1.3,0.2-1.7,0.7c-0.5,0.5-0.7,1-0.7,1.7c0,0.7,0.2,1.3,0.7,1.7c0.5,0.5,1.1,0.7,1.7,0.7H122.9z
			 M129,185.7v4.1h-2v12.2h2v4.1h-8.1v-4.1h2v-3.2h-3.5c-0.9,0-1.7-0.2-2.5-0.5c-0.8-0.3-1.5-0.8-2.1-1.4c-0.6-0.6-1.1-1.3-1.4-2.1
			c-0.3-0.8-0.5-1.6-0.5-2.5c0-0.9,0.2-1.7,0.5-2.5c0.3-0.8,0.8-1.5,1.4-2.1c0.6-0.6,1.3-1.1,2.1-1.4c0.8-0.3,1.6-0.5,2.5-0.5H129z
			 M148.9,185.7v4.1h-2v8.6l7.9-12.7h6.1v4.1h-2v12.2h2v4.1h-8.1v-4.1h2v-8.6l-7.9,12.7h-4.1v-16.2h-2v-4.1H148.9z M174.5,195.8
			l-1.8-6.1h-0.2l-1.8,6.1H174.5z M164.6,201.9l4.9-16.2h6.2l4.9,16.2h2v4.1h-8.1v-4.1h1.9l-0.6-2h-6.3l-0.6,2h1.9v4.1h-8.1v-4.1
			H164.6z M194.2,201.9v-4.5h-4.1c-0.6,0-1.1,0.2-1.6,0.7c-0.4,0.4-0.7,1-0.7,1.6c0,0.6,0.2,1.1,0.7,1.6c0.4,0.4,1,0.7,1.6,0.7
			H194.2z M190.2,189.7c-0.5,0-0.9,0.2-1.3,0.5c-0.4,0.4-0.5,0.8-0.5,1.3c0,0.5,0.2,0.9,0.5,1.3c0.4,0.4,0.8,0.5,1.3,0.5h4.1v-3.7
			H190.2z M184.6,193.6c-0.2-0.6-0.4-1.3-0.4-2c0-0.8,0.2-1.6,0.5-2.3c0.3-0.7,0.7-1.3,1.3-1.9c0.5-0.5,1.2-1,1.9-1.3
			c0.7-0.3,1.5-0.5,2.3-0.5h10.2v4.1h-2v12.2h2v4.1h-10.2c-0.9,0-1.7-0.2-2.5-0.5c-0.8-0.3-1.4-0.8-2-1.3c-0.6-0.6-1-1.2-1.3-2
			c-0.3-0.8-0.5-1.6-0.5-2.5c0-0.9,0.2-1.6,0.5-2.4c0.3-0.7,0.7-1.4,1.3-2C185.2,194.8,184.9,194.2,184.6,193.6z M214.1,189.7h-3.5
			c-0.7,0-1.3,0.2-1.7,0.7c-0.5,0.5-0.7,1-0.7,1.7c0,0.7,0.2,1.3,0.7,1.7c0.5,0.5,1,0.7,1.7,0.7h3.5V189.7z M203.9,201.9l2.7-4.7
			c-0.7-0.6-1.3-1.3-1.8-2.2c-0.4-0.9-0.7-1.8-0.7-2.9c0-0.9,0.2-1.7,0.5-2.5c0.3-0.8,0.8-1.5,1.4-2c0.6-0.6,1.3-1,2-1.4
			c0.8-0.3,1.6-0.5,2.5-0.6h9.6v4.1h-2v12.2h2v4.1h-8.1v-4.1h2v-3.2h-3.7l-1.9,3.2h1.7v4.1h-8.1v-4.1H203.9z M230.1,185.7v4.1h-2
			v10.2c0,0.6,0.2,1,0.6,1.4c0.4,0.4,0.9,0.6,1.4,0.6h2.8c0.6,0,1-0.2,1.4-0.6c0.4-0.4,0.6-0.9,0.6-1.4v-10.2h-2v-4.1h8.1v4.1h-2
			v10.2c0,0.9-0.2,1.6-0.5,2.4c-0.3,0.7-0.8,1.4-1.3,1.9c-0.6,0.6-1.2,1-1.9,1.3c-0.7,0.3-1.5,0.5-2.4,0.5h-2.8
			c-0.8,0-1.6-0.2-2.4-0.5c-0.7-0.3-1.4-0.8-1.9-1.3c-0.6-0.6-1-1.2-1.3-1.9c-0.3-0.7-0.5-1.5-0.5-2.4v-10.2h-2v-4.1H230.1z
			 M81.3,221.2c0.9,0,1.6-0.7,1.6-1.6c0-0.9-0.7-1.6-1.6-1.6c-0.9,0-1.6,0.7-1.6,1.6C79.7,220.5,80.4,221.2,81.3,221.2z M96.9,223.3
			v-7.4h-5.6v1.5h4v1.5h-3.5v1.5h3.5v1.6h-4v1.5H96.9z M104.5,223.4h1.4l3-7.5h-1.8l-1.9,5.2l-1.9-5.2h-1.8L104.5,223.4z
			 M115.3,223.3v-7.4h-1.6v7.4H115.3z M122.4,217.4v5.9h1.6v-5.9h2.3v-1.5h-6.2v1.5H122.4z M133.7,223.5c2.2,0,3.8-1.7,3.8-3.8v0
			c0-2.1-1.6-3.8-3.9-3.8c-1.4,0-2.2,0.5-2.9,1.1l1,1.2c0.6-0.5,1.2-0.8,1.9-0.8c1.3,0,2.2,1,2.2,2.3v0c0,1.3-0.9,2.3-2.2,2.3
			c-0.8,0-1.4-0.3-2-0.9l-1,1.1C131.4,223,132.2,223.5,133.7,223.5z M147.8,223.3v-7.4h-5.6v1.5h4v1.5h-3.5v1.5h3.5v1.6h-4v1.5
			H147.8z M157.8,223.3v-7.4h-1.6v5.9h-3.7v1.5H157.8z M167.9,223.3v-7.4h-1.6v5.9h-3.7v1.5H167.9z M174.6,219.6
			c0-1.3,0.9-2.3,2.3-2.3c1.3,0,2.2,1,2.2,2.3v0c0,1.3-0.9,2.3-2.3,2.3C175.5,222,174.6,220.9,174.6,219.6L174.6,219.6z
			 M176.8,223.5c2.3,0,3.9-1.7,3.9-3.8v0c0-2.1-1.7-3.8-4-3.8c-2.3,0-3.9,1.7-3.9,3.8v0C172.9,221.7,174.5,223.5,176.8,223.5z
			 M188.1,223.5c2.2,0,3.8-1.7,3.8-3.8v0c0-2.1-1.6-3.8-3.9-3.8c-1.4,0-2.2,0.5-2.9,1.1l1,1.2c0.6-0.5,1.2-0.8,1.9-0.8
			c1.3,0,2.2,1,2.2,2.3v0c0,1.3-0.9,2.3-2.2,2.3c-0.8,0-1.4-0.3-2-0.9l-1,1.1C185.8,223,186.6,223.5,188.1,223.5z M201.8,221.2
			c0.9,0,1.6-0.7,1.6-1.6c0-0.9-0.7-1.6-1.6-1.6c-0.9,0-1.6,0.7-1.6,1.6C200.2,220.5,200.9,221.2,201.8,221.2z M83.4,174.5v-0.6
			l4.6-1.2v0.6L83.4,174.5z M83.4,173.2v-0.6l4.6-1.2v0.6L83.4,173.2z M83.4,172v-0.6l4.6-1.2v0.6L83.4,172z M83.4,170.8v-0.6
			l4.6-1.2v0.6L83.4,170.8z M83.4,169.5v-0.6l4.6-1.2v0.6L83.4,169.5z M83.4,168.3v-0.6l4.6-1.2v0.6L83.4,168.3z M83.4,167v-0.6
			l4.6-1.2v0.6L83.4,167z M83.4,165.8v-0.6l4.6-1.2v0.6L83.4,165.8z M83.4,164.6v-0.6l4.6-1.2v0.6L83.4,164.6z M83.4,163.3v-0.6
			l4.6-1.2v0.6L83.4,163.3z M85.7,142.9c0.5-0.3,1-1.5,1-2.7l0-0.1l-1.9,1.3C84.7,142.6,85.2,143.3,85.7,142.9z M105.3,135.5
			c-0.2-1.2-1.3-7.6-2.2-8.6h-1.9c-0.9,1-2,7.3-2.2,8.6c-0.4,2.2-0.8,5.5-0.8,7.8h8C106.1,141,105.7,137.7,105.3,135.5z M97.5,147.1
			v-3.8l0,0c0-4.4,2-16.5,3.5-17h0v-1.5c0.1-1.2,0.5-1.8,0.8-2.4l0,0l0,0c0.1-0.1,0.2-0.2,0.3-0.2c0.1,0,0.2,0.1,0.3,0.2l0,0l0,0
			c0.3,0.6,0.7,1.3,0.8,2.4v1.5h0c1.4,0.5,3.5,12.7,3.5,17v3.8H97.5z M97.5,149.3v-1.2h9.3v1.2H97.5z M97.5,151.5v-1.2h9.3v1.2H97.5
			z M173.6,147.7c-0.2,0-0.3-0.1-0.3-0.3v-11.6c0-0.2,0.1-0.3,0.3-0.3c0.2,0,0.3,0.1,0.3,0.3v11.6
			C173.9,147.6,173.8,147.7,173.6,147.7z M175.6,147.7L175.6,147.7c-0.2,0-0.3-0.1-0.3-0.3v-11.6c0-0.2,0.1-0.3,0.3-0.3h0
			c0.2,0,0.3,0.1,0.3,0.3v11.6C175.9,147.6,175.7,147.7,175.6,147.7z M177.6,147.7L177.6,147.7c-0.2,0-0.3-0.1-0.3-0.3v-11.6
			c0-0.2,0.1-0.3,0.3-0.3h0c0.2,0,0.3,0.1,0.3,0.3v11.6C177.9,147.6,177.7,147.7,177.6,147.7z M179.5,147.7L179.5,147.7
			c-0.2,0-0.3-0.1-0.3-0.3v-11.6c0-0.2,0.1-0.3,0.3-0.3l0,0c0.2,0,0.3,0.1,0.3,0.3v11.6C179.8,147.6,179.7,147.7,179.5,147.7z
			 M181.5,147.7L181.5,147.7c-0.2,0-0.3-0.1-0.3-0.3v-11.6c0-0.2,0.1-0.3,0.3-0.3l0,0c0.2,0,0.3,0.1,0.3,0.3v11.6
			C181.8,147.6,181.7,147.7,181.5,147.7z M183.5,147.7L183.5,147.7c-0.2,0-0.3-0.1-0.3-0.3v-11.6c0-0.2,0.1-0.3,0.3-0.3h0
			c0.2,0,0.3,0.1,0.3,0.3v11.6C183.8,147.6,183.7,147.7,183.5,147.7z M185.5,147.7L185.5,147.7c-0.2,0-0.3-0.1-0.3-0.3v-11.6
			c0-0.2,0.1-0.3,0.3-0.3h0c0.2,0,0.3,0.1,0.3,0.3v11.6C185.8,147.6,185.6,147.7,185.5,147.7z M187.4,147.7L187.4,147.7
			c-0.2,0-0.3-0.1-0.3-0.3v-11.6c0-0.2,0.1-0.3,0.3-0.3h0c0.2,0,0.3,0.1,0.3,0.3v11.6C187.7,147.6,187.6,147.7,187.4,147.7z
			 M189.4,147.7L189.4,147.7c-0.2,0-0.3-0.1-0.3-0.3v-11.6c0-0.2,0.1-0.3,0.3-0.3l0,0c0.2,0,0.3,0.1,0.3,0.3v11.6
			C189.7,147.6,189.6,147.7,189.4,147.7z M191.4,147.7c-0.2,0-0.3-0.1-0.3-0.3v-11.6c0-0.2,0.1-0.3,0.3-0.3c0.2,0,0.3,0.1,0.3,0.3
			v11.6C191.7,147.6,191.6,147.7,191.4,147.7z M190.8,150.3h-8.3h-8.3v-2h16.7V150.3z M144.7,103.3c-1.2,0-2.2-1-2.2-2.2
			c0-1.2,1-2.2,2.2-2.2c1.2,0,2.2,1,2.2,2.2C146.9,102.4,145.9,103.3,144.7,103.3z M116.4,154.7h7.8v-1.5h-7.8V154.7z M116.4,130.3
			c0-0.4,0.4-0.8,0.8-0.8h6.2c0.4,0,0.8,0.4,0.8,0.8v21.7h-7.8V130.3z M122.9,122.8v-11.3l-5,8v3.3H122.9z M120.3,126.5
			c1.7,0,3-1.4,3-3c-1,0-2,0-3,0c-1,0-2,0-3,0C117.3,125.1,118.6,126.5,120.3,126.5z M34.9,177.1l-0.8,0.4h0.8V177.1z M37.2,175.9
			l-1.2,0.6v1h1.2V175.9z M39.5,174.8l-1.2,0.6v2.2h1.2V174.8z M29.7,197.4v1.2h-5.8v-1.2H29.7z M17.3,197.4h5.5v1.2H17v-0.8
			L17.3,197.4z M36.6,166.7v1.2h-5.8v-1.2H36.6z M29.7,166.7v1.2h-5.8v-1.2H29.7z M22.8,166.7v1.2h-5.5l-0.3-0.4v-0.8H22.8z
			 M41.8,173.6l-1.2,0.6v3l1.2-2.4V173.6z M37.7,166.7v1.2h3l-0.7-1.2H37.7z M248.2,214.6l0.8-0.4h-0.7h-0.1V214.6z M245.9,215.7
			l1.2-0.6v-1h-1.2V215.7z M243.6,216.9l1.2-0.6v-2.2h-1.2V216.9z M241.4,218.1l1.2-0.6v-3.4h-1.2V218.1z M239.1,219.3l1.2-0.6v-4.6
			h-1.2V219.3z M236.8,220.5l1.2-0.6v-5.7h-1.2V220.5z M234.5,221.6l1.2-0.6v-6.9h-1.2V221.6z M232.2,222.8l1.2-0.6v-8.1h-1.2V222.8
			z M229.9,224l1.2-0.6v-9.3h-1.2V224z M253.4,194.3v-1.2h5.8v1.2H253.4z M265.8,194.3h-5.5v-1.2h5.8v0.8L265.8,194.3z M232.7,225
			v-1.2h5.8v1.2H232.7z M239.6,225v-1.2h5.8v1.2H239.6z M246.5,225v-1.2h5.8v1.2H246.5z M253.4,225v-1.2h5.8v1.2H253.4z M260.3,225
			v-1.2h5.5l0.3,0.4v0.8H260.3z M231.5,223.9v1.2H228l2.2-1.2H231.5z M227.6,225.2l1.2-0.6v-9.8l-0.7,0.4l-0.2,8.9l-0.3,0.2V225.2z
			 M225.3,226.4l1.2-0.6v-1l-1.2,0.5V226.4z M223.4,227.4l0.8-0.4v-1.1l-0.8,0.4V227.4z M252.3,194.3v-1.2h-4v1.2H252.3z
			 M78.7,230.8c16.1,16.1,38.3,26,62.8,26c24.5,0,46.7-9.9,62.8-26c5-5,9.4-10.6,13.1-16.7h-2.7c-3.5,5.5-7.5,10.5-12.1,15.1
			c-15.7,15.7-37.3,25.3-61.2,25.3c-23.9,0-45.5-9.7-61.2-25.3c-4.6-4.6-8.6-9.6-12.1-15.1h-2.7C69.3,220.2,73.7,225.8,78.7,230.8z
			 M74.8,234.8c17.1,17.1,40.7,27.7,66.8,27.7s49.7-10.6,66.8-27.7c6.1-6.1,11.4-13.1,15.7-20.7h-2.7c-4,7-9,13.4-14.6,19.1
			c-16.7,16.7-39.7,27-65.2,27s-48.5-10.3-65.2-27c-5.7-5.7-10.6-12.1-14.6-19.1h-2.7C63.4,221.7,68.6,228.7,74.8,234.8z
			 M30.8,197.4v1.2h3.2v-1.2H30.8z M90.1,160.9c0-1.5-0.2-3.2-0.4-4.6c-0.3-2.5-0.7-5-1-7.5l-0.1-0.5v-11.8l-5.9,3.8v7.9l-0.1,0.5
			c-0.4,2.5-0.7,5-1,7.5c-0.2,1.5-0.4,3.1-0.4,4.6l-0.1,16.6h1.6l0.1-16.6c0-1.6,0.6-6.3,1.4-11.9h0.1v-7.8l2.6-1.7v9.5h0.1
			c0.8,5.6,1.4,10.3,1.4,11.9l0.1,16.6h1.6L90.1,160.9z M108.4,154.1v-10.8c0,0,0,0,0-0.1v-1.6h0c-0.1-2.2-0.5-4.5-0.8-6.6
			c-0.3-2.1-0.8-4.2-1.3-6.3c-0.3-0.9-0.6-2.4-1.3-3.3v-0.9l0-0.1c-0.1-1.3-0.4-2-1-3.1c-0.3-0.7-1-1.1-1.8-1.1
			c-0.7,0-1.4,0.4-1.8,1.1c-0.6,1.1-0.9,1.8-1,3.1l0,0.1v0.9c-0.7,0.9-1.1,2.4-1.3,3.3c-0.6,2-1,4.2-1.3,6.3
			c-0.3,2.1-0.7,4.4-0.8,6.6h0v1.5c0,0.1,0,0.1,0,0.2l0,34.2h1.6v-25.1h9.3v25.1h1.6V154.1z M126.5,130.3c0-0.6-0.2-1.2-0.5-1.7
			c0-0.4-0.1-0.8-0.1-1.2c-0.1-1.4-0.2-2.8-0.3-4.2l-0.2-2.1h-0.3v-17.7l-9.6,15.4v2.3h-0.4l-0.2,2.1c-0.1,1.4-0.2,2.8-0.3,4.2
			c0,0.4-0.1,0.8-0.1,1.2c-0.3,0.5-0.5,1-0.5,1.7v24.6v22.6h1.6v-21.6v-1.2v-24.4c0-0.4,0.2-0.8,0.4-1l0.1-1.7
			c0.1-1.4,0.2-2.8,0.3-4.2l0-0.6h0.6v-3.5l6.3-10.1v13.6h0.4l0,0.6c0.1,1.4,0.2,2.8,0.3,4.2l0.1,1.7c0.3,0.3,0.4,0.6,0.4,1v24.4
			v1.2v21.6h1.6V130.3z M157.3,123.1v-19.3c0-6.9-5.6-12.5-12.5-12.5c-6.9,0-12.5,5.6-12.5,12.5v73.7h1.6v-73.7
			c0-6,4.9-10.9,10.9-10.9l0,0c6,0,10.9,4.9,10.9,10.9v5.3h-8.9v0.6h8.9v1.7h-3.6v0.6h3.6v1.7h-3.6v0.6h3.6v1.7h-3.6v0.6h3.6v1.7
			h-3.6v0.6h3.6v1.7h-5.7v0.6h5.7v1.7h-3.6v0.6h3.6v1.7h-3.6v0.6h3.6v1.7h-3.6v0.6h3.6v1.7h-3.6v0.6h3.6v1.7h-8.9v0.6h8.9v1.7h-3.6
			v0.6h3.6v1.7h-3.6v0.6h3.6v1.7h-3.6v0.6h3.6v1.7h-3.6v0.6h3.6v1.7h-5.7v0.6h5.7v1.7h-3.6v0.6h3.6v1.7h-3.6v0.6h3.6v1.7h-3.6v0.6
			h3.6v1.7h-3.6v0.6h3.6v1.7h-8.9v0.6h8.9v1.7h-3.6v0.6h3.6v1.7h-3.6v0.6h3.6v1.7h-3.6v0.6h3.6v1.7h-3.6v0.6h3.6v1.7h-5.7v0.6h5.7
			v1.7h-3.6v0.6h3.6v1.7h-3.6v0.6h3.6v1.7h-3.6v0.6h3.6v1.7h-3.6v0.5h5.2V123.1z M202,156.4c0-2-2.6-3.6-4-4.7l-1.5-1.1
			c-1.3-1-1.9-1.5-2.9-1.7c0.2-0.3,0.3-0.7,0.3-1.1v-12.2c0-1.2-1-2.3-2.3-2.3H189v-2h-1.9c-0.3-2.9-0.7-5.9-1-8.8
			c-0.2-1.4-1.1-2.1-2.4-2.1h-2.6c-1.4,0-2.3,0.7-2.4,2.1c-0.3,2.9-0.7,5.9-1,8.8h-1.9v2h-2.7c-1.2,0-2.3,1-2.3,2.3v12.2
			c0,0.4,0.1,0.8,0.3,1.1c-1,0.2-1.6,0.8-2.9,1.7l-1.5,1.1c-1.4,1.1-4,2.7-4,4.7v21.2h1.6v-21.2c0-1,1.9-2.3,3.4-3.4l1.5-1.1
			c1.7-1.3,1.7-1.6,3.7-1.6v-2c-0.3-0.1-0.5-0.3-0.5-0.6v-12.2c0-0.3,0.3-0.6,0.6-0.6h4.3v-2h1.7c0.4-3.4,0.8-6.8,1.1-10.3
			c0.1-0.7,0.4-0.7,0.8-0.7h1.3h1.3c0.4,0,0.7,0,0.8,0.7c0.4,3.4,0.8,6.8,1.1,10.3h1.7v2h4.3c0.3,0,0.6,0.3,0.6,0.6v12.2
			c0,0.3-0.2,0.6-0.5,0.6v2c2,0,2,0.3,3.7,1.6l1.5,1.1c1.5,1.1,3.4,2.4,3.4,3.4v21.2h1.6V156.4z M230.4,168c0-24.5-9.9-46.7-26-62.8
			c-16.1-16.1-38.3-26-62.8-26c-24.5,0-46.7,9.9-62.8,26c-16.1,16.1-26,38.3-26,62.8c0,3.2,0.2,6.4,0.5,9.5h2.3
			c-0.3-3.1-0.5-6.3-0.5-9.5c0-23.9,9.7-45.5,25.3-61.2c15.7-15.7,37.3-25.3,61.2-25.3c23.9,0,45.5,9.7,61.2,25.3
			c15.7,15.7,25.3,37.3,25.3,61.2c0,3.2-0.2,6.4-0.5,9.5h2.3C230.2,174.4,230.4,171.2,230.4,168z M236,168
			c0-26.1-10.6-49.7-27.7-66.8c-17.1-17.1-40.7-27.7-66.8-27.7s-49.7,10.6-66.8,27.7c-17.1,17.1-27.7,40.7-27.7,66.8
			c0,3.2,0.2,6.4,0.5,9.5h2.3c-0.3-3.1-0.5-6.3-0.5-9.5c0-25.4,10.3-48.5,27-65.2c16.7-16.7,39.7-27,65.2-27s48.5,10.3,65.2,27
			c16.7,16.7,27,39.7,27,65.2c0,3.2-0.2,6.4-0.5,9.5h2.3C235.8,174.4,236,171.2,236,168z M149.1,69.9l8.2-3.5l6.7,5.8l8.6-2.2
			l5.8,6.8l8.8-0.9l4.7,7.6l8.9,0.5l3.5,8.2l8.7,1.8l2.2,8.6l8.3,3.2l0.8,8.8l7.7,4.4l-0.5,8.9l7,5.5l-1.9,8.7l6,6.5l-3.2,8.3l5,7.4
			L240,172l2.6,5.6h5.6v13.3h20.5l-15.4,18.3l15.4,18.3h-45.4v-1.1l-3.5,1.6l-1.5,8.8l-8.5,2.5l-2.8,8.4l-8.8,1.2l-4.1,7.9l-8.9-0.2
			l-5.2,7.2l-8.8-1.5l-6.3,6.3l-8.4-2.9l-7.2,5.3l-7.9-4.1l-7.9,4.1l-7.2-5.3l-8.4,2.9l-6.3-6.3l-8.8,1.5l-5.2-7.2l-8.9,0.2
			l-4.1-7.9l-8.8-1.2l-2.8-8.4l-8.5-2.5l-1.5-8.8l-8-3.8l-0.2-8.9l-1.7-1.1H34.1v-13.3H14.3l15.4-18.3l-15.4-18.3h24.4l0-0.1l5-7.4
			l-3.2-8.3l6-6.5l-1.9-8.7l7-5.5l-0.5-8.9l7.7-4.4l0.8-8.8l8.3-3.2l2.2-8.6l8.7-1.8l3.5-8.2l8.9-0.5l4.7-7.6l8.8,0.9l5.8-6.8
			l8.6,2.2l6.7-5.8l8.2,3.5l7.5-4.7L149.1,69.9z"/>
		
			<rect x="30.6" y="164.3" transform="matrix(-1 -4.490198e-11 4.490198e-11 -1 96.809 365.1764)" clip-path="url(#SVGID_2_)" fill="#00568F" width="35.5" height="36.6"/>
		<g clip-path="url(#SVGID_2_)">
			
				<rect x="23.9" y="166.7" transform="matrix(-1 -4.450230e-11 4.450230e-11 -1 53.589 334.4901)" fill="#FFFFFF" width="5.8" height="1.2"/>
			
				<rect x="17" y="166.7" transform="matrix(-1 -4.481760e-11 4.481760e-11 -1 39.7574 334.4901)" fill="#FFFFFF" width="5.8" height="1.2"/>
			
				<rect x="30.8" y="166.7" transform="matrix(-1 -4.481760e-11 4.481760e-11 -1 67.4206 334.4901)" fill="#FFFFFF" width="5.8" height="1.2"/>
			
				<rect x="37.7" y="166.7" transform="matrix(-1 -4.481760e-11 4.481760e-11 -1 81.2523 334.4901)" fill="#FFFFFF" width="5.8" height="1.2"/>
			
				<rect x="44.7" y="166.7" transform="matrix(-1 -4.481760e-11 4.481760e-11 -1 95.0839 334.4901)" fill="#FFFFFF" width="5.8" height="1.2"/>
			
				<rect x="37.7" y="166.7" transform="matrix(-1 -4.481760e-11 4.481760e-11 -1 81.2523 334.4901)" fill="#FFFFFF" width="5.8" height="1.2"/>
			
				<rect x="51.6" y="166.7" transform="matrix(-1 -4.513335e-11 4.513335e-11 -1 108.9155 334.4901)" fill="#FFFFFF" width="5.8" height="1.2"/>
			
				<rect x="58.5" y="166.7" transform="matrix(-1 -4.513335e-11 4.513335e-11 -1 122.7471 334.4901)" fill="#FFFFFF" width="5.8" height="1.2"/>
		</g>
		<g clip-path="url(#SVGID_2_)">
			
				<rect x="23.9" y="197.4" transform="matrix(-1 -4.481760e-11 4.481760e-11 -1 53.589 395.864)" fill="#FFFFFF" width="5.8" height="1.2"/>
			
				<rect x="17" y="197.4" transform="matrix(-1 -4.481760e-11 4.481760e-11 -1 39.7574 395.864)" fill="#FFFFFF" width="5.8" height="1.2"/>
			
				<rect x="30.8" y="197.4" transform="matrix(-1 -4.481760e-11 4.481760e-11 -1 67.4206 395.864)" fill="#FFFFFF" width="5.8" height="1.2"/>
			
				<rect x="37.7" y="197.4" transform="matrix(-1 -4.450230e-11 4.450230e-11 -1 81.2523 395.864)" fill="#FFFFFF" width="5.8" height="1.2"/>
			
				<rect x="44.7" y="197.4" transform="matrix(-1 -4.481760e-11 4.481760e-11 -1 95.0839 395.864)" fill="#FFFFFF" width="5.8" height="1.2"/>
			
				<rect x="37.7" y="197.4" transform="matrix(-1 -4.450230e-11 4.450230e-11 -1 81.2523 395.864)" fill="#FFFFFF" width="5.8" height="1.2"/>
			
				<rect x="51.6" y="197.4" transform="matrix(-1 -4.513335e-11 4.513335e-11 -1 108.9155 395.864)" fill="#FFFFFF" width="5.8" height="1.2"/>
			
				<rect x="58.5" y="197.4" transform="matrix(-1 -4.513335e-11 4.513335e-11 -1 122.7471 395.864)" fill="#FFFFFF" width="5.8" height="1.2"/>
		</g>
	</g>
	<g id="gradient">
		<defs>
			<polygon id="SVGID_17_" points="34.9,187.6 76.2,187.6 76.2,207.5 			"/>
		</defs>
		<clipPath id="SVGID_3_">
			<use xlink:href="#SVGID_17_"  overflow="visible"/>
		</clipPath>
		
			<rect x="27.9" y="173.1" clip-path="url(#SVGID_3_)" fill-rule="evenodd" clip-rule="evenodd" fill="#FFFFFF" width="46.9" height="44.8"/>
		<g clip-path="url(#SVGID_3_)">
			<polygon fill-rule="evenodd" clip-rule="evenodd" fill="#00568F" points="54.3,179.9 53.2,179.9 53.2,201.8 54.3,202.4 			"/>
			<polygon fill-rule="evenodd" clip-rule="evenodd" fill="#00568F" points="56.6,179.9 55.5,179.9 55.5,203 56.6,203.6 			"/>
			<polygon fill-rule="evenodd" clip-rule="evenodd" fill="#00568F" points="58.9,179.9 57.7,179.9 57.7,204.2 58.9,204.8 			"/>
			<polygon fill-rule="evenodd" clip-rule="evenodd" fill="#00568F" points="61.2,179.9 60,179.9 60,205.3 61.2,205.9 			"/>
			<polygon fill-rule="evenodd" clip-rule="evenodd" fill="#00568F" points="63.5,179.9 62.3,179.9 62.3,206.5 63.5,207.1 			"/>
			<polygon fill-rule="evenodd" clip-rule="evenodd" fill="#00568F" points="65.8,179.9 64.6,179.9 64.6,207.7 65.8,208.3 			"/>
			<polygon fill-rule="evenodd" clip-rule="evenodd" fill="#00568F" points="68,179.9 66.9,179.9 66.9,208.9 68,209.5 			"/>
			<polygon fill-rule="evenodd" clip-rule="evenodd" fill="#00568F" points="36,179.9 34.9,179.9 34.9,200.6 36,201.2 			"/>
			<polygon fill-rule="evenodd" clip-rule="evenodd" fill="#00568F" points="38.3,179.9 37.2,179.9 37.2,201.8 38.3,202.4 			"/>
			<polygon fill-rule="evenodd" clip-rule="evenodd" fill="#00568F" points="40.6,179.9 39.4,179.9 39.4,203 40.6,203.6 			"/>
			<polygon fill-rule="evenodd" clip-rule="evenodd" fill="#00568F" points="42.9,179.9 41.7,179.9 41.7,204.2 42.9,204.8 			"/>
			<polygon fill-rule="evenodd" clip-rule="evenodd" fill="#00568F" points="45.2,179.9 44,179.9 44,205.3 45.2,205.9 			"/>
			<polygon fill-rule="evenodd" clip-rule="evenodd" fill="#00568F" points="47.5,179.9 46.3,179.9 46.3,206.5 47.5,207.1 			"/>
			<polygon fill-rule="evenodd" clip-rule="evenodd" fill="#00568F" points="49.7,179.9 48.6,179.9 48.6,207.7 49.7,208.3 			"/>
			<polygon fill-rule="evenodd" clip-rule="evenodd" fill="#00568F" points="52,179.9 50.9,179.9 50.9,208.9 52,209.5 			"/>
		</g>
	</g>
	<g id="gradient_1_">
		<defs>
			<polygon id="SVGID_19_" points="249,151.1 207.7,151.1 207.7,128.4 			"/>
		</defs>
		<clipPath id="SVGID_4_">
			<use xlink:href="#SVGID_19_"  overflow="visible"/>
		</clipPath>
		
			<rect x="206.7" y="124.6" clip-path="url(#SVGID_4_)" fill-rule="evenodd" clip-rule="evenodd" fill="#FFFFFF" width="74.9" height="38.6"/>
		<g clip-path="url(#SVGID_4_)">
			<polygon fill-rule="evenodd" clip-rule="evenodd" fill="#00568F" points="229.6,158.8 230.7,158.8 230.7,136.9 229.6,136.3 			
				"/>
			<polygon fill-rule="evenodd" clip-rule="evenodd" fill="#00568F" points="227.3,158.8 228.5,158.8 228.5,135.7 227.3,135.1 			
				"/>
			<polygon fill-rule="evenodd" clip-rule="evenodd" fill="#00568F" points="225,158.8 226.2,158.8 226.2,134.5 225,133.9 			"/>
			<polygon fill-rule="evenodd" clip-rule="evenodd" fill="#00568F" points="222.7,158.8 223.9,158.8 223.9,133.4 222.7,132.8 			
				"/>
			<polygon fill-rule="evenodd" clip-rule="evenodd" fill="#00568F" points="220.4,158.8 221.6,158.8 221.6,132.2 220.4,131.6 			
				"/>
			<polygon fill-rule="evenodd" clip-rule="evenodd" fill="#00568F" points="218.2,158.8 219.3,158.8 219.3,131 218.2,130.4 			"/>
			<polygon fill-rule="evenodd" clip-rule="evenodd" fill="#00568F" points="215.9,158.8 217,158.8 217,129.8 215.9,129.2 			"/>
			<polygon fill-rule="evenodd" clip-rule="evenodd" fill="#00568F" points="247.9,158.8 249,158.8 249,138.1 247.9,137.5 			"/>
			<polygon fill-rule="evenodd" clip-rule="evenodd" fill="#00568F" points="245.6,158.8 246.8,158.8 246.8,136.9 245.6,136.3 			
				"/>
			<polygon fill-rule="evenodd" clip-rule="evenodd" fill="#00568F" points="243.3,158.8 244.5,158.8 244.5,135.7 243.3,135.1 			
				"/>
			<polygon fill-rule="evenodd" clip-rule="evenodd" fill="#00568F" points="241,158.8 242.2,158.8 242.2,134.5 241,133.9 			"/>
			<polygon fill-rule="evenodd" clip-rule="evenodd" fill="#00568F" points="238.7,158.8 239.9,158.8 239.9,133.4 238.7,132.8 			
				"/>
			<polygon fill-rule="evenodd" clip-rule="evenodd" fill="#00568F" points="236.5,158.8 237.6,158.8 237.6,132.2 236.5,131.6 			
				"/>
			<polygon fill-rule="evenodd" clip-rule="evenodd" fill="#00568F" points="234.2,158.8 235.3,158.8 235.3,131 234.2,130.4 			"/>
			<polygon fill-rule="evenodd" clip-rule="evenodd" fill="#00568F" points="231.9,158.8 233,158.8 233,129.8 231.9,129.2 			"/>
		</g>
	</g>
	<g id="blue_star_1_">
		<polygon fill-rule="evenodd" clip-rule="evenodd" fill="#00568F" points="240.1,145.8 244.5,138.1 239.6,130.7 242.6,122.5 
			236.6,116 238.4,107.3 231.5,101.8 232,92.9 224.3,88.5 223.4,79.7 215.4,76.4 213.3,67.8 204.6,65.9 201.2,57.7 192.3,57.2 
			187.7,49.6 178.8,50.4 173.1,43.7 164.4,45.9 157.7,40 149.5,43.5 142,38.8 134.5,43.4 126.3,39.9 119.5,45.7 110.9,43.5 
			105.1,50.2 96.3,49.3 91.5,56.9 82.5,57.9 79.1,65.5 70.4,67.8 68.1,76 60,79.6 58.9,88 51.4,92.7 51.6,101.3 44.7,107.3 
			46.5,116 40.5,122.5 43.7,130.8 38.7,138.1 43.1,145.8 39.4,153.1 39.4,153.2 44.9,160.2 42.3,168.7 48.8,174.7 47.6,183.5 
			54.9,188.5 55.1,197.4 63.2,201.7 64.8,210.6 73.3,213.1 76.1,221.5 84.9,222.7 88.9,230.6 97.8,230.4 103.1,237.5 111.8,236 
			118.1,242.3 126.5,239.4 133.7,244.7 141.6,240.6 149.4,244.7 156.6,239.4 165,242.3 171.3,236 180,237.5 185.3,230.4 
			194.2,230.6 198.2,222.7 207.1,221.5 209.9,213.1 218.4,210.6 219.9,201.8 228,198 228.1,189.1 235.5,184.1 234.3,175.3 
			240.8,169.3 238.3,160.8 243.9,153.9 		"/>
	</g>
	<g id="glue">
		<path fill-rule="evenodd" clip-rule="evenodd" fill="#FFFDFC" d="M109.2,120.9v-11.6c0-0.2,0.1-0.3,0.3-0.3c0.2,0,0.3,0.1,0.3,0.3
			v11.6c0,0.2-0.1,0.3-0.3,0.3C109.3,121.2,109.2,121.1,109.2,120.9z"/>
		<path fill-rule="evenodd" clip-rule="evenodd" fill="#FFFDFC" d="M107.2,120.9v-11.6c0-0.2,0.1-0.3,0.3-0.3h0
			c0.2,0,0.3,0.1,0.3,0.3v11.6c0,0.2-0.1,0.3-0.3,0.3h0C107.4,121.2,107.2,121.1,107.2,120.9z"/>
		<path fill-rule="evenodd" clip-rule="evenodd" fill="#FFFDFC" d="M105.2,120.9v-11.6c0-0.2,0.1-0.3,0.3-0.3l0,0
			c0.2,0,0.3,0.1,0.3,0.3v11.6c0,0.2-0.1,0.3-0.3,0.3l0,0C105.4,121.2,105.2,121.1,105.2,120.9z"/>
		<path fill-rule="evenodd" clip-rule="evenodd" fill="#FFFDFC" d="M103.3,120.9v-11.6c0-0.2,0.1-0.3,0.3-0.3l0,0
			c0.2,0,0.3,0.1,0.3,0.3v11.6c0,0.2-0.1,0.3-0.3,0.3l0,0C103.4,121.2,103.3,121.1,103.3,120.9z"/>
		<path fill-rule="evenodd" clip-rule="evenodd" fill="#FFFDFC" d="M101.3,120.9v-11.6c0-0.2,0.1-0.3,0.3-0.3l0,0
			c0.2,0,0.3,0.1,0.3,0.3v11.6c0,0.2-0.1,0.3-0.3,0.3l0,0C101.4,121.2,101.3,121.1,101.3,120.9z"/>
		<path fill-rule="evenodd" clip-rule="evenodd" fill="#FFFDFC" d="M99.3,120.9v-11.6c0-0.2,0.1-0.3,0.3-0.3l0,0
			c0.2,0,0.3,0.1,0.3,0.3v11.6c0,0.2-0.1,0.3-0.3,0.3l0,0C99.4,121.2,99.3,121.1,99.3,120.9z"/>
		<path fill-rule="evenodd" clip-rule="evenodd" fill="#FFFDFC" d="M97.3,120.9v-11.6c0-0.2,0.1-0.3,0.3-0.3l0,0
			c0.2,0,0.3,0.1,0.3,0.3v11.6c0,0.2-0.1,0.3-0.3,0.3l0,0C97.5,121.2,97.3,121.1,97.3,120.9z"/>
		<path fill-rule="evenodd" clip-rule="evenodd" fill="#FFFDFC" d="M95.4,120.9v-11.6c0-0.2,0.1-0.3,0.3-0.3h0
			c0.2,0,0.3,0.1,0.3,0.3v11.6c0,0.2-0.1,0.3-0.3,0.3h0C95.5,121.2,95.4,121.1,95.4,120.9z"/>
		<path fill-rule="evenodd" clip-rule="evenodd" fill="#FFFDFC" d="M93.4,120.9v-11.6c0-0.2,0.1-0.3,0.3-0.3h0
			c0.2,0,0.3,0.1,0.3,0.3v11.6c0,0.2-0.1,0.3-0.3,0.3h0C93.5,121.2,93.4,121.1,93.4,120.9z"/>
		<path fill-rule="evenodd" clip-rule="evenodd" fill="#FFFDFC" d="M91.4,120.9v-11.6c0-0.2,0.1-0.3,0.3-0.3c0.2,0,0.3,0.1,0.3,0.3
			v11.6c0,0.2-0.1,0.3-0.3,0.3C91.5,121.2,91.4,121.1,91.4,120.9z"/>
		<polygon fill-rule="evenodd" clip-rule="evenodd" fill="#FFFDFC" points="92.3,121.8 108.9,121.8 108.9,123.8 100.6,123.8 
			92.3,123.8 		"/>
		<path fill-rule="evenodd" clip-rule="evenodd" fill="#FFFDFC" d="M81.1,151h1.6v-21.2c0-1,1.9-2.3,3.4-3.4l1.5-1.1
			c1.7-1.3,1.7-1.6,3.7-1.6v-2c-0.3-0.1-0.5-0.3-0.5-0.6V109c0-0.3,0.3-0.6,0.6-0.6h4.3v-2h1.7c0.4-3.4,0.8-6.8,1.1-10.3
			c0.1-0.7,0.4-0.7,0.8-0.7h1.3h1.3c0.4,0,0.7,0,0.8,0.7c0.4,3.4,0.8,6.8,1.1,10.3h1.7v2h4.3c0.3,0,0.6,0.3,0.6,0.6v12.2
			c0,0.3-0.2,0.6-0.5,0.6v2c2,0,2,0.3,3.7,1.6l1.5,1.1c1.5,1.1,3.4,2.4,3.4,3.4V151h1.6v-21.2c0-2-2.6-3.6-4-4.7l-1.5-1.1
			c-1.3-1-1.9-1.5-2.9-1.7c0.2-0.3,0.3-0.7,0.3-1.1V109c0-1.2-1-2.3-2.3-2.3h-2.7v-2h-1.9c-0.3-2.9-0.7-5.9-1-8.8
			c-0.2-1.4-1.1-2.1-2.4-2.1h-2.6c-1.4,0-2.3,0.7-2.4,2.1c-0.3,2.9-0.7,5.9-1,8.8h-1.9v2h-2.7c-1.3,0-2.3,1-2.3,2.3v12.2
			c0,0.4,0.1,0.8,0.3,1.1c-1,0.2-1.6,0.8-2.9,1.7l-1.5,1.1c-1.4,1.1-4,2.7-4,4.7V151z"/>
	</g>
	<circle fill-rule="evenodd" clip-rule="evenodd" fill="#FFFDFC" cx="138.4" cy="74.7" r="2.2"/>
	<path fill-rule="evenodd" clip-rule="evenodd" fill="#FFFDFC" d="M125.9,151h5.2v-0.5h-3.6v-1.7h3.6v-0.6h-3.6v-1.7h3.6v-0.6h-3.6
		v-1.7h3.6v-0.6h-3.6v-1.7h5.7v-0.6h-5.7v-1.7h3.6v-0.6h-3.6v-1.7h3.6v-0.6h-3.6v-1.7h3.6v-0.6h-3.6v-1.7h3.6v-0.6h-3.6v-1.7h8.9
		v-0.6h-8.9v-1.7h3.6v-0.6h-3.6v-1.7h3.6v-0.6h-3.6v-1.7h3.6v-0.6h-3.6v-1.7h3.6v-0.6h-3.6v-1.7h5.7v-0.6h-5.7v-1.7h3.6v-0.6h-3.6
		v-1.7h3.6v-0.6h-3.6v-1.7h3.6v-0.6h-3.6V109h3.6v-0.6h-3.6v-1.7h8.9V106h-8.9v-1.7h3.6v-0.6h-3.6V102h3.6v-0.6h-3.6v-1.7h3.6V99
		h-3.6v-1.7h3.6v-0.6h-3.6V95h5.7v-0.6h-5.7v-1.7h3.6V92h-3.6v-1.7h3.6v-0.6h-3.6v-1.7h3.6v-0.6h-3.6v-1.7h3.6v-0.6h-3.6v-1.7h8.9
		v-0.6h-8.9v-5.3c0-6,4.9-10.9,10.9-10.9l0,0c6,0,10.9,4.9,10.9,10.9V151h1.6V77.3c0-6.9-5.6-12.5-12.5-12.5
		c-6.9,0-12.5,5.6-12.5,12.5v19.3V151z"/>
	<g id="knife">
		<rect x="158.9" y="126.8" fill-rule="evenodd" clip-rule="evenodd" fill="#FFFDFC" width="7.8" height="1.5"/>
		<path fill-rule="evenodd" clip-rule="evenodd" fill="#FFFDFC" d="M166.7,125.6h-7.8v-21.7c0-0.4,0.4-0.8,0.8-0.8h6.2
			c0.4,0,0.8,0.4,0.8,0.8V125.6z"/>
		<polygon fill-rule="evenodd" clip-rule="evenodd" fill="#FFFDFC" points="165.2,96.3 165.2,93 160.2,85 160.2,96.3 		"/>
		<path fill-rule="evenodd" clip-rule="evenodd" fill="#FFFDFC" d="M165.8,96.9c-1,0-2,0-3,0s-2,0-3,0c0,1.7,1.4,3,3,3
			C164.5,100,165.8,98.6,165.8,96.9z"/>
		<path fill-rule="evenodd" clip-rule="evenodd" fill="#FFFDFC" d="M156.6,151h1.6v-21.6v-1.2v-24.4c0-0.4,0.2-0.8,0.4-1l0.1-1.7
			c0.1-1.4,0.2-2.8,0.3-4.2l0-0.6h0.4V82.7l6.3,10.1v3.5h0.6l0,0.6c0.1,1.4,0.2,2.8,0.3,4.2l0.1,1.7c0.3,0.3,0.4,0.6,0.4,1v24.4v1.2
			V151h1.6v-22.6v-24.6c0-0.6-0.2-1.2-0.5-1.7c0-0.4-0.1-0.8-0.1-1.2c-0.1-1.4-0.2-2.8-0.3-4.2l-0.2-2.1h-0.4v-2.3L158,77v17.7h-0.3
			l-0.2,2.1c-0.1,1.4-0.2,2.8-0.3,4.2c0,0.4-0.1,0.8-0.1,1.2c-0.3,0.5-0.5,1-0.5,1.7V151z"/>
	</g>
	<g id="pen">
		<path fill="#FFFDFC" d="M180,100.6c-0.9,1.2-2,7.2-2.2,8.4c-0.4,2.2-0.8,5.4-0.8,7.7h8c-0.1-2.3-0.5-5.5-0.8-7.7
			c-0.2-1.2-1.3-7.3-2.2-8.4H180z"/>
		<path fill="#FFFDFC" d="M186.4,108.8c-0.3-2.1-1-4.3-1.6-6.4c-0.3-0.9-0.4-2.5-1.6-3.4v-0.9l0.2-0.1c-0.1-1.3-0.3-2-0.9-3.1
			c-0.3-0.7-0.9-1.1-1.7-1.1c-0.7,0-1.4,0.4-1.7,1.1c-0.6,1.1-0.7,1.8-0.8,3.1l0.2,0.1V99c-1.2,0.9-1.3,2.4-1.6,3.3
			c-0.6,2-1.1,4.4-1.4,6.5c-0.3,2.1-0.8,4.5-0.9,6.8h0.4v1.2c0,0,0,0,0,0.1v10.8v23.7h1.2v-25.4h9.2v25.4h1.2v-34.5
			c0-0.1,0-0.1,0-0.2v-1.1h0.5C187.1,113.3,186.7,110.9,186.4,108.8z M180.8,95.6c0.1,0,0.1,0.1,0.1,0.2v0l-0.2,0
			C180.8,95.7,180.7,95.6,180.8,95.6z M185.5,124.8h-9.2v-1.2h9.2V124.8z M185.5,122.5h-9.2v-1.2h9.2V122.5z M185.5,120.2h-9.2v-3.4
			c0-4.4,2-16.2,3.5-17.4h0v-1.2c0-1.2,0-1.8,1.2-2.4c1.2,0.6,1.2,1.3,1.2,2.4v1.2h0c1.4,1.2,3.4,13,3.4,17.4V120.2z"/>
		<rect x="174.7" y="115.6" fill="#FFFDFC" width="1" height="35.7"/>
		<rect x="186.2" y="115.6" fill="#FFFDFC" width="1" height="35.7"/>
	</g>
	<path id="scissor" fill-rule="evenodd" clip-rule="evenodd" fill="#FFFDFC" d="M142.5,213.3l3.3-3.3c0.7-0.7,1.7-1.2,2.8-1.2
		c0,0,0.1,0.1,0.1,0.1h0c0.8,0,1.5-0.3,2.1-0.9c1.1-1.1,1.1-3,0-4.1c-1.1-1.1-2.8-1.1-3.9,0c-0.6,0.6-0.7,1.3-0.7,2.1v0
		c0,0-0.2,0.1-0.2,0.1c0,1.1-0.6,2.2-1.1,3c-1.1,1.2-2.3,2.3-3.5,3.3c-1.2-1-2.4-2.1-3.4-3.3c-0.6-0.8-1.1-1.9-1-3c0,0,0-0.1,0-0.1
		v0c0-0.8-0.3-1.5-0.9-2.1c-1.1-1.1-2.9-1.1-4,0c-1.1,1.1-1.1,2.9,0,4c0.6,0.6,1.3,0.9,2.1,0.8h0c0,0,0.1,0,0.1,0
		c1.1,0,2.1,0.6,2.8,1.3l3.3,3.3c-5.1,4.2-10.2,7.3-9,11l10-10l10,10C152.7,220.6,147.6,217.6,142.5,213.3z M147.6,204.7
		c0.7-0.7,1.8-0.7,2.5,0c0.7,0.7,0.7,1.8,0,2.5c-0.7,0.7-1.8,0.7-2.5,0C146.9,206.5,146.9,205.3,147.6,204.7z M135.5,207.1
		c-0.7,0.7-1.8,0.7-2.5,0c-0.7-0.7-0.7-1.8,0-2.5c0.7-0.7,1.8-0.7,2.5,0C136.2,205.3,136.2,206.5,135.5,207.1z"/>
	<g>
		<path fill="#FFFFFF" d="M141.5,54.8c48,0,87.1,39.1,87.1,87.1S189.5,229,141.5,229s-87.1-39.1-87.1-87.1S93.4,54.8,141.5,54.8
			 M141.5,52.8c-49.2,0-89.1,39.9-89.1,89.1S92.3,231,141.5,231s89.1-39.9,89.1-89.1S190.7,52.8,141.5,52.8L141.5,52.8z"/>
	</g>
	<g>
		<path fill="#FFFFFF" d="M141.5,49.5c51,0,92.4,41.5,92.4,92.4s-41.5,92.4-92.4,92.4S49,192.9,49,141.9S90.5,49.5,141.5,49.5
			 M141.5,47.5C89.3,47.5,47,89.7,47,141.9s42.3,94.4,94.4,94.4s94.4-42.3,94.4-94.4S193.6,47.5,141.5,47.5L141.5,47.5z"/>
	</g>
	<g id="collective">
		<circle fill-rule="evenodd" clip-rule="evenodd" fill="#FFFDFC" cx="201.8" cy="193.1" r="1.6"/>
		<polygon fill-rule="evenodd" clip-rule="evenodd" fill="#FFFDFC" points="191.9,196.8 191.9,195.4 187.9,195.4 187.9,193.8 
			191.4,193.8 191.4,192.4 187.9,192.4 187.9,190.9 191.8,190.9 191.8,189.4 186.2,189.4 186.2,196.8 		"/>
		<polygon fill-rule="evenodd" clip-rule="evenodd" fill="#FFFDFC" points="181.6,189.4 179.8,189.4 177.9,194.6 175.9,189.4 
			174.1,189.4 177.1,196.9 178.6,196.9 		"/>
		<rect x="167.8" y="189.4" fill-rule="evenodd" clip-rule="evenodd" fill="#FFFDFC" width="1.6" height="7.4"/>
		<polygon fill-rule="evenodd" clip-rule="evenodd" fill="#FFFDFC" points="162.9,190.9 162.9,189.4 156.8,189.4 156.8,190.9 
			159,190.9 159,196.8 160.7,196.8 160.7,190.9 		"/>
		<path fill-rule="evenodd" clip-rule="evenodd" fill="#FFFDFC" d="M152.5,195.6l-1-1.1c-0.6,0.5-1.1,0.9-2,0.9
			c-1.3,0-2.2-1.1-2.2-2.3v0c0-1.3,0.9-2.3,2.2-2.3c0.7,0,1.3,0.3,1.9,0.8l1-1.2c-0.7-0.7-1.5-1.1-2.9-1.1c-2.3,0-3.9,1.7-3.9,3.8v0
			c0,2.1,1.6,3.8,3.8,3.8C150.9,197,151.7,196.5,152.5,195.6z"/>
		<polygon fill-rule="evenodd" clip-rule="evenodd" fill="#FFFDFC" points="141,196.8 141,195.4 137,195.4 137,193.8 140.5,193.8 
			140.5,192.4 137,192.4 137,190.9 141,190.9 141,189.4 135.4,189.4 135.4,196.8 		"/>
		<polygon fill-rule="evenodd" clip-rule="evenodd" fill="#FFFDFC" points="130.6,196.8 130.6,195.4 126.9,195.4 126.9,189.4 
			125.3,189.4 125.3,196.8 		"/>
		<polygon fill-rule="evenodd" clip-rule="evenodd" fill="#FFFDFC" points="120.5,196.8 120.5,195.4 116.8,195.4 116.8,189.4 
			115.2,189.4 115.2,196.8 		"/>
		<path fill-rule="evenodd" clip-rule="evenodd" fill="#FFFFFF" d="M110.2,193.1L110.2,193.1c0-2.1-1.6-3.8-3.9-3.8
			c-2.3,0-4,1.7-4,3.8v0c0,2.1,1.6,3.8,3.9,3.8C108.6,197,110.2,195.2,110.2,193.1z"/>
		<path fill-rule="evenodd" clip-rule="evenodd" fill="#00568F" d="M108.5,193.1c0,1.3-0.9,2.3-2.2,2.3c-1.3,0-2.3-1.1-2.3-2.3v0
			c0-1.3,0.9-2.3,2.2-2.3C107.6,190.8,108.5,191.9,108.5,193.1L108.5,193.1z"/>
		<path fill-rule="evenodd" clip-rule="evenodd" fill="#FFFDFC" d="M98.1,195.6l-1-1.1c-0.6,0.5-1.1,0.9-2,0.9
			c-1.3,0-2.2-1.1-2.2-2.3v0c0-1.3,0.9-2.3,2.2-2.3c0.7,0,1.3,0.3,1.9,0.8l1-1.2c-0.7-0.7-1.5-1.1-2.9-1.1c-2.3,0-3.9,1.7-3.9,3.8v0
			c0,2.1,1.6,3.8,3.8,3.8C96.5,197,97.3,196.5,98.1,195.6z"/>
		<circle fill-rule="evenodd" clip-rule="evenodd" fill="#FFFDFC" cx="81.3" cy="193.1" r="1.6"/>
	</g>
	<g id="Urban_paper">
		<defs>
			<rect id="SVGID_21_" x="34.9" y="151.1" width="214.2" height="36.6"/>
		</defs>
		<defs>
			<rect id="SVGID_22_" x="34.9" y="151.1" width="214.2" height="36.6"/>
		</defs>
		<use xlink:href="#SVGID_21_"  overflow="visible" fill="#FFFFFF"/>
		<clipPath id="SVGID_5_">
			<use xlink:href="#SVGID_21_"  overflow="visible"/>
		</clipPath>
		<clipPath id="SVGID_6_" clip-path="url(#SVGID_5_)">
			<use xlink:href="#SVGID_22_"  overflow="visible"/>
		</clipPath>
		<path id="_x31_-1_1_" clip-path="url(#SVGID_6_)" fill-rule="evenodd" clip-rule="evenodd" fill="#00568F" d="M150.2,204.7
			c-0.7-0.7-1.8-0.7-2.5,0c-0.7,0.7-0.7,1.8,0,2.5c0.7,0.7,1.8,0.7,2.5,0C150.9,206.5,150.9,205.4,150.2,204.7 M133.1,204.7
			c0.7-0.7,1.8-0.7,2.5,0c0.7,0.7,0.7,1.8,0,2.5c-0.7,0.7-1.8,0.7-2.5,0C132.4,206.5,132.4,205.4,133.1,204.7z M151,203.9
			c-1.1-1.1-2.9-1.1-4,0c-0.6,0.6-0.9,1.3-0.8,2.1l0,0c0,0,0,0.1,0,0.1c0,1.1-0.5,2.2-1,3c-1.1,1.2-2.2,2.3-3.4,3.3
			c-1.2-1-2.4-2.1-3.4-3.3c-0.6-0.8-1.1-1.9-1-3c0,0,0-0.1,0-0.1l0,0c0-0.8-0.3-1.5-0.8-2.1c-1.1-1.1-2.9-1.1-4,0
			c-1.1,1.1-1.1,2.9,0,4c0.6,0.6,1.3,0.9,2.1,0.8h0c0,0,0.1,0,0.1,0c1.1,0,2.1,0.6,2.8,1.3l3.3,3.3c-5.1,4.2-10.2,7.3-9,11l10-10
			l10,10c1.1-3.7-3.9-6.8-9-11l3.3-3.3c0.7-0.7,1.7-1.3,2.8-1.3c0,0,0.1,0,0.1,0h0c0.8,0,1.5-0.3,2.1-0.8
			C152.1,206.8,152.1,205,151,203.9z M48.1,184.1v1.2h-5.8v-1.2H48.1z M55,184.1v1.2h-5.8v-1.2H55z M61.9,184.1v1.2h-5.8v-1.2H61.9z
			 M68.8,184.1v1.2H63v-1.2H68.8z M75.7,184.1v1.2H70v-1.2H75.7z M82.6,184.1v1.2h-5.8v-1.2H82.6z M89.5,184.1v1.2h-5.8v-1.2H89.5z
			 M96.5,184.1v1.2h-5.8v-1.2H96.5z M103.4,184.1v1.2h-5.8v-1.2H103.4z M110.3,184.1v1.2h-5.8v-1.2H110.3z M117.2,184.1v1.2h-5.8
			v-1.2H117.2z M124.1,184.1v1.2h-5.8v-1.2H124.1z M131,184.1v1.2h-5.8v-1.2H131z M138,184.1v1.2h-5.8v-1.2H138z M144.9,184.1v1.2
			h-5.8v-1.2H144.9z M151.8,184.1v1.2H146v-1.2H151.8z M158.7,184.1v1.2h-5.8v-1.2H158.7z M165.6,184.1v1.2h-5.8v-1.2H165.6z
			 M172.5,184.1v1.2h-5.8v-1.2H172.5z M179.5,184.1v1.2h-5.8v-1.2H179.5z M186.4,184.1v1.2h-5.8v-1.2H186.4z M193.3,184.1v1.2h-5.8
			v-1.2H193.3z M200.2,184.1v1.2h-5.8v-1.2H200.2z M207.1,184.1v1.2h-5.8v-1.2H207.1z M214,184.1v1.2h-5.8v-1.2H214z M220.9,184.1
			v1.2h-5.8v-1.2H220.9z M227.9,184.1v1.2h-5.8v-1.2H227.9z M234.8,184.1v1.2H229v-1.2H234.8z M241.7,184.1v1.2h-5.8v-1.2H241.7z
			 M248.6,184.1v1.2h-5.8v-1.2H248.6z M41.1,184.1v1.2h-5.8v-1.2H41.1z M48.1,153.4v1.2h-5.8v-1.2H48.1z M55,153.4v1.2h-5.8v-1.2H55
			z M61.9,153.4v1.2h-5.8v-1.2H61.9z M68.8,153.4v1.2H63v-1.2H68.8z M75.7,153.4v1.2H70v-1.2H75.7z M82.6,153.4v1.2h-5.8v-1.2H82.6z
			 M89.5,153.4v1.2h-5.8v-1.2H89.5z M96.5,153.4v1.2h-5.8v-1.2H96.5z M103.4,153.4v1.2h-5.8v-1.2H103.4z M110.3,153.4v1.2h-5.8v-1.2
			H110.3z M117.2,153.4v1.2h-5.8v-1.2H117.2z M124.1,153.4v1.2h-5.8v-1.2H124.1z M131,153.4v1.2h-5.8v-1.2H131z M138,153.4v1.2h-5.8
			v-1.2H138z M144.9,153.4v1.2h-5.8v-1.2H144.9z M151.8,153.4v1.2H146v-1.2H151.8z M158.7,153.4v1.2h-5.8v-1.2H158.7z M165.6,153.4
			v1.2h-5.8v-1.2H165.6z M172.5,153.4v1.2h-5.8v-1.2H172.5z M179.5,153.4v1.2h-5.8v-1.2H179.5z M186.4,153.4v1.2h-5.8v-1.2H186.4z
			 M193.3,153.4v1.2h-5.8v-1.2H193.3z M200.2,153.4v1.2h-5.8v-1.2H200.2z M207.1,153.4v1.2h-5.8v-1.2H207.1z M214,153.4v1.2h-5.8
			v-1.2H214z M220.9,153.4v1.2h-5.8v-1.2H220.9z M227.9,153.4v1.2h-5.8v-1.2H227.9z M234.8,153.4v1.2H229v-1.2H234.8z M241.7,153.4
			v1.2h-5.8v-1.2H241.7z M248.6,153.4v1.2h-5.8v-1.2H248.6z M41.1,153.4v1.2h-5.8v-1.2H41.1z M229.9,168.1h3.5
			c0.7,0,1.3-0.2,1.7-0.7c0.5-0.5,0.7-1.1,0.7-1.7c0-0.7-0.2-1.3-0.7-1.7c-0.5-0.5-1-0.7-1.7-0.7h-3.5V168.1z M241.9,175.5v4.1h-8.1
			v-4.1h1.7l-1.9-3.2h-3.7v3.2h2v4.1h-8.1v-4.1h2v-12.2h-2v-4.1h9.6c0.9,0,1.7,0.2,2.5,0.6c0.8,0.3,1.5,0.8,2,1.4
			c0.6,0.6,1,1.3,1.4,2c0.3,0.8,0.5,1.6,0.5,2.5c0,1-0.2,2-0.7,2.9c-0.4,0.9-1,1.6-1.8,2.2l2.7,4.7H241.9z M222,159.2v6.1h-4.1v-2
			h-4.1v4.1h4.1v4.1h-4.1v4.1h4.1v-2h4.1v6.1h-14.2v-4.1h2v-12.2h-2v-4.1H222z M199.7,168.1c0.7,0,1.3-0.2,1.7-0.7
			c0.5-0.5,0.7-1.1,0.7-1.7c0-0.7-0.2-1.3-0.7-1.7c-0.5-0.5-1-0.7-1.7-0.7h-3.5v4.9H199.7z M199.7,159.2c0.9,0,1.7,0.2,2.5,0.5
			c0.8,0.3,1.5,0.8,2.1,1.4c0.6,0.6,1.1,1.3,1.4,2.1c0.3,0.8,0.5,1.6,0.5,2.5c0,0.9-0.2,1.8-0.5,2.5c-0.3,0.8-0.8,1.5-1.4,2.1
			c-0.6,0.6-1.3,1.1-2.1,1.4c-0.8,0.3-1.6,0.5-2.5,0.5h-3.5v3.2h2v4.1h-8.1v-4.1h2v-12.2h-2v-4.1H199.7z M180.3,169.4l-1.8-6.1h-0.2
			l-1.8,6.1H180.3z M188.3,175.5v4.1h-8.1v-4.1h1.9l-0.6-2h-6.3l-0.6,2h1.9v4.1h-8.1v-4.1h2l4.9-16.2h6.2l4.9,16.2H188.3z
			 M163.8,168.1c0.7,0,1.3-0.2,1.7-0.7c0.5-0.5,0.7-1.1,0.7-1.7c0-0.7-0.2-1.3-0.7-1.7c-0.5-0.5-1.1-0.7-1.7-0.7h-3.5v4.9H163.8z
			 M163.8,159.2c0.9,0,1.7,0.2,2.5,0.5c0.8,0.3,1.5,0.8,2.1,1.4c0.6,0.6,1.1,1.3,1.4,2.1c0.3,0.8,0.5,1.6,0.5,2.5
			c0,0.9-0.2,1.8-0.5,2.5c-0.3,0.8-0.8,1.5-1.4,2.1c-0.6,0.6-1.3,1.1-2.1,1.4c-0.8,0.3-1.6,0.5-2.5,0.5h-3.5v3.2h2v4.1h-8.1v-4.1h2
			v-12.2h-2v-4.1H163.8z M142.4,159.2v4.1h-2v16.2h-4.1l-7.9-12.7v8.6h2v4.1h-8.1v-4.1h2v-12.2h-2v-4.1h6.1l7.9,12.7v-8.6h-2v-4.1
			H142.4z M112.5,169.4l-1.8-6.1h-0.2l-1.8,6.1H112.5z M120.5,175.5v4.1h-8.1v-4.1h1.9l-0.6-2h-6.3l-0.6,2h1.9v4.1h-8.1v-4.1h2
			l4.9-16.2h6.2l4.9,16.2H120.5z M93,175.5c0.6,0,1.1-0.2,1.6-0.7c0.4-0.4,0.7-1,0.7-1.6c0-0.6-0.2-1.1-0.7-1.6
			c-0.4-0.4-1-0.7-1.6-0.7H89v4.5H93z M89,163.3v3.7H93c0.5,0,0.9-0.2,1.3-0.5c0.4-0.4,0.5-0.8,0.5-1.3c0-0.5-0.2-0.9-0.5-1.3
			c-0.4-0.4-0.8-0.5-1.3-0.5H89z M97.6,168.9c0.6,0.6,1,1.2,1.3,2c0.3,0.7,0.5,1.5,0.5,2.4c0,0.9-0.2,1.7-0.5,2.5
			c-0.3,0.8-0.8,1.4-1.3,2c-0.6,0.6-1.2,1-2,1.3c-0.8,0.3-1.6,0.5-2.5,0.5H82.9v-4.1h2v-12.2h-2v-4.1H93c0.8,0,1.6,0.2,2.3,0.5
			c0.7,0.3,1.3,0.7,1.9,1.3c0.5,0.5,1,1.2,1.3,1.9c0.3,0.7,0.5,1.5,0.5,2.3c0,0.7-0.1,1.4-0.4,2C98.3,167.8,98,168.3,97.6,168.9z
			 M69.1,168.1h3.5c0.7,0,1.3-0.2,1.7-0.7c0.5-0.5,0.7-1.1,0.7-1.7c0-0.7-0.2-1.3-0.7-1.7c-0.5-0.5-1-0.7-1.7-0.7h-3.5V168.1z
			 M81.1,175.5v4.1h-8.1v-4.1h1.7l-1.9-3.2h-3.7v3.2h2v4.1H63v-4.1h2v-12.2h-2v-4.1h9.6c0.9,0,1.7,0.2,2.5,0.6
			c0.8,0.3,1.5,0.8,2,1.4c0.6,0.6,1,1.3,1.4,2c0.3,0.8,0.5,1.6,0.5,2.5c0,1-0.2,2-0.7,2.9c-0.4,0.9-1,1.6-1.8,2.2l2.7,4.7H81.1z
			 M61.2,159.2v4.1h-2v10.2c0,0.9-0.2,1.6-0.5,2.4c-0.3,0.7-0.8,1.4-1.3,1.9c-0.6,0.6-1.2,1-1.9,1.3c-0.7,0.3-1.5,0.5-2.4,0.5h-2.8
			c-0.9,0-1.6-0.2-2.4-0.5c-0.7-0.3-1.4-0.8-1.9-1.3c-0.6-0.6-1-1.2-1.3-1.9c-0.3-0.7-0.5-1.5-0.5-2.4v-10.2h-2v-4.1h8.1v4.1h-2
			v10.2c0,0.6,0.2,1,0.6,1.4c0.4,0.4,0.9,0.6,1.4,0.6H53c0.6,0,1-0.2,1.4-0.6c0.4-0.4,0.6-0.9,0.6-1.4v-10.2h-2v-4.1H61.2z
			 M203.4,193.1c0-0.9-0.7-1.6-1.6-1.6c-0.9,0-1.6,0.7-1.6,1.6c0,0.9,0.7,1.6,1.6,1.6C202.7,194.7,203.4,194,203.4,193.1z
			 M192,196.9v-1.5h-4v-1.6h3.5v-1.5h-3.5v-1.5h4v-1.5h-5.6v7.4H192z M181.6,189.4h-1.8l-1.9,5.2l-1.9-5.2h-1.8l3,7.5h1.4
			L181.6,189.4z M169.5,196.9v-7.4h-1.6v7.4H169.5z M163,190.9v-1.5h-6.2v1.5h2.3v5.9h1.6v-5.9H163z M152.6,195.7l-1-1.1
			c-0.6,0.5-1.1,0.9-2,0.9c-1.3,0-2.2-1.1-2.2-2.3v0c0-1.3,0.9-2.3,2.2-2.3c0.7,0,1.3,0.3,1.9,0.8l1-1.2c-0.7-0.7-1.5-1.1-2.9-1.1
			c-2.3,0-3.9,1.7-3.9,3.8v0c0,2.1,1.6,3.8,3.8,3.8C151,197,151.8,196.5,152.6,195.7z M141.1,196.9v-1.5h-4v-1.6h3.5v-1.5H137v-1.5
			h4v-1.5h-5.6v7.4H141.1z M130.7,196.9v-1.5H127v-5.9h-1.6v7.4H130.7z M120.6,196.9v-1.5h-3.7v-5.9h-1.6v7.4H120.6z M108.6,193.2
			c0,1.3-0.9,2.3-2.2,2.3c-1.3,0-2.3-1.1-2.3-2.3v0c0-1.3,0.9-2.3,2.2-2.3C107.7,190.8,108.6,191.9,108.6,193.2L108.6,193.2z
			 M110.3,193.1L110.3,193.1c0-2.1-1.6-3.8-3.9-3.8c-2.3,0-4,1.7-4,3.8v0c0,2.1,1.6,3.8,3.9,3.8C108.6,197,110.3,195.3,110.3,193.1z
			 M98.2,195.7l-1-1.1c-0.6,0.5-1.1,0.9-2,0.9c-1.3,0-2.2-1.1-2.2-2.3v0c0-1.3,0.9-2.3,2.2-2.3c0.7,0,1.3,0.3,1.9,0.8l1-1.2
			c-0.7-0.7-1.5-1.1-2.9-1.1c-2.3,0-3.9,1.7-3.9,3.8v0c0,2.1,1.6,3.8,3.8,3.8C96.5,197,97.4,196.5,98.2,195.7z M83,193.1
			c0-0.9-0.7-1.6-1.6-1.6c-0.9,0-1.6,0.7-1.6,1.6c0,0.9,0.7,1.6,1.6,1.6C82.3,194.7,83,194,83,193.1z M195.2,146.8v-0.6l4.6,1.2v0.6
			L195.2,146.8z M195.2,145.5v-0.6l4.6,1.2v0.6L195.2,145.5z M195.2,144.3v-0.6l4.6,1.2v0.6L195.2,144.3z M195.2,143v-0.6l4.6,1.2
			v0.6L195.2,143z M195.2,141.8v-0.6l4.6,1.2v0.6L195.2,141.8z M195.2,140.6v-0.6l4.6,1.2v0.6L195.2,140.6z M195.2,139.3v-0.6
			l4.6,1.2v0.6L195.2,139.3z M195.2,138.1v-0.6l4.6,1.2v0.6L195.2,138.1z M195.2,136.8v-0.6l4.6,1.2v0.6L195.2,136.8z M195.2,135.6
			V135l4.6,1.2v0.6L195.2,135.6z M198.4,115l-1.9-1.3l0,0.1c0,1.2,0.4,2.3,1,2.7C198,116.8,198.4,116.1,198.4,115z M177,116.8h8
			c-0.1-2.3-0.5-5.6-0.8-7.8c-0.2-1.2-1.3-7.6-2.2-8.6h-1.9c-0.9,1-2,7.3-2.2,8.6C177.5,111.2,177.1,114.5,177,116.8z M176.4,120.6
			v-3.8c0-4.4,2-16.5,3.5-17h0v-1.5c0.1-1.2,0.5-1.8,0.8-2.4l0,0l0,0c0.1-0.1,0.2-0.2,0.3-0.2c0.1,0,0.2,0.1,0.3,0.2l0,0l0,0
			c0.3,0.6,0.7,1.3,0.8,2.4v1.5h0c1.4,0.5,3.5,12.7,3.5,17l0,0v3.8H176.4z M176.4,122.8v-1.2h9.3v1.2H176.4z M176.4,125v-1.2h9.3
			v1.2H176.4z M109.3,120.9v-11.6c0-0.2,0.1-0.3,0.3-0.3c0.2,0,0.3,0.1,0.3,0.3v11.6c0,0.2-0.1,0.3-0.3,0.3
			C109.4,121.3,109.3,121.1,109.3,120.9z M107.3,120.9v-11.6c0-0.2,0.1-0.3,0.3-0.3h0c0.2,0,0.3,0.1,0.3,0.3v11.6
			c0,0.2-0.1,0.3-0.3,0.3h0C107.4,121.3,107.3,121.1,107.3,120.9z M105.3,120.9v-11.6c0-0.2,0.1-0.3,0.3-0.3h0
			c0.2,0,0.3,0.1,0.3,0.3v11.6c0,0.2-0.1,0.3-0.3,0.3h0C105.5,121.3,105.3,121.1,105.3,120.9z M103.3,120.9v-11.6
			c0-0.2,0.1-0.3,0.3-0.3l0,0c0.2,0,0.3,0.1,0.3,0.3v11.6c0,0.2-0.1,0.3-0.3,0.3l0,0C103.5,121.3,103.3,121.1,103.3,120.9z
			 M101.4,120.9v-11.6c0-0.2,0.1-0.3,0.3-0.3l0,0c0.2,0,0.3,0.1,0.3,0.3v11.6c0,0.2-0.1,0.3-0.3,0.3l0,0
			C101.5,121.3,101.4,121.1,101.4,120.9z M99.4,120.9v-11.6c0-0.2,0.1-0.3,0.3-0.3h0c0.2,0,0.3,0.1,0.3,0.3v11.6
			c0,0.2-0.1,0.3-0.3,0.3h0C99.5,121.3,99.4,121.1,99.4,120.9z M97.4,120.9v-11.6c0-0.2,0.1-0.3,0.3-0.3h0c0.2,0,0.3,0.1,0.3,0.3
			v11.6c0,0.2-0.1,0.3-0.3,0.3h0C97.5,121.3,97.4,121.1,97.4,120.9z M95.4,120.9v-11.6c0-0.2,0.1-0.3,0.3-0.3h0
			c0.2,0,0.3,0.1,0.3,0.3v11.6c0,0.2-0.1,0.3-0.3,0.3h0C95.6,121.3,95.4,121.1,95.4,120.9z M93.5,120.9v-11.6c0-0.2,0.1-0.3,0.3-0.3
			l0,0c0.2,0,0.3,0.1,0.3,0.3v11.6c0,0.2-0.1,0.3-0.3,0.3l0,0C93.6,121.3,93.5,121.1,93.5,120.9z M91.5,120.9v-11.6
			c0-0.2,0.1-0.3,0.3-0.3c0.2,0,0.3,0.1,0.3,0.3v11.6c0,0.2-0.1,0.3-0.3,0.3C91.6,121.3,91.5,121.1,91.5,120.9z M92.4,121.9H109v2
			h-8.3h-8.3V121.9z M136.3,74.7c0-1.2,1-2.2,2.2-2.2c1.2,0,2.2,1,2.2,2.2c0,1.2-1,2.2-2.2,2.2C137.3,76.9,136.3,75.9,136.3,74.7z
			 M166.8,126.8H159v1.5h7.8V126.8z M166.8,125.6H159v-21.7c0-0.4,0.4-0.8,0.8-0.8h6.2c0.4,0,0.8,0.4,0.8,0.8V125.6z M165.3,96.3V93
			l-5-8v11.3H165.3z M165.9,97c-1,0-2,0-3,0c-1,0-2,0-3,0c0,1.7,1.4,3,3,3S165.9,98.6,165.9,97z M248.3,151.1h0.8l-0.8-0.4V151.1z
			 M246,151.1h1.2v-1l-1.2-0.6V151.1z M243.7,151.1h1.2v-2.2l-1.2-0.6V151.1z M259.3,170.9v1.2h-5.8v-1.2H259.3z M266.2,171.2v0.8
			h-5.8v-1.2h5.5L266.2,171.2z M252.3,140.2v1.2h-5.8v-1.2H252.3z M259.3,140.2v1.2h-5.8v-1.2H259.3z M266.2,140.2v0.8l-0.3,0.4
			h-5.5v-1.2H266.2z M241.4,148.3l1.2,2.4v-3l-1.2-0.6V148.3z M243.1,140.2l-0.7,1.2h3v-1.2H243.1z M35,187.7L35,187.7h-0.8l0.8,0.4
			V187.7z M37.2,187.7h-1.2v1l1.2,0.6V187.7z M39.5,187.7h-1.2v2.2l1.2,0.6V187.7z M41.8,187.7h-1.2v3.4l1.2,0.6V187.7z M44.1,187.7
			H43v4.6l1.2,0.6V187.7z M46.4,187.7h-1.2v5.7l1.2,0.6V187.7z M48.7,187.7h-1.2v6.9l1.2,0.6V187.7z M51,187.7h-1.2v8.1l1.2,0.6
			V187.7z M53.3,187.7h-1.2v9.3l1.2,0.6V187.7z M24,167.8v-1.2h5.8v1.2H24z M17.1,167.5v-0.8h5.8v1.2h-5.5L17.1,167.5z M44.7,198.5
			v-1.2h5.8v1.2H44.7z M37.8,198.5v-1.2h5.8v1.2H37.8z M30.9,198.5v-1.2h5.8v1.2H30.9z M24,198.5v-1.2h5.8v1.2H24z M17.1,198.5v-0.8
			l0.3-0.4h5.5v1.2H17.1z M53,197.4l2.2,1.2h-3.5v-1.2H53z M55.5,197.8l-0.3-0.2l-0.2-8.9l-0.7-0.4v9.8l1.2,0.6V197.8z M57.8,198.9
			l-1.2-0.5v1l1.2,0.6V198.9z M59.8,199.8l-0.8-0.4v1.1l0.8,0.4V199.8z M34.9,167.8v-1.2h-4v1.2H34.9z M217.6,187.7h-2.7
			c-3.5,5.5-7.5,10.5-12.1,15.1c-15.7,15.7-37.3,25.3-61.2,25.3c-23.9,0-45.5-9.7-61.2-25.3c-4.6-4.6-8.6-9.6-12.1-15.1h-2.7
			c3.7,6.1,8.1,11.7,13.1,16.7c16.1,16.1,38.3,26,62.8,26c24.5,0,46.7-9.9,62.8-26C209.5,199.4,213.9,193.7,217.6,187.7z
			 M224.1,187.7h-2.7c-4,7-9,13.4-14.6,19.1c-16.7,16.7-39.7,27-65.2,27s-48.5-10.3-65.2-27c-5.7-5.7-10.6-12.1-14.6-19.1h-2.7
			c4.3,7.6,9.5,14.6,15.7,20.7c17.1,17.1,40.7,27.7,66.8,27.7s49.7-10.6,66.8-27.7C214.5,202.2,219.8,195.3,224.1,187.7z
			 M249.1,170.9v1.2h3.2v-1.2H249.1z M193,151.1h1.6l0.1-16.6c0-1.6,0.6-6.3,1.4-11.9h0.1v-9.5l2.6,1.7v7.8h0.1
			c0.8,5.6,1.4,10.3,1.4,11.9l0.1,16.6h1.6l-0.1-16.6c0-1.5-0.2-3.2-0.4-4.6c-0.3-2.5-0.7-5-1-7.5l-0.1-0.5v-7.9l-5.9-3.8v11.8
			l-0.1,0.5c-0.4,2.5-0.7,5-1,7.5c-0.2,1.5-0.4,3.1-0.4,4.6L193,151.1z M174.7,151.1h1.6V126h9.3v25.1h1.6l0-34.2c0-0.1,0-0.1,0-0.2
			v-1.5h0c-0.1-2.2-0.5-4.5-0.8-6.6c-0.3-2.1-0.8-4.2-1.3-6.3c-0.3-0.9-0.6-2.4-1.3-3.3v-0.9l0-0.1c-0.1-1.3-0.4-2-1-3.1
			c-0.3-0.7-1-1.1-1.8-1.1c-0.7,0-1.4,0.4-1.8,1.1c-0.6,1.1-0.9,1.8-1,3.1l0,0.1v0.9c-0.7,0.9-1.1,2.4-1.3,3.3c-0.6,2-1,4.2-1.3,6.3
			c-0.3,2.1-0.7,4.4-0.8,6.6h0v1.6c0,0,0,0,0,0.1v10.8V151.1z M156.7,151.1h1.6v-21.6v-1.2v-24.4c0-0.4,0.2-0.8,0.4-1l0.1-1.7
			c0.1-1.4,0.2-2.8,0.3-4.2l0-0.6h0.4V82.7l6.3,10.1v3.5h0.6l0,0.6c0.1,1.4,0.2,2.8,0.3,4.2l0.1,1.7c0.3,0.3,0.4,0.6,0.4,1v24.4v1.2
			v21.6h1.6v-22.6v-24.6c0-0.6-0.2-1.2-0.5-1.7c0-0.4-0.1-0.8-0.1-1.2c-0.1-1.4-0.2-2.8-0.3-4.2l-0.2-2.1h-0.4v-2.3L158,77v17.7
			h-0.3l-0.2,2.1c-0.1,1.4-0.2,2.8-0.3,4.2c0,0.4-0.1,0.8-0.1,1.2c-0.3,0.5-0.5,1-0.5,1.7V151.1z M125.9,151.1h5.2v-0.5h-3.6v-1.7
			h3.6v-0.6h-3.6v-1.7h3.6v-0.6h-3.6v-1.7h3.6v-0.6h-3.6v-1.7h5.7v-0.6h-5.7v-1.7h3.6v-0.6h-3.6v-1.7h3.6v-0.6h-3.6v-1.7h3.6v-0.6
			h-3.6v-1.7h3.6v-0.6h-3.6v-1.7h8.9v-0.6h-8.9v-1.7h3.6v-0.6h-3.6v-1.7h3.6v-0.6h-3.6v-1.7h3.6v-0.6h-3.6v-1.7h3.6v-0.6h-3.6v-1.7
			h5.7v-0.6h-5.7v-1.7h3.6v-0.6h-3.6v-1.7h3.6v-0.6h-3.6v-1.7h3.6v-0.6h-3.6V109h3.6v-0.6h-3.6v-1.7h8.9v-0.6h-8.9v-1.7h3.6v-0.6
			h-3.6V102h3.6v-0.6h-3.6v-1.7h3.6V99h-3.6v-1.7h3.6v-0.6h-3.6V95h5.7v-0.6h-5.7v-1.7h3.6V92h-3.6v-1.7h3.6v-0.6h-3.6V88h3.6v-0.6
			h-3.6v-1.7h3.6V85h-3.6v-1.7h8.9v-0.6h-8.9v-5.3c0-6,4.9-10.9,10.9-10.9l0,0c6,0,10.9,4.9,10.9,10.9v73.7h1.6V77.4
			c0-6.9-5.6-12.5-12.5-12.5c-6.9,0-12.5,5.6-12.5,12.5v19.3V151.1z M81.1,151.1h1.6v-21.2c0-1,1.9-2.3,3.4-3.4l1.5-1.1
			c1.7-1.3,1.7-1.6,3.7-1.6v-2c-0.3-0.1-0.5-0.3-0.5-0.6V109c0-0.3,0.3-0.6,0.6-0.6h4.3v-2h1.7c0.4-3.4,0.8-6.8,1.1-10.3
			c0.1-0.7,0.4-0.7,0.8-0.7h1.3h1.3c0.4,0,0.7,0,0.8,0.7c0.4,3.4,0.8,6.8,1.1,10.3h1.7v2h4.3c0.3,0,0.6,0.3,0.6,0.6v12.2
			c0,0.3-0.2,0.6-0.5,0.6v2c2,0,2,0.3,3.7,1.6l1.5,1.1c1.5,1.1,3.4,2.4,3.4,3.4v21.2h1.6v-21.2c0-2-2.6-3.6-4-4.7l-1.5-1.1
			c-1.3-1-1.9-1.5-2.9-1.7c0.2-0.3,0.3-0.7,0.3-1.1V109c0-1.2-1-2.3-2.3-2.3h-2.7v-2h-1.9c-0.3-2.9-0.7-5.9-1-8.8
			c-0.2-1.4-1.1-2.1-2.4-2.1h-2.6c-1.4,0-2.3,0.7-2.4,2.1c-0.3,2.9-0.7,5.9-1,8.8h-1.9v2h-2.7c-1.2,0-2.3,1-2.3,2.3v12.2
			c0,0.4,0.1,0.8,0.3,1.1c-1,0.2-1.6,0.8-2.9,1.7l-1.5,1.1c-1.4,1.1-4,2.7-4,4.7V151.1z M53.3,151.1h2.3c-0.3-3.1-0.5-6.3-0.5-9.5
			c0-23.9,9.7-45.5,25.3-61.2C96.1,64.7,117.7,55,141.6,55c23.9,0,45.5,9.7,61.2,25.3c15.7,15.7,25.3,37.3,25.3,61.2
			c0,3.2-0.2,6.4-0.5,9.5h2.3c0.3-3.1,0.5-6.3,0.5-9.5c0-24.5-9.9-46.7-26-62.8c-16.1-16.1-38.3-26-62.8-26
			c-24.5,0-46.7,9.9-62.8,26c-16.1,16.1-26,38.3-26,62.8C52.8,144.8,53,147.9,53.3,151.1z M47.6,151.1H50c-0.3-3.1-0.5-6.3-0.5-9.5
			c0-25.4,10.3-48.5,27-65.2c16.7-16.7,39.7-27,65.2-27s48.5,10.3,65.2,27c16.7,16.7,27,39.7,27,65.2c0,3.2-0.2,6.4-0.5,9.5h2.3
			c0.3-3.1,0.5-6.3,0.5-9.5c0-26.1-10.6-49.7-27.7-66.8c-17.1-17.1-40.7-27.7-66.8-27.7S91.9,57.7,74.8,74.8
			c-17.1,17.1-27.7,40.7-27.7,66.8C47.2,144.8,47.3,147.9,47.6,151.1z M141.6,38.8l7.5,4.7l8.2-3.5l6.7,5.8l8.6-2.2l5.8,6.8l8.8-0.9
			L192,57l8.9,0.5l3.5,8.2l8.7,1.8l2.2,8.6l8.3,3.2l0.8,8.8l7.7,4.4l-0.5,8.9l7,5.5l-1.9,8.7l6,6.5l-3.2,8.3l5,7.4l0,0.1h24.4
			l-15.4,18.3l15.4,18.3h-19.7v13.3h-19.3l-1.7,1.1l-0.2,8.9l-8,3.8l-1.5,8.8l-8.5,2.5l-2.8,8.4l-8.8,1.2l-4.1,7.9l-8.9-0.2
			l-5.2,7.2l-8.8-1.5l-6.3,6.3l-8.4-2.9l-7.2,5.3l-7.9-4.1l-7.9,4.1l-7.2-5.3l-8.4,2.9l-6.3-6.3l-8.8,1.5l-5.2-7.2l-8.9,0.2
			l-4.1-7.9l-8.8-1.2l-2.8-8.4l-8.5-2.5l-1.5-8.8l-3.5-1.6v1.1H14.4l15.4-18.3l-15.4-18.3h20.5v-13.3h5.6l2.6-5.6l-4.4-7.7l5-7.4
			l-3.2-8.3l6-6.5l-1.9-8.7l7-5.5l-0.5-8.9l7.7-4.4l0.8-8.8l8.3-3.2l2.2-8.6l8.7-1.8l3.5-8.2l8.9-0.5l4.7-7.6l8.8,0.9l5.8-6.8
			l8.6,2.2l6.7-5.8l8.2,3.5L141.6,38.8z"/>
	</g>
</g>
</svg>
