<svg xmlns="http://www.w3.org/2000/svg" xmlns:xlink="http://www.w3.org/1999/xlink" viewBox="0 0 283.5 283.5"><g fill="#FFF"><path fill-rule="evenodd" clip-rule="evenodd" d="M32.9 149.1h218.2v40.6H32.9z"/><path d="M249 151.1v36.6H34.9v-36.6H249m4-4H30.9v44.6H253v-44.6z"/></g><g fill="#FFF"><path fill-rule="evenodd" clip-rule="evenodd" d="M10 202.9l17.1-20.3L9.5 162h30.7l29.4 40.9z"/><path d="M39.2 164l26.5 36.9H14.3l15.4-18.3L13.8 164h25.4m2-4H5.1l5.6 6.6 13.7 16-13.2 15.7-5.5 6.6h67.7l-4.6-6.3-26.5-36.9-1.1-1.7z"/></g><g fill="#FFF"><path fill-rule="evenodd" clip-rule="evenodd" d="M243.3 176.4l-29.4-40.9h59.5l-17 20.2 17.6 20.7z"/><path d="M269.1 137.5l-15.4 18.3 15.9 18.6h-25.4l-26.5-36.9h51.4m8.6-4H210l4.6 6.3 26.5 36.9 1.2 1.7h36.2l-5.6-6.6-13.7-16 13.2-15.7 5.3-6.6z"/></g><g fill="#FFF"><path fill-rule="evenodd" clip-rule="evenodd" d="M126.2 241.7l-8.6 2.9-6.5-6.4-8.9 1.5-5.4-7.3-9.1.2-4.1-8.1-9-1.2-2.9-8.6-8.7-2.6-1.6-9.1-8.3-4.4-.1-9-7.6-5.1 1.3-9-6.7-6.2 2.7-8.7-5.8-7.3.8-1.2 3.1-6.2-4.5-7.9 5.1-7.5-3.2-8.5 6.2-6.6-1.9-8.9 7.1-6.1-.2-8.8 7.6-4.8 1.1-8.6 8.3-3.7 2.4-8.3 8.8-2.4 3.5-7.8 9.2-1 5-7.8 9 .9 5.9-6.9 8.8 2.3 6.9-5.9 8.4 3.6 7.7-4.8 7.7 4.8 8.4-3.5 6.9 6 8.8-2.3 5.9 7 9-.9 4.8 7.8 9 .5 3.5 8.4 8.9 1.9 2.2 8.8 8.2 3.4.9 9 7.9 4.5-.6 9 7.2 5.7-1.9 8.9 6.1 6.6-3.1 8.5 5.1 7.5-4.5 7.9 3.8 8.2-5.7 7.1 2.6 8.8-6.7 6.1 1.2 9-7.5 5.1-.2 9.1-8.2 3.9-1.5 8.9-8.8 2.6-2.9 8.6-9 1.2-4.1 8.1-9.1-.2-5.4 7.3-8.9-1.5-6.5 6.4-8.6-2.9-7.3 5.4-8-4.2-8.1 4.2z"/><path d="M142 38.8l7.5 4.7 8.2-3.5 6.7 5.8 8.6-2.2 5.8 6.8 8.8-.8 4.6 7.6 8.9.5 3.4 8.2 8.7 1.9 2.1 8.6 8 3.2.8 8.8 7.7 4.4-.5 8.9 7 5.5-1.9 8.7 6.1 6.5-3 8.3 5 7.4-4.4 7.7 3.8 8-5.6 6.9 2.5 8.5-6.5 6 1.2 8.8-7.3 5-.2 9-8 3.8-1.5 8.8-8.5 2.5-2.8 8.4-8.8 1.2-4.1 7.9-8.9-.2-5.2 7.2-8.8-1.5-6.3 6.3-8.4-2.9-7.2 5.3-7.9-4.1-7.9 4.1-7.2-5.3-8.4 2.9-6.3-6.3-8.8 1.5-5.2-7.2-8.9.2-4.1-7.9-8.8-1.2-2.8-8.4-8.5-2.5-1.6-8.8-8.1-4.3-.1-8.9-7.4-5 1.2-8.8-6.5-6.1 2.6-8.5-5.5-7v-.1l3.7-7.3-4.4-7.7 5-7.4-3.2-8.3 6-6.5-1.9-8.7 6.9-5.9-.2-8.6 7.5-4.7 1.1-8.5 8.2-3.6 2.3-8.1 8.7-2.3 3.4-7.7 9-1 4.8-7.5 8.8.9 5.8-6.7 8.6 2.2 6.8-5.8 8.2 3.5 7.6-4.6m0-4.7l-2.1 1.3-5.8 3.6-6.2-2.7-2.3-1-1.9 1.6-5.2 4.4-6.6-1.7-2.4-.6-1.6 1.9-4.5 5.2-6.8-.7-2.5-.2-1.3 2.1-3.8 5.9-7.1.8-2.3.3-.9 2.1-2.6 5.9-6.7 1.7-2.2.6-.6 2.2-1.8 6.3-6.4 2.8-2.1.9-.3 2.3-.8 6.6-5.9 3.7-1.9 1.2.1 2.3.2 6.7-5.5 4.7-1.8 1.6.5 2.3 1.4 6.6-4.6 5-1.7 1.8.9 2.3 2.4 6.4-3.8 5.6-1.4 2.1 1.2 2.2 3.3 5.9-2.6 5.2-1.5 2.3 1.8 2.3 4.2 5.3-2 6.5-.7 2.4 1.8 1.7 5 4.6-.9 6.7-.3 2.5 2.1 1.4 5.6 3.8.1 6.8v2.4l2.1 1.1 6.4 3.4 1.2 6.9.4 2.4 2.4.7 6.5 1.9 2.2 6.4.8 2.4 2.5.3 6.7.9 3.1 6 1.1 2.2 2.5-.1 6.8-.1 4 5.5 1.5 2 2.5-.4 6.7-1.2 4.8 4.8 1.8 1.8 2.4-.8 6.4-2.2 5.5 4 2 1.5 2.2-1.2 6-3.1 6 3.1 2.2 1.2 2-1.5 5.5-4 6.4 2.2 2.4.8 1.8-1.8 4.8-4.8 6.7 1.2 2.5.4 1.5-2 4-5.5 6.8.1 2.5.1 1.1-2.2 3.1-6 6.7-.9 2.5-.3.8-2.4 2.2-6.4 6.5-1.9 2.4-.7.4-2.5 1.2-6.7 6.2-2.9 2.3-1.1v-2.5l.1-6.8 5.6-3.8 2-1.4-.3-2.4-.9-6.7 5-4.6 1.8-1.7-.7-2.4-1.9-6.5 4.3-5.3 1.6-1.9-1.1-2.3-2.9-6.2 3.4-5.9 1.2-2.2-1.4-2.1-3.8-5.7 2.3-6.4.8-2.3-1.7-1.8-4.6-5 1.4-6.6.5-2.4-2-1.5-5.3-4.2.4-6.8.1-2.5-2.2-1.2L228 86l-.6-6.8-.2-2.4-2.3-.9-6.1-2.5-1.6-6.6-.6-2.4-2.4-.5-6.6-1.4-2.6-6.3-1-2.3-2.5-.1-6.8-.4-3.6-5.8-1.3-2.1-2.5.2-6.8.6-4.4-5.2-1.6-1.9-2.4.6-6.6 1.7-5.1-4.5-1.9-1.6-2.3 1-6.3 2.7-5.8-3.6-2.1-1.4z"/></g><defs><path id="a" d="M216.9 137.8h51.8v36.6h-51.8z"/></defs><clipPath id="b"><use xlink:href="#a" overflow="visible"/></clipPath><path clip-path="url(#b)" fill-rule="evenodd" clip-rule="evenodd" fill="#00568F" d="M150.1 204.7c-.7-.7-1.8-.7-2.5 0s-.7 1.8 0 2.5 1.8.7 2.5 0 .7-1.9 0-2.5m-17.1 0c.7-.7 1.8-.7 2.5 0s.7 1.8 0 2.5-1.8.7-2.5 0-.7-1.9 0-2.5zm17.9-.8c-1.1-1.1-2.9-1.1-4 0-.6.6-.9 1.3-.8 2.1v.1c0 1.1-.5 2.2-1 3-1.1 1.2-2.2 2.3-3.4 3.3-1.2-1-2.4-2.1-3.4-3.3-.6-.8-1.1-1.9-1-3v-.1c0-.8-.3-1.5-.8-2.1-1.1-1.1-2.9-1.1-4 0s-1.1 2.9 0 4c.6.6 1.3.9 2.1.8h.1c1.1 0 2.1.6 2.8 1.3l3.3 3.3c-5.1 4.2-10.2 7.3-9 11l10-10 10 10c1.1-3.7-3.9-6.8-9-11l3.3-3.3c.7-.7 1.7-1.3 2.8-1.3h.1c.8 0 1.5-.3 2.1-.8.9-1.1.9-2.9-.2-4zM48 184.1v1.2h-5.8v-1.2H48zm6.9 0v1.2h-5.8v-1.2h5.8zm6.9 0v1.2H56v-1.2h5.8zm6.9 0v1.2H63v-1.2h5.7zm6.9 0v1.2h-5.8v-1.2h5.8zm7 0v1.2h-5.8v-1.2h5.8zm6.9 0v1.2h-5.8v-1.2h5.8zm6.9 0v1.2h-5.8v-1.2h5.8zm6.9 0v1.2h-5.8v-1.2h5.8zm6.9 0v1.2h-5.8v-1.2h5.8zm6.9 0v1.2h-5.8v-1.2h5.8zm7 0v1.2h-5.8v-1.2h5.8zm6.9 0v1.2h-5.8v-1.2h5.8zm6.9 0v1.2h-5.8v-1.2h5.8zm6.9 0v1.2H139v-1.2h5.8zm6.9 0v1.2H146v-1.2h5.7zm6.9 0v1.2h-5.8v-1.2h5.8zm6.9 0v1.2h-5.8v-1.2h5.8zm7 0v1.2h-5.8v-1.2h5.8zm6.9 0v1.2h-5.8v-1.2h5.8zm6.9 0v1.2h-5.8v-1.2h5.8zm6.9 0v1.2h-5.8v-1.2h5.8zm6.9 0v1.2h-5.8v-1.2h5.8zm6.9 0v1.2h-5.8v-1.2h5.8zm7 0v1.2h-5.8v-1.2h5.8zm6.9 0v1.2h-5.8v-1.2h5.8zm6.9 0v1.2H222v-1.2h5.8zm6.9 0v1.2h-5.8v-1.2h5.8zm6.9 0v1.2h-5.8v-1.2h5.8zm6.9 0v1.2h-5.8v-1.2h5.8zm-207.4 0v1.2h-5.8v-1.2h5.8zm6.9-30.7v1.2h-5.8v-1.2H48zm6.9 0v1.2h-5.8v-1.2h5.8zm6.9 0v1.2H56v-1.2h5.8zm6.9 0v1.2H63v-1.2h5.7zm6.9 0v1.2h-5.8v-1.2h5.8zm7 0v1.2h-5.8v-1.2h5.8zm6.9 0v1.2h-5.8v-1.2h5.8zm6.9 0v1.2h-5.8v-1.2h5.8zm6.9 0v1.2h-5.8v-1.2h5.8zm6.9 0v1.2h-5.8v-1.2h5.8zm6.9 0v1.2h-5.8v-1.2h5.8zm7 0v1.2h-5.8v-1.2h5.8zm6.9 0v1.2h-5.8v-1.2h5.8zm6.9 0v1.2h-5.8v-1.2h5.8zm6.9 0v1.2H139v-1.2h5.8zm6.9 0v1.2H146v-1.2h5.7zm6.9 0v1.2h-5.8v-1.2h5.8zm6.9 0v1.2h-5.8v-1.2h5.8zm7 0v1.2h-5.8v-1.2h5.8zm6.9 0v1.2h-5.8v-1.2h5.8zm6.9 0v1.2h-5.8v-1.2h5.8zm6.9 0v1.2h-5.8v-1.2h5.8zm6.9 0v1.2h-5.8v-1.2h5.8zm6.9 0v1.2h-5.8v-1.2h5.8zm7 0v1.2h-5.8v-1.2h5.8zm6.9 0v1.2h-5.8v-1.2h5.8zm6.9 0v1.2H222v-1.2h5.8zm6.9 0v1.2h-5.8v-1.2h5.8zm6.9 0v1.2h-5.8v-1.2h5.8zm6.9 0v1.2h-5.8v-1.2h5.8zm-207.4 0v1.2h-5.8v-1.2h5.8zm188.8 14.7h3.5c.7 0 1.3-.2 1.7-.7.5-.5.7-1.1.7-1.7 0-.7-.2-1.3-.7-1.7-.5-.5-1-.7-1.7-.7h-3.5v4.8zm11.9 7.3v4.1h-8.1v-4.1h1.7l-1.9-3.2h-3.7v3.2h2v4.1h-8.1v-4.1h2v-12.2h-2v-4.1h9.6c.9 0 1.7.2 2.5.6.8.3 1.5.8 2 1.4.6.6 1 1.3 1.4 2 .3.8.5 1.6.5 2.5 0 1-.2 2-.7 2.9-.4.9-1 1.6-1.8 2.2l2.7 4.7h1.9zm-19.9-16.2v6.1h-4.1v-2h-4.1v4.1h4.1v4.1h-4.1v4.1h4.1v-2h4.1v6.1h-14.2v-4.1h2v-12.2h-2v-4.1h14.2zm-22.3 8.9c.7 0 1.3-.2 1.7-.7.5-.5.7-1.1.7-1.7 0-.7-.2-1.3-.7-1.7-.5-.5-1-.7-1.7-.7h-3.5v4.9h3.5zm0-8.9c.9 0 1.7.2 2.5.5s1.5.8 2.1 1.4c.6.6 1.1 1.3 1.4 2.1.3.8.5 1.6.5 2.5 0 .9-.2 1.8-.5 2.5-.3.8-.8 1.5-1.4 2.1-.6.6-1.3 1.1-2.1 1.4-.8.3-1.6.5-2.5.5h-3.5v3.2h2v4.1H190v-4.1h2v-12.2h-2v-4.1h9.6zm-19.4 10.1l-1.8-6.1h-.2l-1.8 6.1h3.8zm8 6.1v4.1h-8.1v-4.1h1.9l-.6-2h-6.3l-.6 2h1.9v4.1h-8.1v-4.1h2l4.9-16.2h6.2l4.9 16.2h1.9zm-24.5-7.3c.7 0 1.3-.2 1.7-.7.5-.5.7-1.1.7-1.7 0-.7-.2-1.3-.7-1.7-.5-.5-1.1-.7-1.7-.7h-3.5v4.9h3.5zm0-8.9c.9 0 1.7.2 2.5.5s1.5.8 2.1 1.4c.6.6 1.1 1.3 1.4 2.1.3.8.5 1.6.5 2.5 0 .9-.2 1.8-.5 2.5-.3.8-.8 1.5-1.4 2.1s-1.3 1.1-2.1 1.4c-.8.3-1.6.5-2.5.5h-3.5v3.2h2v4.1h-8.1v-4.1h2v-12.2h-2v-4.1h9.6zm-21.3 0v4.1h-2v16.2h-4.1l-7.9-12.7v8.6h2v4.1h-8.1v-4.1h2v-12.2h-2v-4.1h6.1l7.9 12.7v-8.6h-2v-4.1h8.1zm-30 10.1l-1.8-6.1h-.2l-1.8 6.1h3.8zm8.1 6.1v4.1h-8.1v-4.1h1.9l-.6-2h-6.3l-.6 2h1.9v4.1h-8.1v-4.1h2l4.9-16.2h6.2l4.9 16.2h1.9zm-27.5 0c.6 0 1.1-.2 1.6-.7.4-.4.7-1 .7-1.6 0-.6-.2-1.1-.7-1.6-.4-.4-1-.7-1.6-.7h-4.1v4.5H93zm-4.1-12.2v3.7H93c.5 0 .9-.2 1.3-.5.4-.4.5-.8.5-1.3s-.2-.9-.5-1.3c-.4-.4-.8-.5-1.3-.5h-4.1zm8.6 5.6c.6.6 1 1.2 1.3 2 .3.7.5 1.5.5 2.4 0 .9-.2 1.7-.5 2.5s-.8 1.4-1.3 2c-.6.6-1.2 1-2 1.3-.8.3-1.6.5-2.5.5H82.8v-4.1h2v-12.2h-2v-4.1H93c.8 0 1.6.2 2.3.5.7.3 1.3.7 1.9 1.3.5.5 1 1.2 1.3 1.9.3.7.5 1.5.5 2.3 0 .7-.1 1.4-.4 2-.4.6-.7 1.2-1.1 1.7zm-28.5-.7h3.5c.7 0 1.3-.2 1.7-.7.5-.5.7-1.1.7-1.7 0-.7-.2-1.3-.7-1.7-.5-.5-1-.7-1.7-.7H69v4.8zm12 7.3v4.1h-8.1v-4.1h1.7l-1.9-3.2H69v3.2h2v4.1h-8.1v-4.1h2v-12.2h-2v-4.1h9.6c.9 0 1.7.2 2.5.6.8.3 1.5.8 2 1.4.6.6 1 1.3 1.4 2 .3.8.5 1.6.5 2.5 0 1-.2 2-.7 2.9-.4.9-1 1.6-1.8 2.2l2.7 4.7H81zm-19.9-16.2v4.1h-2v10.2c0 .9-.2 1.6-.5 2.4-.3.7-.8 1.4-1.3 1.9-.6.6-1.2 1-1.9 1.3-.7.3-1.5.5-2.4.5h-2.8c-.9 0-1.6-.2-2.4-.5-.7-.3-1.4-.8-1.9-1.3-.6-.6-1-1.2-1.3-1.9-.3-.7-.5-1.5-.5-2.4v-10.2h-2v-4.1h8.1v4.1h-2v10.2c0 .6.2 1 .6 1.4.4.4.9.6 1.4.6H53c.6 0 1-.2 1.4-.6.4-.4.6-.9.6-1.4v-10.2h-2v-4.1h8.1zm142.3 33.9c0-.9-.7-1.6-1.6-1.6-.9 0-1.6.7-1.6 1.6 0 .9.7 1.6 1.6 1.6.9 0 1.6-.7 1.6-1.6zm-11.5 3.7v-1.5h-4v-1.6h3.5v-1.5h-3.5v-1.5h4v-1.5h-5.6v7.4h5.6zm-10.3-7.4h-1.8l-1.9 5.2-1.9-5.2h-1.8l3 7.5h1.4l3-7.5zm-12.2 7.4v-7.4h-1.6v7.4h1.6zm-6.5-5.9v-1.5h-6.2v1.5h2.3v5.9h1.6v-5.9h2.3zm-10.4 4.7l-1-1.1c-.6.5-1.1.9-2 .9-1.3 0-2.2-1.1-2.2-2.3 0-1.3.9-2.3 2.2-2.3.7 0 1.3.3 1.9.8l1-1.2c-.7-.7-1.5-1.1-2.9-1.1-2.3 0-3.9 1.7-3.9 3.8 0 2.1 1.6 3.8 3.8 3.8 1.5.1 2.3-.4 3.1-1.3zm-11.5 1.2v-1.5h-4v-1.6h3.5v-1.5H137v-1.5h4v-1.5h-5.6v7.4h5.6zm-10.4 0v-1.5h-3.7v-5.9h-1.6v7.4h5.3zm-10.1 0v-1.5h-3.7v-5.9h-1.6v7.4h5.3zm-12-3.7c0 1.3-.9 2.3-2.2 2.3-1.3 0-2.3-1.1-2.3-2.3 0-1.3.9-2.3 2.2-2.3 1.4 0 2.3 1.1 2.3 2.3zm1.7 0c0-2.1-1.6-3.8-3.9-3.8s-4 1.7-4 3.8c0 2.1 1.6 3.8 3.9 3.8 2.4.1 4-1.7 4-3.8zm-12.1 2.5l-1-1.1c-.6.5-1.1.9-2 .9-1.3 0-2.2-1.1-2.2-2.3 0-1.3.9-2.3 2.2-2.3.7 0 1.3.3 1.9.8l1-1.2c-.7-.7-1.5-1.1-2.9-1.1-2.3 0-3.9 1.7-3.9 3.8 0 2.1 1.6 3.8 3.8 3.8 1.5.1 2.3-.4 3.1-1.3zm-15.2-2.5c0-.9-.7-1.6-1.6-1.6-.9 0-1.6.7-1.6 1.6 0 .9.7 1.6 1.6 1.6.9 0 1.6-.7 1.6-1.6zm112.2-46.4v-.6l4.6 1.2v.6l-4.6-1.2zm0-1.2v-.6l4.6 1.2v.6l-4.6-1.2zm0-1.2v-.6l4.6 1.2v.6l-4.6-1.2zm0-1.3v-.6l4.6 1.2v.6l-4.6-1.2zm0-1.2v-.6l4.6 1.2v.6l-4.6-1.2zm0-1.3v-.6l4.6 1.2v.6l-4.6-1.2zm0-1.2v-.6l4.6 1.2v.6l-4.6-1.2zm0-1.2v-.6l4.6 1.2v.6l-4.6-1.2zm0-1.3v-.6l4.6 1.2v.6l-4.6-1.2zm0-1.2v-.6l4.6 1.2v.6l-4.6-1.2zm3.3-20.7l-1.9-1.3v.1c0 1.2.4 2.3 1 2.7.4.4.9-.3.9-1.5zm-21.4 1.9h8c-.1-2.3-.5-5.6-.8-7.8-.2-1.2-1.3-7.6-2.2-8.6h-2c-.9 1-2 7.3-2.2 8.6-.4 2.2-.8 5.5-.8 7.8zm-.7 3.8v-3.8c0-4.4 2-16.5 3.5-17v-1.5c.1-1.2.5-1.8.8-2.4.1-.1.2-.2.3-.2.1 0 .2.1.3.2.3.6.7 1.3.8 2.4v1.5c1.4.5 3.5 12.7 3.5 17v3.8h-9.2zm0 2.2v-1.2h9.3v1.2h-9.3zm0 2.2v-1.2h9.3v1.2h-9.3zm-67.1-4.1v-11.6c0-.2.1-.3.3-.3s.3.1.3.3v11.6c0 .2-.1.3-.3.3s-.3-.1-.3-.3zm-2 0v-11.6c0-.2.1-.3.3-.3.2 0 .3.1.3.3v11.6c0 .2-.1.3-.3.3-.1 0-.3-.1-.3-.3zm-2 0v-11.6c0-.2.1-.3.3-.3.2 0 .3.1.3.3v11.6c0 .2-.1.3-.3.3-.1 0-.3-.1-.3-.3zm-1.9 0v-11.6c0-.2.1-.3.3-.3.2 0 .3.1.3.3v11.6c0 .2-.1.3-.3.3-.2 0-.3-.1-.3-.3zm-2 0v-11.6c0-.2.1-.3.3-.3.2 0 .3.1.3.3v11.6c0 .2-.1.3-.3.3-.2 0-.3-.1-.3-.3zm-2 0v-11.6c0-.2.1-.3.3-.3.2 0 .3.1.3.3v11.6c0 .2-.1.3-.3.3-.2 0-.3-.1-.3-.3zm-2 0v-11.6c0-.2.1-.3.3-.3.2 0 .3.1.3.3v11.6c0 .2-.1.3-.3.3-.1 0-.3-.1-.3-.3zm-1.9 0v-11.6c0-.2.1-.3.3-.3.2 0 .3.1.3.3v11.6c0 .2-.1.3-.3.3-.2 0-.3-.1-.3-.3zm-2 0v-11.6c0-.2.1-.3.3-.3.2 0 .3.1.3.3v11.6c0 .2-.1.3-.3.3-.2 0-.3-.1-.3-.3zm-2 0v-11.6c0-.2.1-.3.3-.3.2 0 .3.1.3.3v11.6c0 .2-.1.3-.3.3-.2 0-.3-.1-.3-.3zm.9.9H109v2H92.4v-2zm43.9-47.1c0-1.2 1-2.2 2.2-2.2 1.2 0 2.2 1 2.2 2.2 0 1.2-1 2.2-2.2 2.2-1.2-.1-2.2-1-2.2-2.2zm30.5 52.1h-7.8v1.5h7.8v-1.5zm0-1.2h-7.8v-21.7c0-.4.4-.8.8-.8h6.2c.4 0 .8.4.8.8v21.7zm-1.5-29.3V93l-5-8v11.3h5zm.6.6h-6c0 1.7 1.4 3 3 3s3-1.3 3-3zm82.4 54.1h.8l-.8-.4v.4zm-2.3 0h1.2v-1l-1.2-.6v1.6zm-2.3 0h1.2v-2.2l-1.2-.6v2.8zm15.6 19.9v1.2h-5.8v-1.2h5.8zm6.9.3v.8h-5.8v-1.2h5.5l.3.4zm-13.8-31v1.2h-5.8v-1.2h5.8zm6.9 0v1.2h-5.8v-1.2h5.8zm6.9 0v.8l-.3.4h-5.5v-1.2h5.8zm-24.7 8.1l1.2 2.4v-3l-1.2-.6v1.2zm1.6-8.1l-.7 1.2h3v-1.2H243zM34.9 187.6h-.8l.8.4v-.4zm2.3 0H36v1l1.2.6v-1.6zm2.3 0h-1.2v2.2l1.2.6v-2.8zm2.3 0h-1.2v3.4l1.2.6v-4zm2.2 0h-1.2v4.6l1.2.6v-5.2zm2.3 0h-1.2v5.7l1.2.6v-6.3zm2.3 0h-1.2v6.9l1.2.6v-7.5zm2.3 0h-1.2v8.1l1.2.6v-8.7zm2.3 0H52v9.3l1.2.6v-9.9zm-29.3-19.8v-1.2h5.8v1.2h-5.8zm-6.9-.3v-.8h5.8v1.2h-5.5l-.3-.4zm27.7 31v-1.2h5.8v1.2h-5.8zm-7 0v-1.2h5.8v1.2h-5.8zm-6.9 0v-1.2h5.8v1.2h-5.8zm-6.9 0v-1.2h5.8v1.2h-5.8zm-6.9 0v-.8l.3-.4h5.5v1.2H17zm35.9-1.1l2.2 1.2h-3.5v-1.2h1.3zm2.6.4l-.3-.2-.2-8.9-.7-.4v9.8l1.2.6v-.9zm2.3 1.1l-1.2-.5v1l1.2.6v-1.1zm1.9.9l-.8-.4v1.1l.8.4v-1.1zm-24.9-32v-1.2h-4v1.2h4zm182.7 19.8h-2.7c-3.5 5.5-7.5 10.5-12.1 15.1-15.7 15.7-37.3 25.3-61.2 25.3-23.9 0-45.5-9.7-61.2-25.3-4.6-4.6-8.6-9.6-12.1-15.1h-2.7c3.7 6.1 8.1 11.7 13.1 16.7 16.1 16.1 38.3 26 62.8 26s46.7-9.9 62.8-26c5.2-5 9.6-10.6 13.3-16.7zm6.5 0h-2.7c-4 7-9 13.4-14.6 19.1-16.7 16.7-39.7 27-65.2 27s-48.5-10.3-65.2-27c-5.7-5.7-10.6-12.1-14.6-19.1H59c4.3 7.6 9.5 14.6 15.7 20.7 17.1 17.1 40.7 27.7 66.8 27.7s49.7-10.6 66.8-27.7c6.2-6.1 11.4-13.1 15.7-20.7zm25-16.7v1.2h3.2v-1.2H249zM192.9 151h1.6l.1-16.6c0-1.6.6-6.3 1.4-11.9h.1V113l2.6 1.7v7.8h.1c.8 5.6 1.4 10.3 1.4 11.9l.1 16.6h1.6l-.1-16.6c0-1.5-.2-3.2-.4-4.6-.3-2.5-.7-5-1-7.5l-.1-.5v-7.9l-5.9-3.8v11.8l-.1.5c-.4 2.5-.7 5-1 7.5-.2 1.5-.4 3.1-.4 4.6V151zm-18.2 0h1.6v-25h9.3v25h1.6v-34.2-1.7c-.1-2.2-.5-4.5-.8-6.6-.3-2.1-.8-4.2-1.3-6.3-.3-.9-.6-2.4-1.3-3.3v-1c-.1-1.3-.4-2-1-3.1-.3-.7-1-1.1-1.8-1.1-.7 0-1.4.4-1.8 1.1-.6 1.1-.9 1.8-1 3.1V99c-.7.9-1.1 2.4-1.3 3.3-.6 2-1 4.2-1.3 6.3-.3 2.1-.7 4.4-.8 6.6V151zm-18.1 0h1.6v-47.2c0-.4.2-.8.4-1l.1-1.7.3-4.2v-.6h.4V82.7l6.3 10.1v3.5h.6v.6l.3 4.2.1 1.7c.3.3.4.6.4 1V151h1.6v-47.2c0-.6-.2-1.2-.5-1.7 0-.4-.1-.8-.1-1.2l-.3-4.2-.2-2.1h-.4v-2.3L158 77v17.7h-.3l-.2 2.1-.3 4.2c0 .4-.1.8-.1 1.2-.3.5-.5 1-.5 1.7V151zm-30.7 0h5.2v-.5h-3.6v-1.7h3.6v-.6h-3.6v-1.7h3.6v-.6h-3.6v-1.7h3.6v-.6h-3.6v-1.7h5.7v-.6h-5.7v-1.7h3.6v-.6h-3.6v-1.7h3.6v-.6h-3.6V135h3.6v-.6h-3.6v-1.7h3.6v-.6h-3.6v-1.7h8.9v-.6h-8.9v-1.7h3.6v-.6h-3.6v-1.7h3.6v-.6h-3.6v-1.7h3.6v-.6h-3.6v-1.7h3.6v-.6h-3.6v-1.7h5.7v-.6h-5.7v-1.7h3.6v-.6h-3.6v-1.7h3.6v-.6h-3.6V112h3.6v-.6h-3.6V109h3.6v-.6h-3.6v-1.7h8.9v-.7h-8.9v-1.7h3.6v-.6h-3.6V102h3.6v-.6h-3.6v-1.7h3.6V99h-3.6v-1.7h3.6v-.6h-3.6V95h5.7v-.6h-5.7v-1.7h3.6V92h-3.6v-1.7h3.6v-.6h-3.6V88h3.6v-.6h-3.6v-1.7h3.6v-.6h-3.6v-1.7h8.9v-.6h-8.9v-5.3c0-6 4.9-10.9 10.9-10.9s10.9 4.9 10.9 10.9V151h1.6V77.3c0-6.9-5.6-12.5-12.5-12.5s-12.5 5.6-12.5 12.5V151zm-44.8 0h1.6v-21.2c0-1 1.9-2.3 3.4-3.4l1.5-1.1c1.7-1.3 1.7-1.6 3.7-1.6v-2c-.3-.1-.5-.3-.5-.6V109c0-.3.3-.6.6-.6h4.3v-2h1.7c.4-3.4.8-6.8 1.1-10.3.1-.7.4-.7.8-.7h2.6c.4 0 .7 0 .8.7.4 3.4.8 6.8 1.1 10.3h1.7v2h4.3c.3 0 .6.3.6.6v12.2c0 .3-.2.6-.5.6v2c2 0 2 .3 3.7 1.6l1.5 1.1c1.5 1.1 3.4 2.4 3.4 3.4V151h1.6v-21.2c0-2-2.6-3.6-4-4.7l-1.5-1.1c-1.3-1-1.9-1.5-2.9-1.7.2-.3.3-.7.3-1.1V109c0-1.2-1-2.3-2.3-2.3H107v-2h-1.9c-.3-2.9-.7-5.9-1-8.8-.2-1.4-1.1-2.1-2.4-2.1h-2.6c-1.4 0-2.3.7-2.4 2.1-.3 2.9-.7 5.9-1 8.8h-1.9v2h-2.7c-1.2 0-2.3 1-2.3 2.3v12.2c0 .4.1.8.3 1.1-1 .2-1.6.8-2.9 1.7l-1.5 1.1c-1.4 1.1-4 2.7-4 4.7V151zm-27.9 0h2.3c-.3-3.1-.5-6.3-.5-9.5 0-23.9 9.7-45.5 25.3-61.2C96 64.7 117.7 55 141.6 55s45.5 9.7 61.2 25.3c15.7 15.7 25.3 37.3 25.3 61.2 0 3.2-.2 6.4-.5 9.5h2.3c.3-3.1.5-6.3.5-9.5 0-24.5-9.9-46.7-26-62.8-16.1-16.1-38.3-26-62.8-26s-46.7 9.9-62.8 26c-16.1 16.1-26 38.3-26 62.8-.1 3.2.1 6.4.4 9.5zm-5.6 0h2.3c-.3-3.1-.5-6.3-.5-9.5 0-25.4 10.3-48.5 27-65.2 16.7-16.7 39.7-27 65.2-27s48.5 10.3 65.2 27c16.7 16.7 27 39.7 27 65.2 0 3.2-.2 6.4-.5 9.5h2.3c.3-3.1.5-6.3.5-9.5 0-26.1-10.6-49.7-27.7-66.8C191.3 57.6 167.7 47 141.6 47S91.9 57.6 74.8 74.7c-17.1 17.1-27.7 40.7-27.7 66.8 0 3.2.2 6.4.5 9.5zm94-112.3l7.5 4.7 8.2-3.5 6.7 5.8 8.6-2.2 5.8 6.8 8.8-.9 4.7 7.6 8.9.5 3.5 8.2 8.7 1.8 2.2 8.6 8.3 3.2.8 8.8 7.7 4.4-.5 8.9 7 5.5-1.9 8.7 6 6.5-3.2 8.3 5 7.4v.1h24.4l-15.4 18.3 15.4 18.3H249v13.3h-19.3l-1.7 1.1-.2 8.9-8 3.8-1.5 8.8-8.5 2.5-2.8 8.4-8.8 1.2-4.1 7.9-8.9-.2-5.2 7.2-8.8-1.5-6.3 6.3-8.4-2.9-7.2 5.3-7.9-4.1-7.9 4.1-7.2-5.3-8.4 2.9-6.3-6.3-8.8 1.5-5.2-7.2-8.9.2-4.1-7.9-8.8-1.2-2.8-8.4-8.5-2.5-1.5-8.8-3.5-1.6v1.1H14.3l15.4-18.3-15.4-18.3h20.5V151h5.6l2.6-5.6-4.4-7.7 5-7.4-3.2-8.3 6-6.5-1.9-8.7 7-5.5-.5-8.9 7.7-4.4.8-8.8 8.3-3.2 2.2-8.6 8.7-1.8 3.5-8.2 8.9-.5 4.7-7.6 8.8.9 5.8-6.8 8.6 2.2 6.7-5.8 8.2 3.5 7.7-4.6z"/><path clip-path="url(#b)" fill="#00568F" d="M216.9 137.8h35.5v36.6h-35.5z"/><g clip-path="url(#b)" fill="#FFF"><path d="M253.4 140.2h5.8v1.2h-5.8zM260.3 140.2h5.8v1.2h-5.8zM246.5 140.2h5.8v1.2h-5.8zM239.6 140.2h5.8v1.2h-5.8zM232.7 140.2h5.8v1.2h-5.8z"/><path d="M239.6 140.2h5.8v1.2h-5.8zM225.8 140.2h5.8v1.2h-5.8zM218.8 140.2h5.8v1.2h-5.8z"/></g><g clip-path="url(#b)" fill="#FFF"><path d="M253.4 170.9h5.8v1.2h-5.8zM260.3 170.9h5.8v1.2h-5.8zM246.5 170.9h5.8v1.2h-5.8zM239.6 170.9h5.8v1.2h-5.8zM232.7 170.9h5.8v1.2h-5.8z"/><path d="M239.6 170.9h5.8v1.2h-5.8zM225.8 170.9h5.8v1.2h-5.8zM218.8 170.9h5.8v1.2h-5.8z"/></g><defs><path id="c" transform="rotate(-180 40.248 182.588)" d="M14.3 164.3h51.8v36.6H14.3z"/></defs><clipPath id="d"><use xlink:href="#c" overflow="visible"/></clipPath><path clip-path="url(#d)" fill-rule="evenodd" clip-rule="evenodd" fill="#00568F" d="M133 231.2c-.7.7-.7 1.8 0 2.5s1.8.7 2.5 0 .7-1.8 0-2.5-1.8-.7-2.5 0m17.1 2.4c-.7.7-1.8.7-2.5 0s-.7-1.8 0-2.5 1.8-.7 2.5 0 .7 1.9 0 2.5zm-17.9.8c.6.6 1.3.9 2.1.8h.1c1.1 0 2.1.6 2.8 1.3l3.3 3.3c-5.1 4.2-10.2 7.3-9 11l10-10 10 10c1.1-3.7-3.9-6.8-9-11l3.3-3.3c.7-.7 1.7-1.3 2.8-1.3h.1c.8 0 1.5-.3 2.1-.8 1.1-1.1 1.1-2.9 0-4s-2.9-1.1-4 0c-.6.6-.9 1.3-.8 2.1v.1c0 1.1-.5 2.2-1 3-1.1 1.2-2.2 2.3-3.4 3.3-1.2-1-2.4-2.1-3.4-3.3-.6-.8-1.1-1.9-1-3v-.1c0-.8-.3-1.5-.8-2.1-1.1-1.1-2.9-1.1-4 0-1.3 1.1-1.3 2.9-.2 4zm108.7-23.8v1.2h-5.8v-1.2h5.8zm-6.9 0v1.2h-5.8v-1.2h5.8zm-6.9 0v1.2h-5.8v-1.2h5.8zm-7 0v1.2h-5.8v-1.2h5.8zm-6.9 0v1.2h-5.8v-1.2h5.8zm-6.9 0v1.2h-5.8v-1.2h5.8zm-6.9 0v1.2h-5.8v-1.2h5.8zm-6.9 0v1.2h-5.8v-1.2h5.8zm-6.9 0v1.2h-5.8v-1.2h5.8zm-7 0v1.2h-5.8v-1.2h5.8zm-6.9 0v1.2H166v-1.2h5.7zm-6.9 0v1.2H159v-1.2h5.8zm-6.9 0v1.2h-5.8v-1.2h5.8zm-6.9 0v1.2h-5.8v-1.2h5.8zm-6.9 0v1.2h-5.8v-1.2h5.8zm-6.9 0v1.2h-5.8v-1.2h5.8zm-7 0v1.2h-5.8v-1.2h5.8zm-6.9 0v1.2h-5.8v-1.2h5.8zm-6.9 0v1.2h-5.8v-1.2h5.8zm-6.9 0v1.2h-5.8v-1.2h5.8zm-6.9 0v1.2h-5.8v-1.2h5.8zm-6.9 0v1.2h-5.8v-1.2h5.8zm-7 0v1.2H83v-1.2h5.7zm-6.9 0v1.2H76v-1.2h5.8zm-6.9 0v1.2h-5.8v-1.2h5.8zm-6.9 0v1.2h-5.8v-1.2H68zm-6.9 0v1.2h-5.8v-1.2h5.8zm-6.9 0v1.2h-5.8v-1.2h5.8zm-7 0v1.2h-5.8v-1.2h5.8zm-6.9 0v1.2h-5.8v-1.2h5.8zm207.5 0v1.2H242v-1.2h5.8zm-6.9-30.7v1.2h-5.8v-1.2h5.8zm-6.9 0v1.2h-5.8v-1.2h5.8zm-6.9 0v1.2h-5.8v-1.2h5.8zm-7 0v1.2h-5.8v-1.2h5.8zm-6.9 0v1.2h-5.8v-1.2h5.8zm-6.9 0v1.2h-5.8v-1.2h5.8zm-6.9 0v1.2h-5.8v-1.2h5.8zm-6.9 0v1.2h-5.8v-1.2h5.8zm-6.9 0v1.2h-5.8v-1.2h5.8zm-7 0v1.2h-5.8v-1.2h5.8zm-6.9 0v1.2H166v-1.2h5.7zm-6.9 0v1.2H159v-1.2h5.8zm-6.9 0v1.2h-5.8v-1.2h5.8zm-6.9 0v1.2h-5.8v-1.2h5.8zm-6.9 0v1.2h-5.8v-1.2h5.8zm-6.9 0v1.2h-5.8v-1.2h5.8zm-7 0v1.2h-5.8v-1.2h5.8zm-6.9 0v1.2h-5.8v-1.2h5.8zm-6.9 0v1.2h-5.8v-1.2h5.8zm-6.9 0v1.2h-5.8v-1.2h5.8zm-6.9 0v1.2h-5.8v-1.2h5.8zm-6.9 0v1.2h-5.8v-1.2h5.8zm-7 0v1.2H83v-1.2h5.7zm-6.9 0v1.2H76v-1.2h5.8zm-6.9 0v1.2h-5.8v-1.2h5.8zm-6.9 0v1.2h-5.8v-1.2H68zm-6.9 0v1.2h-5.8v-1.2h5.8zm-6.9 0v1.2h-5.8v-1.2h5.8zm-7 0v1.2h-5.8v-1.2h5.8zm-6.9 0v1.2h-5.8v-1.2h5.8zm207.5 0v1.2H242v-1.2h5.8zm-194.5 9.8h-3.5c-.7 0-1.3.2-1.7.7-.5.5-.7 1-.7 1.7s.2 1.3.7 1.7c.5.5 1 .7 1.7.7h3.5v-4.8zM43 201.9l2.7-4.7c-.7-.6-1.3-1.3-1.8-2.2-.4-.9-.7-1.8-.7-2.9 0-.9.2-1.7.5-2.5s.8-1.5 1.4-2c.6-.6 1.3-1 2-1.4.8-.3 1.6-.5 2.5-.6h9.6v4.1h-2v12.2h2v4.1h-8.1v-4.1h2v-3.2h-3.7l-1.9 3.2h1.7v4.1h-8.1v-4.1H43zm32.4-16.2v4.1h-2V202h2v4.1H61.2V200h4.1v2h4.1v-4.1h-4.1v-4.1h4.1v-4.1h-4.1v2h-4.1v-6.1h14.2zm11.6 8.9v-4.9h-3.5c-.7 0-1.3.2-1.7.7-.5.5-.7 1-.7 1.7s.2 1.3.7 1.7c.5.5 1 .7 1.7.7H87zm6.1-8.9v4.1h-2V202h2v4.1H85V202h2v-3.2h-3.5c-.9 0-1.7-.2-2.5-.5s-1.5-.8-2.1-1.4c-.6-.6-1.1-1.3-1.4-2.1-.3-.8-.5-1.6-.5-2.5 0-.9.2-1.7.5-2.5s.8-1.5 1.4-2.1c.6-.6 1.3-1.1 2.1-1.4.8-.3 1.6-.5 2.5-.5h9.6zm13.6 10.1l-1.8-6.1h-.2l-1.8 6.1h3.8zm-9.9 6.1l4.9-16.2h6.2l4.9 16.2h2v4.1h-8.1v-4.1h1.9l-.6-2h-6.3l-.6 2h1.9v4.1h-8.1v-4.1h1.9zm26.1-7.3v-4.9h-3.5c-.7 0-1.3.2-1.7.7-.5.5-.7 1-.7 1.7s.2 1.3.7 1.7c.5.5 1.1.7 1.7.7h3.5zm6.1-8.9v4.1h-2V202h2v4.1h-8.1V202h2v-3.2h-3.5c-.9 0-1.7-.2-2.5-.5s-1.5-.8-2.1-1.4c-.6-.6-1.1-1.3-1.4-2.1-.3-.8-.5-1.6-.5-2.5 0-.9.2-1.7.5-2.5s.8-1.5 1.4-2.1c.6-.6 1.3-1.1 2.1-1.4.8-.3 1.6-.5 2.5-.5h9.6zm19.9 0v4.1h-2v8.6l7.9-12.7h6.1v4.1h-2V202h2v4.1h-8.1V202h2v-8.6l-7.9 12.7h-4.1v-16.2h-2v-4.1h8.1zm25.6 10.1l-1.8-6.1h-.2l-1.8 6.1h3.8zm-9.9 6.1l4.9-16.2h6.2l4.9 16.2h2v4.1h-8.1v-4.1h1.9l-.6-2h-6.3l-.6 2h1.9v4.1h-8.1v-4.1h1.9zm29.6 0v-4.5h-4.1c-.6 0-1.1.2-1.6.7-.4.4-.7 1-.7 1.6 0 .6.2 1.1.7 1.6.4.4 1 .7 1.6.7h4.1zm-4-12.2c-.5 0-.9.2-1.3.5-.4.4-.5.8-.5 1.3s.2.9.5 1.3c.4.4.8.5 1.3.5h4.1v-3.7h-4.1zm-5.6 3.9c-.2-.6-.4-1.3-.4-2 0-.8.2-1.6.5-2.3.3-.7.7-1.3 1.3-1.9.5-.5 1.2-1 1.9-1.3.7-.3 1.5-.5 2.3-.5h10.2v4.1h-2v12.2h2v4.1h-10.2c-.9 0-1.7-.2-2.5-.5s-1.4-.8-2-1.3c-.6-.6-1-1.2-1.3-2-.3-.8-.5-1.6-.5-2.5 0-.9.2-1.6.5-2.4.3-.7.7-1.4 1.3-2-.5-.5-.8-1.1-1.1-1.7zm29.5-3.9h-3.5c-.7 0-1.3.2-1.7.7-.5.5-.7 1-.7 1.7s.2 1.3.7 1.7c.5.5 1 .7 1.7.7h3.5v-4.8zm-10.2 12.2l2.7-4.7c-.7-.6-1.3-1.3-1.8-2.2-.4-.9-.7-1.8-.7-2.9 0-.9.2-1.7.5-2.5s.8-1.5 1.4-2c.6-.6 1.3-1 2-1.4.8-.3 1.6-.5 2.5-.6h9.6v4.1h-2v12.2h2v4.1H212v-4.1h2v-3.2h-3.7l-1.9 3.2h1.7v4.1H202v-4.1h1.9zm26.2-16.2v4.1h-2V200c0 .6.2 1 .6 1.4.4.4.9.6 1.4.6h2.8c.6 0 1-.2 1.4-.6.4-.4.6-.9.6-1.4v-10.2h-2v-4.1h8.1v4.1h-2V200c0 .9-.2 1.6-.5 2.4-.3.7-.8 1.4-1.3 1.9-.6.6-1.2 1-1.9 1.3-.7.3-1.5.5-2.4.5h-2.8c-.8 0-1.6-.2-2.4-.5-.7-.3-1.4-.8-1.9-1.3-.6-.6-1-1.2-1.3-1.9-.3-.7-.5-1.5-.5-2.4v-10.2h-2v-4.1h8.1zM81.3 221.2c.9 0 1.6-.7 1.6-1.6 0-.9-.7-1.6-1.6-1.6-.9 0-1.6.7-1.6 1.6 0 .9.7 1.6 1.6 1.6zm15.6 2.1v-7.4h-5.6v1.5h4v1.5h-3.5v1.5h3.5v1.6h-4v1.5h5.6zm7.6.1h1.4l3-7.5h-1.8l-1.9 5.2-1.9-5.2h-1.8l3 7.5zm10.8-.1v-7.4h-1.6v7.4h1.6zm7.1-5.9v5.9h1.6v-5.9h2.3v-1.5h-6.2v1.5h2.3zm11.3 6.1c2.2 0 3.8-1.7 3.8-3.8 0-2.1-1.6-3.8-3.9-3.8-1.4 0-2.2.5-2.9 1.1l1 1.2c.6-.5 1.2-.8 1.9-.8 1.3 0 2.2 1 2.2 2.3 0 1.3-.9 2.3-2.2 2.3-.8 0-1.4-.3-2-.9l-1 1.1c.8.8 1.6 1.3 3.1 1.3zm14.1-.2v-7.4h-5.6v1.5h4v1.5h-3.5v1.5h3.5v1.6h-4v1.5h5.6zm10 0v-7.4h-1.6v5.9h-3.7v1.5h5.3zm10.1 0v-7.4h-1.6v5.9h-3.7v1.5h5.3zm6.7-3.7c0-1.3.9-2.3 2.3-2.3 1.3 0 2.2 1 2.2 2.3 0 1.3-.9 2.3-2.3 2.3-1.3.1-2.2-1-2.2-2.3zm2.2 3.9c2.3 0 3.9-1.7 3.9-3.8 0-2.1-1.7-3.8-4-3.8s-3.9 1.7-3.9 3.8c.1 2 1.7 3.8 4 3.8zm11.3 0c2.2 0 3.8-1.7 3.8-3.8 0-2.1-1.6-3.8-3.9-3.8-1.4 0-2.2.5-2.9 1.1l1 1.2c.6-.5 1.2-.8 1.9-.8 1.3 0 2.2 1 2.2 2.3 0 1.3-.9 2.3-2.2 2.3-.8 0-1.4-.3-2-.9l-1 1.1c.8.8 1.6 1.3 3.1 1.3zm13.7-2.3c.9 0 1.6-.7 1.6-1.6 0-.9-.7-1.6-1.6-1.6-.9 0-1.6.7-1.6 1.6 0 .9.7 1.6 1.6 1.6zM83.4 174.5v-.6l4.6-1.2v.6l-4.6 1.2zm0-1.3v-.6l4.6-1.2v.6l-4.6 1.2zm0-1.2v-.6l4.6-1.2v.6l-4.6 1.2zm0-1.2v-.6L88 169v.6l-4.6 1.2zm0-1.3v-.6l4.6-1.2v.6l-4.6 1.2zm0-1.2v-.6l4.6-1.2v.6l-4.6 1.2zm0-1.3v-.6l4.6-1.2v.6l-4.6 1.2zm0-1.2v-.6L88 164v.6l-4.6 1.2zm0-1.2v-.6l4.6-1.2v.6l-4.6 1.2zm0-1.3v-.6l4.6-1.2v.6l-4.6 1.2zm2.3-20.4c.5-.3 1-1.5 1-2.7v-.1l-1.9 1.3c-.1 1.2.4 1.9.9 1.5zm19.6-7.4c-.2-1.2-1.3-7.6-2.2-8.6h-1.9c-.9 1-2 7.3-2.2 8.6-.4 2.2-.8 5.5-.8 7.8h8c-.1-2.3-.5-5.6-.9-7.8zm-7.8 11.6v-3.8c0-4.4 2-16.5 3.5-17v-1.5c.1-1.2.5-1.8.8-2.4.1-.1.2-.2.3-.2.1 0 .2.1.3.2.3.6.7 1.3.8 2.4v1.5c1.4.5 3.5 12.7 3.5 17v3.8h-9.2zm0 2.2v-1.2h9.3v1.2h-9.3zm0 2.2v-1.2h9.3v1.2h-9.3zm76.1-3.8c-.2 0-.3-.1-.3-.3v-11.6c0-.2.1-.3.3-.3.2 0 .3.1.3.3v11.6c0 .2-.1.3-.3.3zm2 0c-.2 0-.3-.1-.3-.3v-11.6c0-.2.1-.3.3-.3.2 0 .3.1.3.3v11.6c0 .2-.2.3-.3.3zm2 0c-.2 0-.3-.1-.3-.3v-11.6c0-.2.1-.3.3-.3.2 0 .3.1.3.3v11.6c0 .2-.2.3-.3.3zm1.9 0c-.2 0-.3-.1-.3-.3v-11.6c0-.2.1-.3.3-.3.2 0 .3.1.3.3v11.6c0 .2-.1.3-.3.3zm2 0c-.2 0-.3-.1-.3-.3v-11.6c0-.2.1-.3.3-.3.2 0 .3.1.3.3v11.6c0 .2-.1.3-.3.3zm2 0c-.2 0-.3-.1-.3-.3v-11.6c0-.2.1-.3.3-.3.2 0 .3.1.3.3v11.6c0 .2-.1.3-.3.3zm2 0c-.2 0-.3-.1-.3-.3v-11.6c0-.2.1-.3.3-.3.2 0 .3.1.3.3v11.6c0 .2-.2.3-.3.3zm1.9 0c-.2 0-.3-.1-.3-.3v-11.6c0-.2.1-.3.3-.3.2 0 .3.1.3.3v11.6c0 .2-.1.3-.3.3zm2 0c-.2 0-.3-.1-.3-.3v-11.6c0-.2.1-.3.3-.3.2 0 .3.1.3.3v11.6c0 .2-.1.3-.3.3zm2 0c-.2 0-.3-.1-.3-.3v-11.6c0-.2.1-.3.3-.3.2 0 .3.1.3.3v11.6c0 .2-.1.3-.3.3zm-.6 2.6h-16.6v-2h16.7v2zm-46.1-47c-1.2 0-2.2-1-2.2-2.2 0-1.2 1-2.2 2.2-2.2 1.2 0 2.2 1 2.2 2.2 0 1.3-1 2.2-2.2 2.2zm-28.3 51.4h7.8v-1.5h-7.8v1.5zm0-24.4c0-.4.4-.8.8-.8h6.2c.4 0 .8.4.8.8V152h-7.8v-21.7zm6.5-7.5v-11.3l-5 8v3.3h5zm-2.6 3.7c1.7 0 3-1.4 3-3h-6c0 1.6 1.3 3 3 3zm-85.4 50.6l-.8.4h.8v-.4zm2.3-1.2l-1.2.6v1h1.2v-1.6zm2.3-1.1l-1.2.6v2.2h1.2v-2.8zm-9.8 22.6v1.2h-5.8v-1.2h5.8zm-12.4 0h5.5v1.2H17v-.8l.3-.4zm19.3-30.7v1.2h-5.8v-1.2h5.8zm-6.9 0v1.2h-5.8v-1.2h5.8zm-6.9 0v1.2h-5.5l-.3-.4v-.8h5.8zm19 6.9l-1.2.6v3l1.2-2.4v-1.2zm-4.1-6.9v1.2h3l-.7-1.2h-2.3zm210.5 47.9l.8-.4H248.2v.4zm-2.3 1.1l1.2-.6v-1h-1.2v1.6zm-2.3 1.2l1.2-.6v-2.2h-1.2v2.8zm-2.2 1.2l1.2-.6v-3.4h-1.2v4zm-2.3 1.2l1.2-.6v-4.6h-1.2v5.2zm-2.3 1.2l1.2-.6v-5.7h-1.2v6.3zm-2.3 1.1l1.2-.6v-6.9h-1.2v7.5zm-2.3 1.2l1.2-.6v-8.1h-1.2v8.7zm-2.3 1.2l1.2-.6v-9.3h-1.2v9.9zm23.5-29.7v-1.2h5.8v1.2h-5.8zm12.4 0h-5.5v-1.2h5.8v.8l-.3.4zM232.7 225v-1.2h5.8v1.2h-5.8zm6.9 0v-1.2h5.8v1.2h-5.8zm6.9 0v-1.2h5.8v1.2h-5.8zm6.9 0v-1.2h5.8v1.2h-5.8zm6.9 0v-1.2h5.5l.3.4v.8h-5.8zm-28.8-1.1v1.2H228l2.2-1.2h1.3zm-3.9 1.3l1.2-.6v-9.8l-.7.4-.2 8.9-.3.2v.9zm-2.3 1.2l1.2-.6v-1l-1.2.5v1.1zm-1.9 1l.8-.4v-1.1l-.8.4v1.1zm28.9-33.1v-1.2h-4v1.2h4zM78.7 230.8c16.1 16.1 38.3 26 62.8 26s46.7-9.9 62.8-26c5-5 9.4-10.6 13.1-16.7h-2.7c-3.5 5.5-7.5 10.5-12.1 15.1-15.7 15.7-37.3 25.3-61.2 25.3-23.9 0-45.5-9.7-61.2-25.3-4.6-4.6-8.6-9.6-12.1-15.1h-2.7c3.9 6.1 8.3 11.7 13.3 16.7zm-3.9 4c17.1 17.1 40.7 27.7 66.8 27.7s49.7-10.6 66.8-27.7c6.1-6.1 11.4-13.1 15.7-20.7h-2.7c-4 7-9 13.4-14.6 19.1-16.7 16.7-39.7 27-65.2 27s-48.5-10.3-65.2-27c-5.7-5.7-10.6-12.1-14.6-19.1h-2.7c4.3 7.6 9.5 14.6 15.7 20.7zm-44-37.4v1.2H34v-1.2h-3.2zm59.3-36.5c0-1.5-.2-3.2-.4-4.6-.3-2.5-.7-5-1-7.5l-.1-.5v-11.8l-5.9 3.8v7.9l-.1.5c-.4 2.5-.7 5-1 7.5-.2 1.5-.4 3.1-.4 4.6l-.1 16.6h1.6l.1-16.6c0-1.6.6-6.3 1.4-11.9h.1v-7.8l2.6-1.7v9.5h.1c.8 5.6 1.4 10.3 1.4 11.9l.1 16.6h1.6v-16.5zm18.3-6.8v-10.8V141.6c-.1-2.2-.5-4.5-.8-6.6-.3-2.1-.8-4.2-1.3-6.3-.3-.9-.6-2.4-1.3-3.3v-1c-.1-1.3-.4-2-1-3.1-.3-.7-1-1.1-1.8-1.1-.7 0-1.4.4-1.8 1.1-.6 1.1-.9 1.8-1 3.1v1c-.7.9-1.1 2.4-1.3 3.3-.6 2-1 4.2-1.3 6.3-.3 2.1-.7 4.4-.8 6.6V177.5h1.6v-25.1h9.3v25.1h1.6v-23.4zm18.1-23.8c0-.6-.2-1.2-.5-1.7 0-.4-.1-.8-.1-1.2l-.3-4.2-.2-2.1h-.3v-17.7l-9.6 15.4v2.3h-.4l-.2 2.1-.3 4.2c0 .4-.1.8-.1 1.2-.3.5-.5 1-.5 1.7v47.2h1.6v-47.2c0-.4.2-.8.4-1l.1-1.7.3-4.2v-.6h.6v-3.5l6.3-10.1v13.6h.4v.6l.3 4.2.1 1.7c.3.3.4.6.4 1v47.2h1.6v-47.2zm30.8-7.2v-19.3c0-6.9-5.6-12.5-12.5-12.5s-12.5 5.6-12.5 12.5v73.7h1.6v-73.7c0-6 4.9-10.9 10.9-10.9s10.9 4.9 10.9 10.9v5.3h-8.9v.6h8.9v1.7h-3.6v.6h3.6v1.7h-3.6v.6h3.6v1.7h-3.6v.6h3.6v1.7h-3.6v.6h3.6v1.7H150v.6h5.7v1.7h-3.6v.6h3.6v1.7h-3.6v.6h3.6v1.7h-3.6v.6h3.6v1.7h-3.6v.6h3.6v1.7h-8.9v.6h8.9v1.7h-3.6v.6h3.6v1.7h-3.6v.6h3.6v1.7h-3.6v.6h3.6v1.7h-3.6v.6h3.6v1.7H150v.6h5.7v1.7h-3.6v.6h3.6v1.7h-3.6v.6h3.6v1.7h-3.6v.6h3.6v1.7h-3.6v.6h3.6v1.7h-8.9v.6h8.9v1.7h-3.6v.6h3.6v1.7h-3.6v.6h3.6v1.7h-3.6v.6h3.6v1.7h-3.6v.6h3.6v1.7H150v.6h5.7v1.7h-3.6v.6h3.6v1.7h-3.6v.6h3.6v1.7h-3.6v.6h3.6v1.7h-3.6v.5h5.2v-53.2zm44.7 33.3c0-2-2.6-3.6-4-4.7l-1.5-1.1c-1.3-1-1.9-1.5-2.9-1.7.2-.3.3-.7.3-1.1v-12.2c0-1.2-1-2.3-2.3-2.3H189v-2h-1.9c-.3-2.9-.7-5.9-1-8.8-.2-1.4-1.1-2.1-2.4-2.1h-2.6c-1.4 0-2.3.7-2.4 2.1-.3 2.9-.7 5.9-1 8.8h-1.9v2h-2.7c-1.2 0-2.3 1-2.3 2.3v12.2c0 .4.1.8.3 1.1-1 .2-1.6.8-2.9 1.7l-1.5 1.1c-1.4 1.1-4 2.7-4 4.7v21.2h1.6v-21.2c0-1 1.9-2.3 3.4-3.4l1.5-1.1c1.7-1.3 1.7-1.6 3.7-1.6v-2c-.3-.1-.5-.3-.5-.6v-12.2c0-.3.3-.6.6-.6h4.3v-2h1.7c.4-3.4.8-6.8 1.1-10.3.1-.7.4-.7.8-.7h2.6c.4 0 .7 0 .8.7.4 3.4.8 6.8 1.1 10.3h1.7v2h4.3c.3 0 .6.3.6.6v12.2c0 .3-.2.6-.5.6v2c2 0 2 .3 3.7 1.6l1.5 1.1c1.5 1.1 3.4 2.4 3.4 3.4v21.2h1.6v-21.2zm28.4 11.6c0-24.5-9.9-46.7-26-62.8-16.1-16.1-38.3-26-62.8-26s-46.7 9.9-62.8 26c-16.1 16.1-26 38.3-26 62.8 0 3.2.2 6.4.5 9.5h2.3c-.3-3.1-.5-6.3-.5-9.5 0-23.9 9.7-45.5 25.3-61.2 15.7-15.7 37.3-25.3 61.2-25.3 23.9 0 45.5 9.7 61.2 25.3 15.7 15.7 25.3 37.3 25.3 61.2 0 3.2-.2 6.4-.5 9.5h2.3c.3-3.1.5-6.3.5-9.5zm5.6 0c0-26.1-10.6-49.7-27.7-66.8-17.1-17.1-40.7-27.7-66.8-27.7s-49.7 10.6-66.8 27.7C57.6 118.3 47 141.9 47 168c0 3.2.2 6.4.5 9.5h2.3c-.3-3.1-.5-6.3-.5-9.5 0-25.4 10.3-48.5 27-65.2 16.7-16.7 39.7-27 65.2-27s48.5 10.3 65.2 27c16.7 16.7 27 39.7 27 65.2 0 3.2-.2 6.4-.5 9.5h2.3c.3-3.1.5-6.3.5-9.5zm-86.9-98.1l8.2-3.5 6.7 5.8 8.6-2.2 5.8 6.8 8.8-.9 4.7 7.6 8.9.5 3.5 8.2L213 94l2.2 8.6 8.3 3.2.8 8.8 7.7 4.4-.5 8.9 7 5.5-1.9 8.7 6 6.5-3.2 8.3 5 7.4-4.4 7.7 2.6 5.6h5.6v13.3h20.5l-15.4 18.3 15.4 18.3h-45.4v-1.1l-3.5 1.6-1.5 8.8-8.5 2.5-2.8 8.4-8.8 1.2-4.1 7.9-8.9-.2-5.2 7.2-8.8-1.5-6.3 6.3-8.4-2.9-7.2 5.3-7.9-4.1-7.9 4.1-7.2-5.3-8.4 2.9-6.3-6.3-8.8 1.5-5.2-7.2-8.9.2-4.1-7.9-8.8-1.2-2.8-8.4-8.5-2.5L63 228l-8-3.8-.2-8.9-1.7-1.1h-19v-13.3H14.3l15.4-18.3-15.4-18.3h24.4v-.1l5-7.4-3.2-8.3 6-6.5-1.9-8.7 7-5.5-.5-8.9 7.7-4.4.8-8.8 8.3-3.2 2.2-8.6 8.7-1.8 3.5-8.2 8.9-.5 4.7-7.6 8.8.9 5.8-6.8 8.6 2.2 6.7-5.8 8.2 3.5 7.5-4.7 7.6 4.8z"/><path transform="rotate(-180 48.405 182.588)" clip-path="url(#d)" fill="#00568F" d="M30.6 164.3h35.5v36.6H30.6z"/><g clip-path="url(#d)" fill="#FFF"><path d="M29.689 167.79h-5.8v-1.2h5.8zM22.757 167.79h-5.8v-1.2h5.8zM36.62 167.79h-5.8v-1.2h5.8zM43.552 167.79h-5.8v-1.2h5.8zM50.384 167.79h-5.8v-1.2h5.8z"/><path d="M43.552 167.79h-5.8v-1.2h5.8zM57.316 167.79h-5.8v-1.2h5.8zM64.247 167.79h-5.8v-1.2h5.8z"/></g><g clip-path="url(#d)" fill="#FFF"><path d="M29.689 198.464h-5.8v-1.2h5.8zM22.757 198.464h-5.8v-1.2h5.8zM36.62 198.464h-5.8v-1.2h5.8zM43.552 198.464h-5.8v-1.2h5.8zM50.384 198.464h-5.8v-1.2h5.8z"/><path d="M43.552 198.464h-5.8v-1.2h5.8zM57.316 198.464h-5.8v-1.2h5.8zM64.247 198.464h-5.8v-1.2h5.8z"/></g><defs><path id="e" d="M34.9 187.6h41.3v19.9z"/></defs><clipPath id="f"><use xlink:href="#e" overflow="visible"/></clipPath><path clip-path="url(#f)" fill-rule="evenodd" clip-rule="evenodd" fill="#FFF" d="M27.9 173.1h46.9v44.8H27.9z"/><g clip-path="url(#f)" fill-rule="evenodd" clip-rule="evenodd" fill="#00568F"><path d="M54.3 179.9h-1.1v21.9l1.1.6zM56.6 179.9h-1.1V203l1.1.6zM58.9 179.9h-1.2v24.3l1.2.6zM61.2 179.9H60v25.4l1.2.6zM63.5 179.9h-1.2v26.6l1.2.6zM65.8 179.9h-1.2v27.8l1.2.6zM68 179.9h-1.1v29l1.1.6zM36 179.9h-1.1v20.7l1.1.6zM38.3 179.9h-1.1v21.9l1.1.6zM40.6 179.9h-1.2V203l1.2.6zM42.9 179.9h-1.2v24.3l1.2.6zM45.2 179.9H44v25.4l1.2.6zM47.5 179.9h-1.2v26.6l1.2.6zM49.7 179.9h-1.1v27.8l1.1.6zM52 179.9h-1.1v29l1.1.6z"/></g><g><defs><path id="g" d="M249 151.1h-41.3v-22.7z"/></defs><clipPath id="h"><use xlink:href="#g" overflow="visible"/></clipPath><path clip-path="url(#h)" fill-rule="evenodd" clip-rule="evenodd" fill="#FFF" d="M206.7 124.6h74.9v38.6h-74.9z"/><g clip-path="url(#h)" fill-rule="evenodd" clip-rule="evenodd" fill="#00568F"><path d="M229.6 158.8h1.1v-21.9l-1.1-.6zM227.3 158.8h1.2v-23.1l-1.2-.6zM225 158.8h1.2v-24.3l-1.2-.6zM222.7 158.8h1.2v-25.4l-1.2-.6zM220.4 158.8h1.2v-26.6l-1.2-.6zM218.2 158.8h1.1V131l-1.1-.6zM215.9 158.8h1.1v-29l-1.1-.6zM247.9 158.8h1.1v-20.7l-1.1-.6zM245.6 158.8h1.2v-21.9l-1.2-.6zM243.3 158.8h1.2v-23.1l-1.2-.6zM241 158.8h1.2v-24.3l-1.2-.6zM238.7 158.8h1.2v-25.4l-1.2-.6zM236.5 158.8h1.1v-26.6l-1.1-.6zM234.2 158.8h1.1V131l-1.1-.6zM231.9 158.8h1.1v-29l-1.1-.6z"/></g></g><g><path fill-rule="evenodd" clip-rule="evenodd" fill="#00568F" d="M240.1 145.8l4.4-7.7-4.9-7.4 3-8.2-6-6.5 1.8-8.7-6.9-5.5.5-8.9-7.7-4.4-.9-8.8-8-3.3-2.1-8.6-8.7-1.9-3.4-8.2-8.9-.5-4.6-7.6-8.9.8-5.7-6.7-8.7 2.2-6.7-5.9-8.2 3.5-7.5-4.7-7.5 4.6-8.2-3.5-6.8 5.8-8.6-2.2-5.8 6.7-8.8-.9-4.8 7.6-9 1-3.4 7.6-8.7 2.3-2.3 8.2-8.1 3.6-1.1 8.4-7.5 4.7.2 8.6-6.9 6 1.8 8.7-6 6.5 3.2 8.3-5 7.3 4.4 7.7-3.7 7.3v.1l5.5 7-2.6 8.5 6.5 6-1.2 8.8 7.3 5 .2 8.9 8.1 4.3 1.6 8.9 8.5 2.5 2.8 8.4 8.8 1.2 4 7.9 8.9-.2 5.3 7.1 8.7-1.5 6.3 6.3 8.4-2.9 7.2 5.3 7.9-4.1 7.8 4.1 7.2-5.3 8.4 2.9 6.3-6.3 8.7 1.5 5.3-7.1 8.9.2 4-7.9 8.9-1.2 2.8-8.4 8.5-2.5 1.5-8.8 8.1-3.8.1-8.9 7.4-5-1.2-8.8 6.5-6-2.5-8.5 5.6-6.9z"/></g><g fill-rule="evenodd" clip-rule="evenodd" fill="#FFFDFC"><path d="M109.2 120.9v-11.6c0-.2.1-.3.3-.3.2 0 .3.1.3.3v11.6c0 .2-.1.3-.3.3-.2 0-.3-.1-.3-.3zM107.2 120.9v-11.6c0-.2.1-.3.3-.3.2 0 .3.1.3.3v11.6c0 .2-.1.3-.3.3-.1 0-.3-.1-.3-.3zM105.2 120.9v-11.6c0-.2.1-.3.3-.3.2 0 .3.1.3.3v11.6c0 .2-.1.3-.3.3-.1 0-.3-.1-.3-.3zM103.3 120.9v-11.6c0-.2.1-.3.3-.3.2 0 .3.1.3.3v11.6c0 .2-.1.3-.3.3-.2 0-.3-.1-.3-.3zM101.3 120.9v-11.6c0-.2.1-.3.3-.3.2 0 .3.1.3.3v11.6c0 .2-.1.3-.3.3-.2 0-.3-.1-.3-.3zM99.3 120.9v-11.6c0-.2.1-.3.3-.3.2 0 .3.1.3.3v11.6c0 .2-.1.3-.3.3-.2 0-.3-.1-.3-.3zM97.3 120.9v-11.6c0-.2.1-.3.3-.3.2 0 .3.1.3.3v11.6c0 .2-.1.3-.3.3-.1 0-.3-.1-.3-.3zM95.4 120.9v-11.6c0-.2.1-.3.3-.3.2 0 .3.1.3.3v11.6c0 .2-.1.3-.3.3-.2 0-.3-.1-.3-.3zM93.4 120.9v-11.6c0-.2.1-.3.3-.3.2 0 .3.1.3.3v11.6c0 .2-.1.3-.3.3-.2 0-.3-.1-.3-.3zM91.4 120.9v-11.6c0-.2.1-.3.3-.3.2 0 .3.1.3.3v11.6c0 .2-.1.3-.3.3-.2 0-.3-.1-.3-.3zM92.3 121.8h16.6v2H92.3z"/><path d="M81.1 151h1.6v-21.2c0-1 1.9-2.3 3.4-3.4l1.5-1.1c1.7-1.3 1.7-1.6 3.7-1.6v-2c-.3-.1-.5-.3-.5-.6V109c0-.3.3-.6.6-.6h4.3v-2h1.7c.4-3.4.8-6.8 1.1-10.3.1-.7.4-.7.8-.7h2.6c.4 0 .7 0 .8.7.4 3.4.8 6.8 1.1 10.3h1.7v2h4.3c.3 0 .6.3.6.6v12.2c0 .3-.2.6-.5.6v2c2 0 2 .3 3.7 1.6l1.5 1.1c1.5 1.1 3.4 2.4 3.4 3.4V151h1.6v-21.2c0-2-2.6-3.6-4-4.7l-1.5-1.1c-1.3-1-1.9-1.5-2.9-1.7.2-.3.3-.7.3-1.1V109c0-1.2-1-2.3-2.3-2.3H107v-2h-1.9c-.3-2.9-.7-5.9-1-8.8-.2-1.4-1.1-2.1-2.4-2.1h-2.6c-1.4 0-2.3.7-2.4 2.1-.3 2.9-.7 5.9-1 8.8h-1.9v2h-2.7c-1.3 0-2.3 1-2.3 2.3v12.2c0 .4.1.8.3 1.1-1 .2-1.6.8-2.9 1.7l-1.5 1.1c-1.4 1.1-4 2.7-4 4.7V151z"/></g><circle fill-rule="evenodd" clip-rule="evenodd" fill="#FFFDFC" cx="138.4" cy="74.7" r="2.2"/><path fill-rule="evenodd" clip-rule="evenodd" fill="#FFFDFC" d="M125.9 151h5.2v-.5h-3.6v-1.7h3.6v-.6h-3.6v-1.7h3.6v-.6h-3.6v-1.7h3.6v-.6h-3.6v-1.7h5.7v-.6h-5.7v-1.7h3.6v-.6h-3.6v-1.7h3.6v-.6h-3.6V135h3.6v-.6h-3.6v-1.7h3.6v-.6h-3.6v-1.7h8.9v-.6h-8.9v-1.7h3.6v-.6h-3.6v-1.7h3.6v-.6h-3.6v-1.7h3.6v-.6h-3.6v-1.7h3.6v-.6h-3.6v-1.7h5.7v-.6h-5.7v-1.7h3.6v-.6h-3.6v-1.7h3.6v-.6h-3.6V112h3.6v-.6h-3.6V109h3.6v-.6h-3.6v-1.7h8.9v-.7h-8.9v-1.7h3.6v-.6h-3.6V102h3.6v-.6h-3.6v-1.7h3.6V99h-3.6v-1.7h3.6v-.6h-3.6V95h5.7v-.6h-5.7v-1.7h3.6V92h-3.6v-1.7h3.6v-.6h-3.6V88h3.6v-.6h-3.6v-1.7h3.6v-.6h-3.6v-1.7h8.9v-.6h-8.9v-5.3c0-6 4.9-10.9 10.9-10.9s10.9 4.9 10.9 10.9V151h1.6V77.3c0-6.9-5.6-12.5-12.5-12.5s-12.5 5.6-12.5 12.5V151z"/><g fill-rule="evenodd" clip-rule="evenodd" fill="#FFFDFC"><path d="M158.9 126.8h7.8v1.5h-7.8zM166.7 125.6h-7.8v-21.7c0-.4.4-.8.8-.8h6.2c.4 0 .8.4.8.8v21.7zM165.2 96.3V93l-5-8v11.3zM165.8 96.9h-6c0 1.7 1.4 3 3 3 1.7.1 3-1.3 3-3z"/><path d="M156.6 151h1.6v-47.2c0-.4.2-.8.4-1l.1-1.7.3-4.2v-.6h.4V82.7l6.3 10.1v3.5h.6v.6l.3 4.2.1 1.7c.3.3.4.6.4 1V151h1.6v-47.2c0-.6-.2-1.2-.5-1.7 0-.4-.1-.8-.1-1.2l-.3-4.2-.2-2.1h-.4v-2.3L158 77v17.7h-.3l-.2 2.1-.3 4.2c0 .4-.1.8-.1 1.2-.3.5-.5 1-.5 1.7V151z"/></g><g fill="#FFFDFC"><path d="M180 100.6c-.9 1.2-2 7.2-2.2 8.4-.4 2.2-.8 5.4-.8 7.7h8c-.1-2.3-.5-5.5-.8-7.7-.2-1.2-1.3-7.3-2.2-8.4h-2z"/><path d="M186.4 108.8c-.3-2.1-1-4.3-1.6-6.4-.3-.9-.4-2.5-1.6-3.4v-.9l.2-.1c-.1-1.3-.3-2-.9-3.1-.3-.7-.9-1.1-1.7-1.1-.7 0-1.4.4-1.7 1.1-.6 1.1-.7 1.8-.8 3.1l.2.1v.9c-1.2.9-1.3 2.4-1.6 3.3-.6 2-1.1 4.4-1.4 6.5-.3 2.1-.8 4.5-.9 6.8h.4v35.8h1.2V126h9.2v25.4h1.2v-34.5-1.3h.5c0-2.3-.4-4.7-.7-6.8zm-5.6-13.2c.1 0 .1.1.1.2h-.2c.1-.1 0-.2.1-.2zm4.7 29.2h-9.2v-1.2h9.2v1.2zm0-2.3h-9.2v-1.2h9.2v1.2zm0-2.3h-9.2v-3.4c0-4.4 2-16.2 3.5-17.4v-1.2c0-1.2 0-1.8 1.2-2.4 1.2.6 1.2 1.3 1.2 2.4v1.2c1.4 1.2 3.4 13 3.4 17.4v3.4z"/><path d="M174.7 115.6h1v35.7h-1zM186.2 115.6h1v35.7h-1z"/></g><path fill-rule="evenodd" clip-rule="evenodd" fill="#FFFDFC" d="M142.5 213.3l3.3-3.3c.7-.7 1.7-1.2 2.8-1.2l.1.1c.8 0 1.5-.3 2.1-.9 1.1-1.1 1.1-3 0-4.1-1.1-1.1-2.8-1.1-3.9 0-.6.6-.7 1.3-.7 2.1l-.2.1c0 1.1-.6 2.2-1.1 3-1.1 1.2-2.3 2.3-3.5 3.3-1.2-1-2.4-2.1-3.4-3.3-.6-.8-1.1-1.9-1-3v-.1c0-.8-.3-1.5-.9-2.1-1.1-1.1-2.9-1.1-4 0s-1.1 2.9 0 4c.6.6 1.3.9 2.1.8h.1c1.1 0 2.1.6 2.8 1.3l3.3 3.3c-5.1 4.2-10.2 7.3-9 11l10-10 10 10c1.3-3.7-3.8-6.7-8.9-11zm5.1-8.6c.7-.7 1.8-.7 2.5 0s.7 1.8 0 2.5-1.8.7-2.5 0-.7-1.9 0-2.5zm-12.1 2.4c-.7.7-1.8.7-2.5 0s-.7-1.8 0-2.5 1.8-.7 2.5 0 .7 1.9 0 2.5z"/><g><path fill="#FFF" d="M141.5 54.8c48 0 87.1 39.1 87.1 87.1S189.5 229 141.5 229s-87.1-39.1-87.1-87.1 39-87.1 87.1-87.1m0-2c-49.2 0-89.1 39.9-89.1 89.1S92.3 231 141.5 231s89.1-39.9 89.1-89.1-39.9-89.1-89.1-89.1z"/></g><g><path fill="#FFF" d="M141.5 49.5c51 0 92.4 41.5 92.4 92.4s-41.5 92.4-92.4 92.4S49 192.9 49 141.9s41.5-92.4 92.5-92.4m0-2C89.3 47.5 47 89.7 47 141.9s42.3 94.4 94.4 94.4 94.4-42.3 94.4-94.4-42.2-94.4-94.3-94.4z"/></g><g fill-rule="evenodd" clip-rule="evenodd"><circle fill="#FFFDFC" cx="201.8" cy="193.1" r="1.6"/><path fill="#FFFDFC" d="M191.9 196.8v-1.4h-4v-1.6h3.5v-1.4h-3.5v-1.5h3.9v-1.5h-5.6v7.4zM181.6 189.4h-1.8l-1.9 5.2-2-5.2h-1.8l3 7.5h1.5zM167.8 189.4h1.6v7.4h-1.6zM162.9 190.9v-1.5h-6.1v1.5h2.2v5.9h1.7v-5.9zM152.5 195.6l-1-1.1c-.6.5-1.1.9-2 .9-1.3 0-2.2-1.1-2.2-2.3 0-1.3.9-2.3 2.2-2.3.7 0 1.3.3 1.9.8l1-1.2c-.7-.7-1.5-1.1-2.9-1.1-2.3 0-3.9 1.7-3.9 3.8 0 2.1 1.6 3.8 3.8 3.8 1.5.1 2.3-.4 3.1-1.3zM141 196.8v-1.4h-4v-1.6h3.5v-1.4H137v-1.5h4v-1.5h-5.6v7.4zM130.6 196.8v-1.4h-3.7v-6h-1.6v7.4zM120.5 196.8v-1.4h-3.7v-6h-1.6v7.4z"/><path fill="#FFF" d="M110.2 193.1c0-2.1-1.6-3.8-3.9-3.8s-4 1.7-4 3.8c0 2.1 1.6 3.8 3.9 3.8 2.4.1 4-1.7 4-3.8z"/><path fill="#00568F" d="M108.5 193.1c0 1.3-.9 2.3-2.2 2.3-1.3 0-2.3-1.1-2.3-2.3 0-1.3.9-2.3 2.2-2.3 1.4 0 2.3 1.1 2.3 2.3z"/><path fill="#FFFDFC" d="M98.1 195.6l-1-1.1c-.6.5-1.1.9-2 .9-1.3 0-2.2-1.1-2.2-2.3 0-1.3.9-2.3 2.2-2.3.7 0 1.3.3 1.9.8l1-1.2c-.7-.7-1.5-1.1-2.9-1.1-2.3 0-3.9 1.7-3.9 3.8 0 2.1 1.6 3.8 3.8 3.8 1.5.1 2.3-.4 3.1-1.3z"/><circle fill="#FFFDFC" cx="81.3" cy="193.1" r="1.6"/></g><g><defs><path id="i" d="M34.9 151.1h214.2v36.6H34.9z"/></defs><defs><path id="k" d="M34.9 151.1h214.2v36.6H34.9z"/></defs><use xlink:href="#i" overflow="visible" fill="#FFF"/><clipPath id="j"><use xlink:href="#i" overflow="visible"/></clipPath><clipPath id="l" clip-path="url(#j)"><use xlink:href="#k" overflow="visible"/></clipPath><path clip-path="url(#l)" fill-rule="evenodd" clip-rule="evenodd" fill="#00568F" d="M150.2 204.7c-.7-.7-1.8-.7-2.5 0s-.7 1.8 0 2.5 1.8.7 2.5 0 .7-1.8 0-2.5m-17.1 0c.7-.7 1.8-.7 2.5 0s.7 1.8 0 2.5-1.8.7-2.5 0-.7-1.8 0-2.5zm17.9-.8c-1.1-1.1-2.9-1.1-4 0-.6.6-.9 1.3-.8 2.1v.1c0 1.1-.5 2.2-1 3-1.1 1.2-2.2 2.3-3.4 3.3-1.2-1-2.4-2.1-3.4-3.3-.6-.8-1.1-1.9-1-3v-.1c0-.8-.3-1.5-.8-2.1-1.1-1.1-2.9-1.1-4 0s-1.1 2.9 0 4c.6.6 1.3.9 2.1.8h.1c1.1 0 2.1.6 2.8 1.3l3.3 3.3c-5.1 4.2-10.2 7.3-9 11l10-10 10 10c1.1-3.7-3.9-6.8-9-11l3.3-3.3c.7-.7 1.7-1.3 2.8-1.3h.1c.8 0 1.5-.3 2.1-.8.9-1.1.9-2.9-.2-4zM48.1 184.1v1.2h-5.8v-1.2h5.8zm6.9 0v1.2h-5.8v-1.2H55zm6.9 0v1.2h-5.8v-1.2h5.8zm6.9 0v1.2H63v-1.2h5.8zm6.9 0v1.2H70v-1.2h5.7zm6.9 0v1.2h-5.8v-1.2h5.8zm6.9 0v1.2h-5.8v-1.2h5.8zm7 0v1.2h-5.8v-1.2h5.8zm6.9 0v1.2h-5.8v-1.2h5.8zm6.9 0v1.2h-5.8v-1.2h5.8zm6.9 0v1.2h-5.8v-1.2h5.8zm6.9 0v1.2h-5.8v-1.2h5.8zm6.9 0v1.2h-5.8v-1.2h5.8zm7 0v1.2h-5.8v-1.2h5.8zm6.9 0v1.2h-5.8v-1.2h5.8zm6.9 0v1.2H146v-1.2h5.8zm6.9 0v1.2h-5.8v-1.2h5.8zm6.9 0v1.2h-5.8v-1.2h5.8zm6.9 0v1.2h-5.8v-1.2h5.8zm7 0v1.2h-5.8v-1.2h5.8zm6.9 0v1.2h-5.8v-1.2h5.8zm6.9 0v1.2h-5.8v-1.2h5.8zm6.9 0v1.2h-5.8v-1.2h5.8zm6.9 0v1.2h-5.8v-1.2h5.8zm6.9 0v1.2h-5.8v-1.2h5.8zm6.9 0v1.2h-5.8v-1.2h5.8zm7 0v1.2h-5.8v-1.2h5.8zm6.9 0v1.2H229v-1.2h5.8zm6.9 0v1.2h-5.8v-1.2h5.8zm6.9 0v1.2h-5.8v-1.2h5.8zm-207.5 0v1.2h-5.8v-1.2h5.8zm7-30.7v1.2h-5.8v-1.2h5.8zm6.9 0v1.2h-5.8v-1.2H55zm6.9 0v1.2h-5.8v-1.2h5.8zm6.9 0v1.2H63v-1.2h5.8zm6.9 0v1.2H70v-1.2h5.7zm6.9 0v1.2h-5.8v-1.2h5.8zm6.9 0v1.2h-5.8v-1.2h5.8zm7 0v1.2h-5.8v-1.2h5.8zm6.9 0v1.2h-5.8v-1.2h5.8zm6.9 0v1.2h-5.8v-1.2h5.8zm6.9 0v1.2h-5.8v-1.2h5.8zm6.9 0v1.2h-5.8v-1.2h5.8zm6.9 0v1.2h-5.8v-1.2h5.8zm7 0v1.2h-5.8v-1.2h5.8zm6.9 0v1.2h-5.8v-1.2h5.8zm6.9 0v1.2H146v-1.2h5.8zm6.9 0v1.2h-5.8v-1.2h5.8zm6.9 0v1.2h-5.8v-1.2h5.8zm6.9 0v1.2h-5.8v-1.2h5.8zm7 0v1.2h-5.8v-1.2h5.8zm6.9 0v1.2h-5.8v-1.2h5.8zm6.9 0v1.2h-5.8v-1.2h5.8zm6.9 0v1.2h-5.8v-1.2h5.8zm6.9 0v1.2h-5.8v-1.2h5.8zm6.9 0v1.2h-5.8v-1.2h5.8zm6.9 0v1.2h-5.8v-1.2h5.8zm7 0v1.2h-5.8v-1.2h5.8zm6.9 0v1.2H229v-1.2h5.8zm6.9 0v1.2h-5.8v-1.2h5.8zm6.9 0v1.2h-5.8v-1.2h5.8zm-207.5 0v1.2h-5.8v-1.2h5.8zm188.8 14.7h3.5c.7 0 1.3-.2 1.7-.7.5-.5.7-1.1.7-1.7 0-.7-.2-1.3-.7-1.7-.5-.5-1-.7-1.7-.7h-3.5v4.8zm12 7.4v4.1h-8.1v-4.1h1.7l-1.9-3.2h-3.7v3.2h2v4.1h-8.1v-4.1h2v-12.2h-2v-4.1h9.6c.9 0 1.7.2 2.5.6.8.3 1.5.8 2 1.4.6.6 1 1.3 1.4 2 .3.8.5 1.6.5 2.5 0 1-.2 2-.7 2.9-.4.9-1 1.6-1.8 2.2l2.7 4.7h1.9zM222 159.2v6.1h-4.1v-2h-4.1v4.1h4.1v4.1h-4.1v4.1h4.1v-2h4.1v6.1h-14.2v-4.1h2v-12.2h-2v-4.1H222zm-22.3 8.9c.7 0 1.3-.2 1.7-.7.5-.5.7-1.1.7-1.7 0-.7-.2-1.3-.7-1.7-.5-.5-1-.7-1.7-.7h-3.5v4.9h3.5zm0-8.9c.9 0 1.7.2 2.5.5s1.5.8 2.1 1.4c.6.6 1.1 1.3 1.4 2.1.3.8.5 1.6.5 2.5 0 .9-.2 1.8-.5 2.5-.3.8-.8 1.5-1.4 2.1-.6.6-1.3 1.1-2.1 1.4-.8.3-1.6.5-2.5.5h-3.5v3.2h2v4.1h-8.1v-4.1h2v-12.2h-2v-4.1h9.6zm-19.4 10.2l-1.8-6.1h-.2l-1.8 6.1h3.8zm8 6.1v4.1h-8.1v-4.1h1.9l-.6-2h-6.3l-.6 2h1.9v4.1h-8.1v-4.1h2l4.9-16.2h6.2l4.9 16.2h1.9zm-24.5-7.4c.7 0 1.3-.2 1.7-.7.5-.5.7-1.1.7-1.7 0-.7-.2-1.3-.7-1.7-.5-.5-1.1-.7-1.7-.7h-3.5v4.9h3.5zm0-8.9c.9 0 1.7.2 2.5.5s1.5.8 2.1 1.4c.6.6 1.1 1.3 1.4 2.1.3.8.5 1.6.5 2.5 0 .9-.2 1.8-.5 2.5-.3.8-.8 1.5-1.4 2.1-.6.6-1.3 1.1-2.1 1.4-.8.3-1.6.5-2.5.5h-3.5v3.2h2v4.1h-8.1v-4.1h2v-12.2h-2v-4.1h9.6zm-21.4 0v4.1h-2v16.2h-4.1l-7.9-12.7v8.6h2v4.1h-8.1v-4.1h2v-12.2h-2v-4.1h6.1l7.9 12.7v-8.6h-2v-4.1h8.1zm-29.9 10.2l-1.8-6.1h-.2l-1.8 6.1h3.8zm8 6.1v4.1h-8.1v-4.1h1.9l-.6-2h-6.3l-.6 2h1.9v4.1h-8.1v-4.1h2l4.9-16.2h6.2l4.9 16.2h1.9zm-27.5 0c.6 0 1.1-.2 1.6-.7.4-.4.7-1 .7-1.6 0-.6-.2-1.1-.7-1.6-.4-.4-1-.7-1.6-.7h-4v4.5h4zm-4-12.2v3.7h4c.5 0 .9-.2 1.3-.5.4-.4.5-.8.5-1.3s-.2-.9-.5-1.3c-.4-.4-.8-.5-1.3-.5h-4zm8.6 5.6c.6.6 1 1.2 1.3 2 .3.7.5 1.5.5 2.4 0 .9-.2 1.7-.5 2.5s-.8 1.4-1.3 2c-.6.6-1.2 1-2 1.3-.8.3-1.6.5-2.5.5H82.9v-4.1h2v-12.2h-2v-4.1H93c.8 0 1.6.2 2.3.5.7.3 1.3.7 1.9 1.3.5.5 1 1.2 1.3 1.9.3.7.5 1.5.5 2.3 0 .7-.1 1.4-.4 2-.3.6-.6 1.1-1 1.7zm-28.5-.8h3.5c.7 0 1.3-.2 1.7-.7.5-.5.7-1.1.7-1.7 0-.7-.2-1.3-.7-1.7-.5-.5-1-.7-1.7-.7h-3.5v4.8zm12 7.4v4.1H73v-4.1h1.7l-1.9-3.2h-3.7v3.2h2v4.1H63v-4.1h2v-12.2h-2v-4.1h9.6c.9 0 1.7.2 2.5.6.8.3 1.5.8 2 1.4.6.6 1 1.3 1.4 2 .3.8.5 1.6.5 2.5 0 1-.2 2-.7 2.9-.4.9-1 1.6-1.8 2.2l2.7 4.7h1.9zm-19.9-16.3v4.1h-2v10.2c0 .9-.2 1.6-.5 2.4-.3.7-.8 1.4-1.3 1.9-.6.6-1.2 1-1.9 1.3-.7.3-1.5.5-2.4.5h-2.8c-.9 0-1.6-.2-2.4-.5-.7-.3-1.4-.8-1.9-1.3-.6-.6-1-1.2-1.3-1.9-.3-.7-.5-1.5-.5-2.4v-10.2h-2v-4.1h8.1v4.1h-2v10.2c0 .6.2 1 .6 1.4.4.4.9.6 1.4.6H53c.6 0 1-.2 1.4-.6.4-.4.6-.9.6-1.4v-10.2h-2v-4.1h8.2zm142.2 33.9c0-.9-.7-1.6-1.6-1.6-.9 0-1.6.7-1.6 1.6 0 .9.7 1.6 1.6 1.6.9 0 1.6-.7 1.6-1.6zm-11.4 3.8v-1.5h-4v-1.6h3.5v-1.5H188v-1.5h4v-1.5h-5.6v7.4h5.6zm-10.4-7.5h-1.8l-1.9 5.2-1.9-5.2h-1.8l3 7.5h1.4l3-7.5zm-12.1 7.5v-7.4h-1.6v7.4h1.6zm-6.5-6v-1.5h-6.2v1.5h2.3v5.9h1.6v-5.9h2.3zm-10.4 4.8l-1-1.1c-.6.5-1.1.9-2 .9-1.3 0-2.2-1.1-2.2-2.3 0-1.3.9-2.3 2.2-2.3.7 0 1.3.3 1.9.8l1-1.2c-.7-.7-1.5-1.1-2.9-1.1-2.3 0-3.9 1.7-3.9 3.8 0 2.1 1.6 3.8 3.8 3.8 1.5 0 2.3-.5 3.1-1.3zm-11.5 1.2v-1.5h-4v-1.6h3.5v-1.5H137v-1.5h4v-1.5h-5.6v7.4h5.7zm-10.4 0v-1.5H127v-5.9h-1.6v7.4h5.3zm-10.1 0v-1.5h-3.7v-5.9h-1.6v7.4h5.3zm-12-3.7c0 1.3-.9 2.3-2.2 2.3-1.3 0-2.3-1.1-2.3-2.3 0-1.3.9-2.3 2.2-2.3 1.4-.1 2.3 1 2.3 2.3zm1.7-.1c0-2.1-1.6-3.8-3.9-3.8s-4 1.7-4 3.8c0 2.1 1.6 3.8 3.9 3.8 2.3.1 4-1.6 4-3.8zm-12.1 2.6l-1-1.1c-.6.5-1.1.9-2 .9-1.3 0-2.2-1.1-2.2-2.3 0-1.3.9-2.3 2.2-2.3.7 0 1.3.3 1.9.8l1-1.2c-.7-.7-1.5-1.1-2.9-1.1-2.3 0-3.9 1.7-3.9 3.8 0 2.1 1.6 3.8 3.8 3.8 1.4 0 2.3-.5 3.1-1.3zM83 193.1c0-.9-.7-1.6-1.6-1.6-.9 0-1.6.7-1.6 1.6 0 .9.7 1.6 1.6 1.6.9 0 1.6-.7 1.6-1.6zm112.2-46.3v-.6l4.6 1.2v.6l-4.6-1.2zm0-1.3v-.6l4.6 1.2v.6l-4.6-1.2zm0-1.2v-.6l4.6 1.2v.6l-4.6-1.2zm0-1.3v-.6l4.6 1.2v.6l-4.6-1.2zm0-1.2v-.6l4.6 1.2v.6l-4.6-1.2zm0-1.2v-.6l4.6 1.2v.6l-4.6-1.2zm0-1.3v-.6l4.6 1.2v.6l-4.6-1.2zm0-1.2v-.6l4.6 1.2v.6l-4.6-1.2zm0-1.3v-.6l4.6 1.2v.6l-4.6-1.2zm0-1.2v-.6l4.6 1.2v.6l-4.6-1.2zm3.2-20.6l-1.9-1.3v.1c0 1.2.4 2.3 1 2.7.5.3.9-.4.9-1.5zm-21.4 1.8h8c-.1-2.3-.5-5.6-.8-7.8-.2-1.2-1.3-7.6-2.2-8.6h-1.9c-.9 1-2 7.3-2.2 8.6-.4 2.2-.8 5.5-.9 7.8zm-.6 3.8v-3.8c0-4.4 2-16.5 3.5-17v-1.5c.1-1.2.5-1.8.8-2.4.1-.1.2-.2.3-.2.1 0 .2.1.3.2.3.6.7 1.3.8 2.4v1.5c1.4.5 3.5 12.7 3.5 17v3.8h-9.2zm0 2.2v-1.2h9.3v1.2h-9.3zm0 2.2v-1.2h9.3v1.2h-9.3zm-67.1-4.1v-11.6c0-.2.1-.3.3-.3.2 0 .3.1.3.3v11.6c0 .2-.1.3-.3.3-.2.1-.3-.1-.3-.3zm-2 0v-11.6c0-.2.1-.3.3-.3.2 0 .3.1.3.3v11.6c0 .2-.1.3-.3.3-.2.1-.3-.1-.3-.3zm-2 0v-11.6c0-.2.1-.3.3-.3.2 0 .3.1.3.3v11.6c0 .2-.1.3-.3.3-.1.1-.3-.1-.3-.3zm-2 0v-11.6c0-.2.1-.3.3-.3.2 0 .3.1.3.3v11.6c0 .2-.1.3-.3.3-.1.1-.3-.1-.3-.3zm-1.9 0v-11.6c0-.2.1-.3.3-.3.2 0 .3.1.3.3v11.6c0 .2-.1.3-.3.3-.2.1-.3-.1-.3-.3zm-2 0v-11.6c0-.2.1-.3.3-.3.2 0 .3.1.3.3v11.6c0 .2-.1.3-.3.3-.2.1-.3-.1-.3-.3zm-2 0v-11.6c0-.2.1-.3.3-.3.2 0 .3.1.3.3v11.6c0 .2-.1.3-.3.3-.2.1-.3-.1-.3-.3zm-2 0v-11.6c0-.2.1-.3.3-.3.2 0 .3.1.3.3v11.6c0 .2-.1.3-.3.3-.1.1-.3-.1-.3-.3zm-1.9 0v-11.6c0-.2.1-.3.3-.3.2 0 .3.1.3.3v11.6c0 .2-.1.3-.3.3-.2.1-.3-.1-.3-.3zm-2 0v-11.6c0-.2.1-.3.3-.3.2 0 .3.1.3.3v11.6c0 .2-.1.3-.3.3-.2.1-.3-.1-.3-.3zm.9 1H109v2H92.4v-2zm43.9-47.2c0-1.2 1-2.2 2.2-2.2 1.2 0 2.2 1 2.2 2.2 0 1.2-1 2.2-2.2 2.2-1.2 0-2.2-1-2.2-2.2zm30.5 52.1H159v1.5h7.8v-1.5zm0-1.2H159v-21.7c0-.4.4-.8.8-.8h6.2c.4 0 .8.4.8.8v21.7zm-1.5-29.3V93l-5-8v11.3h5zm.6.7h-6c0 1.7 1.4 3 3 3s3-1.4 3-3zm82.4 54.1h.8l-.8-.4v.4zm-2.3 0h1.2v-1l-1.2-.6v1.6zm-2.3 0h1.2v-2.2l-1.2-.6v2.8zm15.6 19.8v1.2h-5.8v-1.2h5.8zm6.9.3v.8h-5.8v-1.2h5.5l.3.4zm-13.9-31v1.2h-5.8v-1.2h5.8zm7 0v1.2h-5.8v-1.2h5.8zm6.9 0v.8l-.3.4h-5.5v-1.2h5.8zm-24.8 8.1l1.2 2.4v-3l-1.2-.6v1.2zm1.7-8.1l-.7 1.2h3v-1.2h-2.3zM35 187.7h-.8l.8.4v-.4zm2.2 0H36v1l1.2.6v-1.6zm2.3 0h-1.2v2.2l1.2.6v-2.8zm2.3 0h-1.2v3.4l1.2.6v-4zm2.3 0H43v4.6l1.2.6v-5.2zm2.3 0h-1.2v5.7l1.2.6v-6.3zm2.3 0h-1.2v6.9l1.2.6v-7.5zm2.3 0h-1.2v8.1l1.2.6v-8.7zm2.3 0h-1.2v9.3l1.2.6v-9.9zM24 167.8v-1.2h5.8v1.2H24zm-6.9-.3v-.8h5.8v1.2h-5.5l-.3-.4zm27.6 31v-1.2h5.8v1.2h-5.8zm-6.9 0v-1.2h5.8v1.2h-5.8zm-6.9 0v-1.2h5.8v1.2h-5.8zm-6.9 0v-1.2h5.8v1.2H24zm-6.9 0v-.8l.3-.4h5.5v1.2h-5.8zm35.9-1.1l2.2 1.2h-3.5v-1.2H53zm2.5.4l-.3-.2-.2-8.9-.7-.4v9.8l1.2.6v-.9zm2.3 1.1l-1.2-.5v1l1.2.6v-1.1zm2 .9l-.8-.4v1.1l.8.4v-1.1zm-24.9-32v-1.2h-4v1.2h4zm182.7 19.9h-2.7c-3.5 5.5-7.5 10.5-12.1 15.1-15.7 15.7-37.3 25.3-61.2 25.3-23.9 0-45.5-9.7-61.2-25.3-4.6-4.6-8.6-9.6-12.1-15.1h-2.7c3.7 6.1 8.1 11.7 13.1 16.7 16.1 16.1 38.3 26 62.8 26s46.7-9.9 62.8-26c5.2-5 9.6-10.7 13.3-16.7zm6.5 0h-2.7c-4 7-9 13.4-14.6 19.1-16.7 16.7-39.7 27-65.2 27s-48.5-10.3-65.2-27c-5.7-5.7-10.6-12.1-14.6-19.1h-2.7c4.3 7.6 9.5 14.6 15.7 20.7 17.1 17.1 40.7 27.7 66.8 27.7s49.7-10.6 66.8-27.7c6.1-6.2 11.4-13.1 15.7-20.7zm25-16.8v1.2h3.2v-1.2h-3.2zM193 151.1h1.6l.1-16.6c0-1.6.6-6.3 1.4-11.9h.1v-9.5l2.6 1.7v7.8h.1c.8 5.6 1.4 10.3 1.4 11.9l.1 16.6h1.6l-.1-16.6c0-1.5-.2-3.2-.4-4.6-.3-2.5-.7-5-1-7.5l-.1-.5V114l-5.9-3.8V122l-.1.5c-.4 2.5-.7 5-1 7.5-.2 1.5-.4 3.1-.4 4.6v16.5zm-18.3 0h1.6V126h9.3v25.1h1.6v-34.2-1.7c-.1-2.2-.5-4.5-.8-6.6-.3-2.1-.8-4.2-1.3-6.3-.3-.9-.6-2.4-1.3-3.3v-1c-.1-1.3-.4-2-1-3.1-.3-.7-1-1.1-1.8-1.1-.7 0-1.4.4-1.8 1.1-.6 1.1-.9 1.8-1 3.1v1c-.7.9-1.1 2.4-1.3 3.3-.6 2-1 4.2-1.3 6.3-.3 2.1-.7 4.4-.8 6.6v35.9zm-18 0h1.6v-47.2c0-.4.2-.8.4-1l.1-1.7.3-4.2v-.6h.4V82.7l6.3 10.1v3.5h.6v.6l.3 4.2.1 1.7c.3.3.4.6.4 1V151h1.6v-47.2c0-.6-.2-1.2-.5-1.7 0-.4-.1-.8-.1-1.2l-.3-4.2-.2-2.1h-.4v-2.3L158 77v17.7h-.3l-.2 2.1-.3 4.2c0 .4-.1.8-.1 1.2-.3.5-.5 1-.5 1.7v47.2zm-30.8 0h5.2v-.5h-3.6v-1.7h3.6v-.6h-3.6v-1.7h3.6v-.6h-3.6v-1.7h3.6v-.6h-3.6V142h5.7v-.6h-5.7v-1.7h3.6v-.6h-3.6v-1.7h3.6v-.6h-3.6v-1.7h3.6v-.6h-3.6v-1.7h3.6v-.6h-3.6v-1.7h8.9v-.6h-8.9v-1.7h3.6v-.6h-3.6v-1.7h3.6v-.6h-3.6v-1.7h3.6v-.6h-3.6v-1.7h3.6v-.6h-3.6V119h5.7v-.6h-5.7v-1.7h3.6v-.6h-3.6v-1.7h3.6v-.6h-3.6v-1.7h3.6v-.6h-3.6V109h3.6v-.6h-3.6v-1.7h8.9v-.6h-8.9v-1.7h3.6v-.6h-3.6V102h3.6v-.6h-3.6v-1.7h3.6V99h-3.6v-1.7h3.6v-.6h-3.6V95h5.7v-.6h-5.7v-1.7h3.6V92h-3.6v-1.7h3.6v-.6h-3.6V88h3.6v-.6h-3.6v-1.7h3.6V85h-3.6v-1.7h8.9v-.6h-8.9v-5.3c0-6 4.9-10.9 10.9-10.9s10.9 4.9 10.9 10.9v73.7h1.6V77.4c0-6.9-5.6-12.5-12.5-12.5s-12.5 5.6-12.5 12.5v73.7zm-44.8 0h1.6v-21.2c0-1 1.9-2.3 3.4-3.4l1.5-1.1c1.7-1.3 1.7-1.6 3.7-1.6v-2c-.3-.1-.5-.3-.5-.6V109c0-.3.3-.6.6-.6h4.3v-2h1.7c.4-3.4.8-6.8 1.1-10.3.1-.7.4-.7.8-.7h2.6c.4 0 .7 0 .8.7.4 3.4.8 6.8 1.1 10.3h1.7v2h4.3c.3 0 .6.3.6.6v12.2c0 .3-.2.6-.5.6v2c2 0 2 .3 3.7 1.6l1.5 1.1c1.5 1.1 3.4 2.4 3.4 3.4v21.2h1.6v-21.2c0-2-2.6-3.6-4-4.7l-1.5-1.1c-1.3-1-1.9-1.5-2.9-1.7.2-.3.3-.7.3-1.1V109c0-1.2-1-2.3-2.3-2.3H107v-2h-1.9c-.3-2.9-.7-5.9-1-8.8-.2-1.4-1.1-2.1-2.4-2.1h-2.6c-1.4 0-2.3.7-2.4 2.1-.3 2.9-.7 5.9-1 8.8h-1.9v2h-2.7c-1.2 0-2.3 1-2.3 2.3v12.2c0 .4.1.8.3 1.1-1 .2-1.6.8-2.9 1.7l-1.5 1.1c-1.4 1.1-4 2.7-4 4.7v21.3zm-27.8 0h2.3c-.3-3.1-.5-6.3-.5-9.5 0-23.9 9.7-45.5 25.3-61.2C96.1 64.7 117.7 55 141.6 55c23.9 0 45.5 9.7 61.2 25.3 15.7 15.7 25.3 37.3 25.3 61.2 0 3.2-.2 6.4-.5 9.5h2.3c.3-3.1.5-6.3.5-9.5 0-24.5-9.9-46.7-26-62.8-16.1-16.1-38.3-26-62.8-26s-46.7 9.9-62.8 26c-16.1 16.1-26 38.3-26 62.8 0 3.3.2 6.4.5 9.6zm-5.7 0H50c-.3-3.1-.5-6.3-.5-9.5 0-25.4 10.3-48.5 27-65.2 16.7-16.7 39.7-27 65.2-27s48.5 10.3 65.2 27c16.7 16.7 27 39.7 27 65.2 0 3.2-.2 6.4-.5 9.5h2.3c.3-3.1.5-6.3.5-9.5 0-26.1-10.6-49.7-27.7-66.8-17.1-17.1-40.7-27.7-66.8-27.7S91.9 57.7 74.8 74.8c-17.1 17.1-27.7 40.7-27.7 66.8.1 3.2.2 6.3.5 9.5zm94-112.3l7.5 4.7 8.2-3.5 6.7 5.8 8.6-2.2 5.8 6.8 8.8-.9L192 57l8.9.5 3.5 8.2 8.7 1.8 2.2 8.6 8.3 3.2.8 8.8 7.7 4.4-.5 8.9 7 5.5-1.9 8.7 6 6.5-3.2 8.3 5 7.4v.1h24.4l-15.4 18.3 15.4 18.3h-19.7v13.3h-19.3l-1.7 1.1-.2 8.9-8 3.8-1.5 8.8-8.5 2.5-2.8 8.4-8.8 1.2-4.1 7.9-8.9-.2-5.2 7.2-8.8-1.5-6.3 6.3-8.4-2.9-7.2 5.3-7.9-4.1-7.9 4.1-7.2-5.3-8.4 2.9-6.3-6.3-8.8 1.5-5.2-7.2-8.9.2-4.1-7.9-8.8-1.2-2.8-8.4-8.5-2.5-1.5-8.8-3.5-1.6v1.1H14.4l15.4-18.3-15.4-18.3h20.5v-13.3h5.6l2.6-5.6-4.4-7.7 5-7.4-3.2-8.3 6-6.5-1.9-8.7 7-5.5-.5-8.9 7.7-4.4.8-8.8 8.3-3.2 2.2-8.6 8.7-1.8 3.5-8.2 8.9-.5 4.7-7.6 8.8.9 5.8-6.8 8.6 2.2 6.7-5.8 8.2 3.5 7.6-4.7z"/></g></svg>